M48
; DRILL file {KiCad 9.0.6} date 2025-12-20T22:04:11+0100
; FORMAT={-:-/ absolute / metric / decimal}
; #@! TF.CreationDate,2025-12-20T22:04:11+01:00
; #@! TF.GenerationSoftware,Kicad,Pcbnew,9.0.6
; #@! TF.FileFunction,MixedPlating,1,2
FMAT,2
METRIC
; #@! TA.AperFunction,Plated,PTH,ViaDrill
T1C0.800
; #@! TA.AperFunction,Plated,PTH,ComponentDrill
T2C0.800
; #@! TA.AperFunction,Plated,PTH,ComponentDrill
T3C0.900
; #@! TA.AperFunction,Plated,PTH,ComponentDrill
T4C1.600
; #@! TA.AperFunction,Plated,PTH,ComponentDrill
T5C2.800
%
G90
G05
T1
X94.83Y-112.7
X94.87Y-109.93
X96.98Y-124.79
X97.02Y-108.66
X98.19Y-101.26
X98.39Y-124.79
X99.8Y-124.79
X100.13Y-104.85
X101.47Y-98.5
X103.28Y-85.28
X144.14Y-126.06
T2
X109.29Y-70.04
X109.29Y-72.58
X109.29Y-75.12
X109.29Y-77.66
X109.29Y-80.2
X109.29Y-82.74
X109.29Y-85.28
X109.29Y-87.82
X109.29Y-95.44
X109.29Y-97.98
X109.29Y-100.52
X109.29Y-103.06
X109.29Y-105.6
X109.29Y-108.14
X109.29Y-110.68
X109.29Y-113.22
X116.91Y-70.04
X116.91Y-72.58
X116.91Y-75.12
X116.91Y-77.66
X116.91Y-80.2
X116.91Y-82.74
X116.91Y-85.28
X116.91Y-87.82
X116.91Y-95.44
X116.91Y-97.98
X116.91Y-100.52
X116.91Y-103.06
X116.91Y-105.6
X116.91Y-108.14
X116.91Y-110.68
X116.91Y-113.22
X121.36Y-70.04
X121.36Y-72.58
X121.36Y-75.12
X121.36Y-77.66
X121.36Y-80.2
X121.36Y-82.74
X121.36Y-85.28
X121.36Y-87.82
X121.36Y-90.36
X121.36Y-95.44
X121.36Y-97.98
X121.36Y-100.52
X121.36Y-103.06
X121.36Y-105.6
X121.36Y-108.14
X121.36Y-110.68
X121.36Y-113.22
X134.06Y-70.04
X134.06Y-72.58
X134.06Y-75.12
X134.06Y-77.66
X134.06Y-80.2
X134.06Y-82.74
X134.06Y-85.28
X134.06Y-87.82
X134.06Y-90.36
X134.06Y-95.44
X134.06Y-97.98
X134.06Y-100.52
X134.06Y-103.06
X134.06Y-105.6
X134.06Y-108.14
X134.06Y-110.68
X134.06Y-113.22
X140.9Y-84.62
X140.9Y-92.41
X140.9Y-94.95
X140.9Y-97.49
X140.9Y-100.03
X140.9Y-102.57
X140.9Y-105.11
X140.9Y-108.36
X140.9Y-112.78
X140.91Y-70.04
X140.91Y-72.58
X140.91Y-75.12
X140.91Y-77.66
X140.91Y-80.2
X140.91Y-87.89
X142.89Y-62.49
X142.89Y-65.03
X150.51Y-62.49
X150.51Y-65.03
X153.6Y-84.62
X153.6Y-92.41
X153.6Y-94.95
X153.6Y-97.49
X153.6Y-100.03
X153.6Y-102.57
X153.6Y-105.11
X153.6Y-108.36
X153.6Y-112.78
X153.61Y-70.04
X153.61Y-72.58
X153.61Y-75.12
X153.61Y-77.66
X153.61Y-80.2
X153.61Y-87.89
X156.96Y-66.84
X156.96Y-69.38
X156.96Y-73.3
X156.96Y-75.84
X156.96Y-78.38
X156.96Y-80.92
X156.96Y-83.46
X156.96Y-86.0
X156.96Y-88.54
X156.96Y-94.94
X156.96Y-97.48
X156.96Y-100.02
X156.96Y-102.56
X156.96Y-105.1
X156.96Y-107.64
X156.96Y-110.18
X156.96Y-114.691
X156.96Y-117.231
X164.58Y-73.3
X164.58Y-75.84
X164.58Y-78.38
X164.58Y-80.92
X164.58Y-83.46
X164.58Y-86.0
X164.58Y-88.54
X164.58Y-94.94
X164.58Y-97.48
X164.58Y-100.02
X164.58Y-102.56
X164.58Y-105.1
X164.58Y-107.64
X164.58Y-110.18
X169.66Y-66.84
X169.66Y-69.38
X169.66Y-73.3
X169.66Y-75.84
X169.66Y-78.38
X169.66Y-80.92
X169.66Y-83.46
X169.66Y-87.27
X169.66Y-91.08
X169.66Y-94.25
X169.66Y-97.48
X169.66Y-100.02
X169.66Y-102.56
X169.66Y-105.1
X169.66Y-107.64
X169.66Y-114.691
X169.66Y-117.231
X171.445Y-111.38
X174.48Y-63.14
X177.795Y-111.38
X182.1Y-63.14
X182.36Y-73.3
X182.36Y-75.84
X182.36Y-78.38
X182.36Y-80.92
X182.36Y-83.46
X182.36Y-87.27
X182.36Y-91.08
X182.36Y-94.25
X182.36Y-97.48
X182.36Y-100.02
X182.36Y-102.56
X182.36Y-105.1
X182.36Y-107.64
X184.69Y-68.22
X184.69Y-80.92
X188.39Y-79.48
X191.67Y-91.68
X191.67Y-94.22
X191.67Y-96.76
X191.67Y-109.41
X194.74Y-79.48
X204.37Y-91.68
X204.37Y-94.22
X204.37Y-96.76
X204.37Y-109.41
T3
X185.98Y-86.0
X185.98Y-98.75
X185.98Y-101.29
X185.98Y-106.37
X186.55Y-91.07
X186.55Y-93.61
X187.25Y-84.73
X187.25Y-87.27
X187.25Y-100.02
X187.25Y-105.1
X187.25Y-107.64
X187.82Y-92.34
T4
X187.27Y-63.89
X191.64Y-68.97
X195.52Y-85.17
X195.52Y-103.18
X196.01Y-63.89
X198.52Y-118.61
X200.52Y-85.17
X200.52Y-103.18
X202.7Y-78.16
X203.52Y-118.61
T5
X198.35Y-73.08
X207.05Y-73.08
M30
