%TF.GenerationSoftware,KiCad,Pcbnew,9.0.3*%
%TF.CreationDate,2025-08-13T21:30:13+02:00*%
%TF.ProjectId,app-mtu-adapter,6170702d-6d74-4752-9d61-646170746572,rev?*%
%TF.SameCoordinates,Original*%
%TF.FileFunction,Soldermask,Top*%
%TF.FilePolarity,Negative*%
%FSLAX46Y46*%
G04 Gerber Fmt 4.6, Leading zero omitted, Abs format (unit mm)*
G04 Created by KiCad (PCBNEW 9.0.3) date 2025-08-13 21:30:13*
%MOMM*%
%LPD*%
G01*
G04 APERTURE LIST*
G04 Aperture macros list*
%AMFreePoly0*
4,1,22,-1.270000,3.180000,1.270000,3.180000,1.270000,-1.910000,1.254364,-2.108672,1.198732,-2.329454,1.104571,-2.536755,0.974909,-2.723912,0.813912,-2.884909,0.626755,-3.014571,0.419454,-3.108732,0.198672,-3.164364,0.000000,-3.180000,-0.198672,-3.164364,-0.419454,-3.108732,-0.626755,-3.014571,-0.813912,-2.884909,-0.974909,-2.723912,-1.104571,-2.536755,-1.198732,-2.329454,-1.254364,-2.108672,
-1.270000,-1.910000,-1.270000,3.180000,-1.270000,3.180000,$1*%
G04 Aperture macros list end*
%ADD10C,0.120000*%
%ADD11C,3.000000*%
%ADD12C,1.700000*%
%ADD13R,1.700000X1.700000*%
%ADD14C,4.300000*%
%ADD15C,1.600000*%
%ADD16C,3.180000*%
%ADD17O,2.000000X2.000000*%
%ADD18FreePoly0,270.000000*%
G04 APERTURE END LIST*
%TO.C,P1*%
D10*
X105690000Y-51190000D02*
X115750000Y-51190000D01*
X115750000Y-142430000D01*
X105690000Y-142430000D01*
X105690000Y-51190000D01*
G36*
X105690000Y-51190000D02*
G01*
X115750000Y-51190000D01*
X115750000Y-142430000D01*
X105690000Y-142430000D01*
X105690000Y-51190000D01*
G37*
%TD*%
D11*
%TO.C,TP1*%
X150910000Y-149250000D03*
%TD*%
D12*
%TO.C,J1*%
X149640000Y-142000000D03*
D13*
X152180000Y-142000000D03*
%TD*%
D14*
%TO.C,M1*%
X160380000Y-145780000D03*
%TD*%
%TO.C,M1*%
X160380000Y-47840000D03*
%TD*%
D15*
%TO.C,R1*%
X132270000Y-138480000D03*
X132270000Y-130860000D03*
%TD*%
D14*
%TO.C,M1*%
X121080000Y-47840000D03*
%TD*%
%TO.C,M2*%
X121080000Y-145780000D03*
%TD*%
D16*
%TO.C,P2*%
X140730000Y-45655000D03*
X140730000Y-147965000D03*
D17*
X138190000Y-55230000D03*
X138190000Y-59190000D03*
X138190000Y-63150000D03*
X138190000Y-67110000D03*
X138190000Y-71070000D03*
X138190000Y-75030000D03*
X138190000Y-78990000D03*
X138190000Y-82950000D03*
X138190000Y-86910000D03*
X138190000Y-90870000D03*
X138190000Y-94830000D03*
X138190000Y-98790000D03*
X138190000Y-102750000D03*
X138190000Y-106710000D03*
X138190000Y-110670000D03*
X138190000Y-114630000D03*
X138190000Y-118590000D03*
X138190000Y-122550000D03*
X138190000Y-126510000D03*
X138190000Y-130470000D03*
X138190000Y-134430000D03*
X138190000Y-138390000D03*
X143270000Y-55230000D03*
X143270000Y-59190000D03*
X143270000Y-63150000D03*
X143270000Y-67110000D03*
X143270000Y-71070000D03*
X143270000Y-75030000D03*
X143270000Y-78990000D03*
X143270000Y-82950000D03*
X143270000Y-86910000D03*
X143270000Y-90870000D03*
X143270000Y-94830000D03*
X143270000Y-98790000D03*
X143270000Y-102750000D03*
X143270000Y-106710000D03*
X143270000Y-110670000D03*
X143270000Y-114630000D03*
X143270000Y-118590000D03*
X143270000Y-122550000D03*
X143270000Y-126510000D03*
X143270000Y-130470000D03*
X143270000Y-134430000D03*
X143270000Y-138390000D03*
%TD*%
D18*
%TO.C,P3*%
X164870000Y-55230000D03*
X164870000Y-59190000D03*
X164870000Y-63150000D03*
X164870000Y-67110000D03*
X164870000Y-71070000D03*
X164870000Y-75030000D03*
X164870000Y-78990000D03*
X164870000Y-82950000D03*
X164870000Y-86910000D03*
X164870000Y-90870000D03*
X164870000Y-94830000D03*
X164870000Y-98790000D03*
X164870000Y-102750000D03*
X164870000Y-106710000D03*
X164870000Y-110670000D03*
X164870000Y-114630000D03*
X164870000Y-118590000D03*
X164870000Y-122550000D03*
X164870000Y-126510000D03*
X164870000Y-130470000D03*
X164870000Y-134430000D03*
X164870000Y-138390000D03*
%TD*%
M02*
