%TF.GenerationSoftware,KiCad,Pcbnew,9.0.3*%
%TF.CreationDate,2025-08-13T21:30:12+02:00*%
%TF.ProjectId,app-mtu-adapter,6170702d-6d74-4752-9d61-646170746572,rev?*%
%TF.SameCoordinates,Original*%
%TF.FileFunction,Copper,L1,Top*%
%TF.FilePolarity,Positive*%
%FSLAX46Y46*%
G04 Gerber Fmt 4.6, Leading zero omitted, Abs format (unit mm)*
G04 Created by KiCad (PCBNEW 9.0.3) date 2025-08-13 21:30:12*
%MOMM*%
%LPD*%
G01*
G04 APERTURE LIST*
G04 Aperture macros list*
%AMFreePoly0*
4,1,22,-1.300000,4.445000,1.300000,4.445000,1.300000,-3.145000,1.280250,-3.370743,1.221600,-3.589626,1.125833,-3.795000,0.995858,-3.980624,0.835624,-4.140858,0.650000,-4.270833,0.444626,-4.366600,0.225743,-4.425250,0.000000,-4.445000,-0.225743,-4.425250,-0.444626,-4.366600,-0.650000,-4.270833,-0.835624,-4.140858,-0.995858,-3.980624,-1.125833,-3.795000,-1.221600,-3.589626,-1.280250,-3.370743,
-1.300000,-3.145000,-1.300000,4.445000,-1.300000,4.445000,$1*%
%AMFreePoly1*
4,1,22,-1.270000,3.180000,1.270000,3.180000,1.270000,-1.910000,1.254364,-2.108672,1.198732,-2.329454,1.104571,-2.536755,0.974909,-2.723912,0.813912,-2.884909,0.626755,-3.014571,0.419454,-3.108732,0.198672,-3.164364,0.000000,-3.180000,-0.198672,-3.164364,-0.419454,-3.108732,-0.626755,-3.014571,-0.813912,-2.884909,-0.974909,-2.723912,-1.104571,-2.536755,-1.198732,-2.329454,-1.254364,-2.108672,
-1.270000,-1.910000,-1.270000,3.180000,-1.270000,3.180000,$1*%
G04 Aperture macros list end*
%TA.AperFunction,ComponentPad*%
%ADD10C,3.000000*%
%TD*%
%TA.AperFunction,ComponentPad*%
%ADD11C,1.700000*%
%TD*%
%TA.AperFunction,ComponentPad*%
%ADD12R,1.700000X1.700000*%
%TD*%
%TA.AperFunction,ConnectorPad*%
%ADD13FreePoly0,90.000000*%
%TD*%
%TA.AperFunction,ComponentPad*%
%ADD14C,1.600000*%
%TD*%
%TA.AperFunction,ComponentPad*%
%ADD15O,2.000000X2.000000*%
%TD*%
%TA.AperFunction,ConnectorPad*%
%ADD16FreePoly1,270.000000*%
%TD*%
%TA.AperFunction,ViaPad*%
%ADD17C,0.500000*%
%TD*%
%TA.AperFunction,Conductor*%
%ADD18C,0.400000*%
%TD*%
%TA.AperFunction,Conductor*%
%ADD19C,2.000000*%
%TD*%
%TA.AperFunction,Conductor*%
%ADD20C,1.400000*%
%TD*%
G04 APERTURE END LIST*
D10*
%TO.P,TP1,1,1*%
%TO.N,Net-(J1-Pin_1)*%
X150910000Y-149250000D03*
%TD*%
D11*
%TO.P,J1,2,Pin_2*%
%TO.N,Net-(J1-Pin_2)*%
X149640000Y-142000000D03*
D12*
%TO.P,J1,1,Pin_1*%
%TO.N,Net-(J1-Pin_1)*%
X152180000Y-142000000D03*
%TD*%
D13*
%TO.P,P1,22,COLD*%
%TO.N,Net-(P1-COLD)*%
X111050000Y-138390000D03*
%TO.P,P1,21,COLA*%
%TO.N,Net-(P1-COLA)*%
X111050000Y-134430000D03*
%TO.P,P1,20,COLE*%
%TO.N,Net-(P1-COLE)*%
X111050000Y-130470000D03*
%TO.P,P1,19,COLB*%
%TO.N,Net-(P1-COLB)*%
X111050000Y-126510000D03*
%TO.P,P1,18,COLF*%
%TO.N,Net-(P1-COLF)*%
X111050000Y-122550000D03*
%TO.P,P1,17,ROW0*%
%TO.N,Net-(P1-ROW0)*%
X111050000Y-118590000D03*
%TO.P,P1,16,PB5*%
%TO.N,Net-(P1-PB5)*%
X111050000Y-114630000D03*
%TO.P,P1,15,PB7*%
%TO.N,Net-(J1-Pin_1)*%
X111050000Y-110670000D03*
%TO.P,P1,14,PA0*%
%TO.N,Net-(P1-PA0)*%
X111050000Y-106710000D03*
%TO.P,P1,13,PB4*%
%TO.N,Net-(P1-PB4)*%
X111050000Y-102750000D03*
%TO.P,P1,12,PB3*%
%TO.N,Net-(P1-PB3)*%
X111050000Y-98790000D03*
%TO.P,P1,11,PB2*%
%TO.N,Net-(P1-PB2)*%
X111050000Y-94830000D03*
%TO.P,P1,10,PB1*%
%TO.N,Net-(P1-PB1)*%
X111050000Y-90870000D03*
%TO.P,P1,9,PB0*%
%TO.N,Net-(P1-PB0)*%
X111050000Y-86910000D03*
%TO.P,P1,8,PA7*%
%TO.N,Net-(P1-PA7)*%
X111050000Y-82950000D03*
%TO.P,P1,7,PA6*%
%TO.N,Net-(P1-PA6)*%
X111050000Y-78990000D03*
%TO.P,P1,6,PA5*%
%TO.N,Net-(P1-PA5)*%
X111050000Y-75030000D03*
%TO.P,P1,5,PA4*%
%TO.N,Net-(P1-PA4)*%
X111050000Y-71070000D03*
%TO.P,P1,4,PA1*%
%TO.N,Net-(P1-PA1)*%
X111050000Y-67110000D03*
%TO.P,P1,3,PA2*%
%TO.N,Net-(P1-PA2)*%
X111050000Y-63150000D03*
%TO.P,P1,2,PA3*%
%TO.N,Net-(P1-PA3)*%
X111050000Y-59190000D03*
%TO.P,P1,1,GND*%
%TO.N,Net-(P1-GND)*%
X111050000Y-55230000D03*
%TD*%
D14*
%TO.P,R1,2*%
%TO.N,Net-(J1-Pin_2)*%
X132270000Y-138480000D03*
%TO.P,R1,1*%
%TO.N,Net-(P1-+5V)*%
X132270000Y-130860000D03*
%TD*%
D15*
%TO.P,P2,1,1*%
%TO.N,Net-(P1-GND)*%
X138190000Y-55230000D03*
%TO.P,P2,2,2*%
%TO.N,Net-(P1-PA0)*%
X138190000Y-59190000D03*
%TO.P,P2,3,3*%
%TO.N,Net-(P1-PA1)*%
X138190000Y-63150000D03*
%TO.P,P2,4,4*%
%TO.N,Net-(P1-PA2)*%
X138190000Y-67110000D03*
%TO.P,P2,5,5*%
%TO.N,Net-(P1-PA3)*%
X138190000Y-71070000D03*
%TO.P,P2,6,6*%
%TO.N,Net-(P1-PA4)*%
X138190000Y-75030000D03*
%TO.P,P2,7,7*%
%TO.N,Net-(P1-PA5)*%
X138190000Y-78990000D03*
%TO.P,P2,8,8*%
%TO.N,Net-(P1-PA6)*%
X138190000Y-82950000D03*
%TO.P,P2,9,9*%
%TO.N,Net-(P1-PA7)*%
X138190000Y-86910000D03*
%TO.P,P2,10,\u00BA0*%
%TO.N,Net-(P1-AUD_H)*%
X138190000Y-90870000D03*
%TO.P,P2,11,11*%
%TO.N,Net-(P1-+5V)*%
X138190000Y-94830000D03*
%TO.P,P2,12,12*%
%TO.N,unconnected-(P2-Pad12)*%
X138190000Y-98790000D03*
%TO.P,P2,13,13*%
%TO.N,unconnected-(P2-Pad13)*%
X138190000Y-102750000D03*
%TO.P,P2,14,14*%
%TO.N,unconnected-(P2-Pad14)*%
X138190000Y-106710000D03*
%TO.P,P2,15,15*%
%TO.N,unconnected-(P2-Pad15)*%
X138190000Y-110670000D03*
%TO.P,P2,16,16*%
%TO.N,unconnected-(P2-Pad16)*%
X138190000Y-114630000D03*
%TO.P,P2,17,17*%
%TO.N,unconnected-(P2-Pad17)*%
X138190000Y-118590000D03*
%TO.P,P2,18,18*%
%TO.N,unconnected-(P2-Pad18)*%
X138190000Y-122550000D03*
%TO.P,P2,19,19*%
%TO.N,unconnected-(P2-Pad19)*%
X138190000Y-126510000D03*
%TO.P,P2,20,20*%
%TO.N,unconnected-(P2-Pad20)*%
X138190000Y-130470000D03*
%TO.P,P2,21,21*%
%TO.N,unconnected-(P2-Pad21)*%
X138190000Y-134430000D03*
%TO.P,P2,22,22*%
%TO.N,unconnected-(P2-Pad22)*%
X138190000Y-138390000D03*
%TO.P,P2,A,A*%
%TO.N,Net-(P1-+5V)*%
X143270000Y-55230000D03*
%TO.P,P2,B,B*%
%TO.N,unconnected-(P2-PadB)*%
X143270000Y-59190000D03*
%TO.P,P2,C,C*%
%TO.N,unconnected-(P2-PadC)*%
X143270000Y-63150000D03*
%TO.P,P2,D,D*%
%TO.N,unconnected-(P2-PadD)*%
X143270000Y-67110000D03*
%TO.P,P2,E,E*%
%TO.N,unconnected-(P2-PadE)*%
X143270000Y-71070000D03*
%TO.P,P2,F,F*%
%TO.N,unconnected-(P2-PadF)*%
X143270000Y-75030000D03*
%TO.P,P2,H,H*%
%TO.N,unconnected-(P2-PadH)*%
X143270000Y-78990000D03*
%TO.P,P2,J,J*%
%TO.N,unconnected-(P2-PadJ)*%
X143270000Y-82950000D03*
%TO.P,P2,K,K*%
%TO.N,unconnected-(P2-PadK)*%
X143270000Y-86910000D03*
%TO.P,P2,L,L*%
%TO.N,unconnected-(P2-PadL)*%
X143270000Y-90870000D03*
%TO.P,P2,M,M*%
%TO.N,unconnected-(P2-PadM)*%
X143270000Y-94830000D03*
%TO.P,P2,N,N*%
%TO.N,unconnected-(P2-PadN)*%
X143270000Y-98790000D03*
%TO.P,P2,P,P*%
%TO.N,unconnected-(P2-PadP)*%
X143270000Y-102750000D03*
%TO.P,P2,R,R*%
%TO.N,unconnected-(P2-PadR)*%
X143270000Y-106710000D03*
%TO.P,P2,S,PTR_R*%
%TO.N,unconnected-(P2-PTR_R-PadS)*%
X143270000Y-110670000D03*
%TO.P,P2,T,T*%
%TO.N,unconnected-(P2-PadT)*%
X143270000Y-114630000D03*
%TO.P,P2,U,U*%
%TO.N,unconnected-(P2-PadU)*%
X143270000Y-118590000D03*
%TO.P,P2,V,V*%
%TO.N,unconnected-(P2-PadV)*%
X143270000Y-122550000D03*
%TO.P,P2,W,W*%
%TO.N,unconnected-(P2-PadW)*%
X143270000Y-126510000D03*
%TO.P,P2,X,X*%
%TO.N,unconnected-(P2-PadX)*%
X143270000Y-130470000D03*
%TO.P,P2,Y,Y*%
%TO.N,unconnected-(P2-PadY)*%
X143270000Y-134430000D03*
%TO.P,P2,Z,Z*%
%TO.N,unconnected-(P2-PadZ)*%
X143270000Y-138390000D03*
%TD*%
D16*
%TO.P,P3,1,GND*%
%TO.N,Net-(P1-GND)*%
X164870000Y-55230000D03*
%TO.P,P3,2,PA3*%
%TO.N,Net-(P1-PA3)*%
X164870000Y-59190000D03*
%TO.P,P3,3,PA2*%
%TO.N,Net-(P1-PA2)*%
X164870000Y-63150000D03*
%TO.P,P3,4,PA1*%
%TO.N,Net-(P1-PA1)*%
X164870000Y-67110000D03*
%TO.P,P3,5,PA4*%
%TO.N,Net-(P1-PA4)*%
X164870000Y-71070000D03*
%TO.P,P3,6,PA5*%
%TO.N,Net-(P1-PA5)*%
X164870000Y-75030000D03*
%TO.P,P3,7,PA6*%
%TO.N,Net-(P1-PA6)*%
X164870000Y-78990000D03*
%TO.P,P3,8,PA7*%
%TO.N,Net-(P1-PA7)*%
X164870000Y-82950000D03*
%TO.P,P3,9,PB0*%
%TO.N,Net-(P1-PB0)*%
X164870000Y-86910000D03*
%TO.P,P3,10,PB1*%
%TO.N,Net-(P1-PB1)*%
X164870000Y-90870000D03*
%TO.P,P3,11,PB2*%
%TO.N,Net-(P1-PB2)*%
X164870000Y-94830000D03*
%TO.P,P3,12,PB3*%
%TO.N,Net-(P1-PB3)*%
X164870000Y-98790000D03*
%TO.P,P3,13,PB4*%
%TO.N,Net-(P1-PB4)*%
X164870000Y-102750000D03*
%TO.P,P3,14,PA0*%
%TO.N,Net-(P1-PA0)*%
X164870000Y-106710000D03*
%TO.P,P3,15,PB7*%
%TO.N,Net-(J1-Pin_1)*%
X164870000Y-110670000D03*
%TO.P,P3,16,PB5*%
%TO.N,Net-(P1-PB5)*%
X164870000Y-114630000D03*
%TO.P,P3,17,ROW0*%
%TO.N,Net-(P1-ROW0)*%
X164870000Y-118590000D03*
%TO.P,P3,18,COLF*%
%TO.N,Net-(P1-COLF)*%
X164870000Y-122550000D03*
%TO.P,P3,19,COLB*%
%TO.N,Net-(P1-COLB)*%
X164870000Y-126510000D03*
%TO.P,P3,20,COLE*%
%TO.N,Net-(P1-COLE)*%
X164870000Y-130470000D03*
%TO.P,P3,21,COLA*%
%TO.N,Net-(P1-COLA)*%
X164870000Y-134430000D03*
%TO.P,P3,22,COLD*%
%TO.N,Net-(P1-COLD)*%
X164870000Y-138390000D03*
%TD*%
D17*
%TO.N,Net-(P1-PA2)*%
X116950000Y-63150000D03*
%TO.N,Net-(P1-PA5)*%
X116950000Y-75030000D03*
%TO.N,Net-(P1-PB4)*%
X116950000Y-102750000D03*
%TO.N,Net-(P1-PA0)*%
X116950000Y-106710000D03*
%TO.N,Net-(P1-PA6)*%
X116950000Y-78990000D03*
%TO.N,Net-(P1-COLF)*%
X116950000Y-122550000D03*
%TO.N,Net-(P1-PB1)*%
X116950000Y-90870000D03*
%TO.N,Net-(P1-COLB)*%
X116950000Y-126510000D03*
%TO.N,Net-(P1-PB5)*%
X116950000Y-114630000D03*
%TO.N,Net-(P1-COLD)*%
X116950000Y-138390000D03*
%TO.N,Net-(P1-PA1)*%
X116950000Y-67110000D03*
%TO.N,Net-(P1-PB0)*%
X116950000Y-86910000D03*
%TO.N,Net-(P1-ROW0)*%
X116950000Y-118590000D03*
%TO.N,Net-(P1-PB2)*%
X116950000Y-94830000D03*
%TO.N,Net-(P1-PA4)*%
X116950000Y-71070000D03*
%TO.N,Net-(P1-PA7)*%
X116950000Y-82950000D03*
%TO.N,Net-(P1-COLA)*%
X116950000Y-134430000D03*
%TO.N,Net-(P1-PA3)*%
X116950000Y-59190000D03*
%TO.N,Net-(P1-PB3)*%
X116950000Y-98790000D03*
%TO.N,Net-(P1-COLE)*%
X116950000Y-130470000D03*
%TO.N,Net-(J1-Pin_1)*%
X116950000Y-110670000D03*
%TO.N,Net-(P1-PA5)*%
X160270000Y-75030000D03*
%TO.N,Net-(P1-PA6)*%
X160270000Y-78990000D03*
%TO.N,Net-(P1-PA2)*%
X160270000Y-63150000D03*
%TO.N,Net-(P1-PB4)*%
X160270000Y-102750000D03*
%TO.N,Net-(P1-COLF)*%
X160270000Y-122550000D03*
%TO.N,Net-(P1-PB1)*%
X160270000Y-90870000D03*
%TO.N,Net-(P1-PA0)*%
X160270000Y-106710000D03*
%TO.N,Net-(P1-COLD)*%
X160270000Y-138390000D03*
%TO.N,Net-(P1-PB3)*%
X160270000Y-98790000D03*
%TO.N,Net-(P1-PB5)*%
X160270000Y-114630000D03*
%TO.N,Net-(P1-ROW0)*%
X160270000Y-118590000D03*
%TO.N,Net-(P1-PA3)*%
X160270000Y-59190000D03*
%TO.N,Net-(P1-PB0)*%
X160270000Y-86910000D03*
%TO.N,Net-(P1-PA1)*%
X160270000Y-67110000D03*
%TO.N,Net-(P1-PA7)*%
X160270000Y-82950000D03*
%TO.N,Net-(P1-COLE)*%
X160270000Y-130470000D03*
%TO.N,Net-(P1-PB2)*%
X160270000Y-94830000D03*
%TO.N,Net-(P1-COLA)*%
X160270000Y-134430000D03*
%TO.N,Net-(P1-PA4)*%
X160270000Y-71070000D03*
%TO.N,Net-(P1-COLB)*%
X160270000Y-126510000D03*
%TO.N,Net-(J1-Pin_1)*%
X160270000Y-110670000D03*
%TO.N,Net-(P1-AUD_H)*%
X141640000Y-100660000D03*
%TD*%
D18*
%TO.N,Net-(J1-Pin_1)*%
X152180000Y-147772893D02*
G75*
G02*
X152033556Y-148126450I-500000J-7D01*
G01*
X149763893Y-139791000D02*
G75*
G02*
X150117449Y-139937443I7J-500000D01*
G01*
X152033553Y-148126447D02*
X150910000Y-149250000D01*
X152180000Y-142000000D02*
X152180000Y-147772893D01*
X145457107Y-110670000D02*
X160270000Y-110670000D01*
X141869000Y-138763207D02*
X141869000Y-114258107D01*
X149763893Y-139791000D02*
X142896793Y-139791000D01*
X141869000Y-114258107D02*
G75*
G02*
X142015444Y-113904550I500000J7D01*
G01*
X142543239Y-139644553D02*
X142015446Y-139116760D01*
X142015446Y-139116760D02*
G75*
G02*
X141868995Y-138763207I353554J353560D01*
G01*
X142896793Y-139791000D02*
G75*
G02*
X142543243Y-139644549I7J500000D01*
G01*
X145103554Y-110816446D02*
G75*
G02*
X145457107Y-110670005I353546J-353554D01*
G01*
X152180000Y-142000000D02*
X150117446Y-139937446D01*
X142015447Y-113904553D02*
X145103554Y-110816446D01*
%TO.N,Net-(J1-Pin_2)*%
X149639000Y-141999000D02*
X149640000Y-142000000D01*
X135996107Y-141999000D02*
X149639000Y-141999000D01*
X135642554Y-141852554D02*
G75*
G03*
X135996107Y-141998995I353546J353554D01*
G01*
X132270000Y-138480000D02*
X135642554Y-141852554D01*
D19*
%TO.N,Net-(P1-GND)*%
X160644553Y-55083553D02*
G75*
G03*
X160998107Y-55229995I353547J353553D01*
G01*
X158382893Y-53029000D02*
G75*
G02*
X158736449Y-53175443I7J-500000D01*
G01*
X160644553Y-55083553D02*
X158736446Y-53175446D01*
X164870000Y-55230000D02*
X160998107Y-55230000D01*
X138190000Y-55230000D02*
X111050000Y-55230000D01*
D18*
%TO.N,Net-(P1-PA0)*%
X142643553Y-104563553D02*
G75*
G03*
X142997107Y-104709995I353547J353553D01*
G01*
X140780000Y-102492893D02*
G75*
G03*
X140926443Y-102846449I500000J-7D01*
G01*
X144106446Y-104856446D02*
G75*
G03*
X143752893Y-104710005I-353546J-353554D01*
G01*
X145813553Y-106563553D02*
G75*
G03*
X146167107Y-106709995I353547J353553D01*
G01*
X135735446Y-61644554D02*
X138190000Y-59190000D01*
X135589000Y-67983092D02*
X135589000Y-61998107D01*
X136642554Y-69243753D02*
X135735447Y-68336646D01*
X136789000Y-91243207D02*
X136789000Y-69597306D01*
X137609686Y-92271000D02*
X136935447Y-91596761D01*
X137612314Y-92271000D02*
X137609686Y-92271000D01*
X140633554Y-95292240D02*
X137612314Y-92271000D01*
X140780000Y-102492893D02*
X140780000Y-95645793D01*
X142643553Y-104563553D02*
X140926446Y-102846446D01*
X145813553Y-106563553D02*
X144106446Y-104856446D01*
X160270000Y-106710000D02*
X146167107Y-106710000D01*
X135735447Y-68336646D02*
G75*
G02*
X135589006Y-67983092I353553J353546D01*
G01*
X136789000Y-69597306D02*
G75*
G03*
X136642557Y-69243750I-500000J6D01*
G01*
X135589000Y-61998107D02*
G75*
G02*
X135735443Y-61644551I500000J7D01*
G01*
X136935447Y-91596761D02*
G75*
G02*
X136788995Y-91243207I353553J353561D01*
G01*
X140780000Y-95645793D02*
G75*
G03*
X140633550Y-95292244I-500000J-7D01*
G01*
X143752893Y-104710000D02*
X142997107Y-104710000D01*
%TO.N,Net-(P1-PA6)*%
X140956107Y-80391000D02*
X158661893Y-80391000D01*
%TO.N,Net-(P1-PA7)*%
X140956107Y-84351000D02*
X158661893Y-84351000D01*
%TO.N,Net-(P1-PA6)*%
X140602554Y-80537446D02*
G75*
G02*
X140956107Y-80391005I353546J-353554D01*
G01*
X138190000Y-82950000D02*
X140602554Y-80537446D01*
%TO.N,Net-(P1-PA7)*%
X138190000Y-86910000D02*
X140602554Y-84497446D01*
X140602554Y-84497446D02*
G75*
G02*
X140956107Y-84351005I353546J-353554D01*
G01*
%TO.N,Net-(P1-PA5)*%
X138190000Y-78990000D02*
X140602554Y-76577446D01*
X140602554Y-76577446D02*
G75*
G02*
X140956107Y-76431005I353546J-353554D01*
G01*
X140956107Y-76431000D02*
X158661893Y-76431000D01*
%TO.N,Net-(P1-PA4)*%
X140956107Y-72471000D02*
X158661893Y-72471000D01*
X138190000Y-75030000D02*
X140602554Y-72617446D01*
X140602554Y-72617446D02*
G75*
G02*
X140956107Y-72471005I353546J-353554D01*
G01*
%TO.N,Net-(P1-PA1)*%
X136936447Y-67837761D02*
X137463240Y-68364554D01*
X136790000Y-64757107D02*
X136790000Y-67484207D01*
X138190000Y-63150000D02*
X136936446Y-64403554D01*
X136790000Y-67484207D02*
G75*
G03*
X136936451Y-67837757I500000J7D01*
G01*
X137463240Y-68364554D02*
G75*
G03*
X137816793Y-68511005I353560J353554D01*
G01*
X136936446Y-64403554D02*
G75*
G03*
X136790005Y-64757107I353554J-353546D01*
G01*
X137816793Y-68511000D02*
X158661893Y-68511000D01*
%TO.N,Net-(P1-PA2)*%
X139798107Y-65709000D02*
X157503893Y-65709000D01*
X138190000Y-67110000D02*
X139444554Y-65855446D01*
X139444554Y-65855446D02*
G75*
G02*
X139798107Y-65709005I353546J-353554D01*
G01*
%TO.N,Net-(P1-PA3)*%
X138974793Y-60591000D02*
X158661893Y-60591000D01*
X138043553Y-69794810D02*
X136336446Y-68087703D01*
X136190000Y-67734150D02*
X136190000Y-63375793D01*
X138190000Y-71070000D02*
X138190000Y-70148364D01*
X136190000Y-63375793D02*
G75*
G02*
X136336451Y-63022243I500000J-7D01*
G01*
X136336447Y-63022239D02*
X138621240Y-60737446D01*
X136336446Y-68087703D02*
G75*
G02*
X136189964Y-67734150I353554J353603D01*
G01*
X138621240Y-60737446D02*
G75*
G02*
X138974793Y-60590995I353560J-353554D01*
G01*
X138190000Y-70148364D02*
G75*
G03*
X138043535Y-69794828I-500000J-36D01*
G01*
D19*
%TO.N,Net-(P1-GND)*%
X158382893Y-53029000D02*
X140598107Y-53029000D01*
X140244553Y-53175447D02*
X138190000Y-55230000D01*
X140598107Y-53029000D02*
G75*
G03*
X140244550Y-53175444I-7J-500000D01*
G01*
D18*
%TO.N,Net-(P1-+5V)*%
X132270000Y-100957107D02*
G75*
G02*
X132416443Y-100603551I500000J7D01*
G01*
%TO.N,Net-(P1-COLD)*%
X116950000Y-138390000D02*
X111050000Y-138390000D01*
%TO.N,Net-(P1-PB0)*%
X116950000Y-86910000D02*
X111050000Y-86910000D01*
%TO.N,Net-(P1-PA1)*%
X116950000Y-67110000D02*
X111050000Y-67110000D01*
%TO.N,Net-(P1-PB3)*%
X116950000Y-98790000D02*
X111050000Y-98790000D01*
%TO.N,Net-(P1-ROW0)*%
X116950000Y-118590000D02*
X111050000Y-118590000D01*
%TO.N,Net-(P1-PB2)*%
X116950000Y-94830000D02*
X111050000Y-94830000D01*
%TO.N,Net-(P1-PA3)*%
X116950000Y-59190000D02*
X111050000Y-59190000D01*
%TO.N,Net-(P1-COLE)*%
X116950000Y-130470000D02*
X111050000Y-130470000D01*
%TO.N,Net-(P1-PB5)*%
X116950000Y-114630000D02*
X111050000Y-114630000D01*
%TO.N,Net-(P1-PA7)*%
X116950000Y-82950000D02*
X111050000Y-82950000D01*
%TO.N,Net-(P1-PA4)*%
X116950000Y-71070000D02*
X111050000Y-71070000D01*
%TO.N,Net-(J1-Pin_1)*%
X116950000Y-110670000D02*
X111050000Y-110670000D01*
%TO.N,Net-(P1-COLA)*%
X116950000Y-134430000D02*
X111050000Y-134430000D01*
%TO.N,Net-(P1-COLB)*%
X116950000Y-126510000D02*
X111050000Y-126510000D01*
%TO.N,Net-(P1-PA2)*%
X116950000Y-63150000D02*
X111050000Y-63150000D01*
%TO.N,Net-(P1-PA6)*%
X116950000Y-78990000D02*
X111050000Y-78990000D01*
%TO.N,Net-(P1-+5V)*%
X132270000Y-100957107D02*
X132270000Y-130860000D01*
%TO.N,Net-(P1-COLF)*%
X116950000Y-122550000D02*
X111050000Y-122550000D01*
%TO.N,Net-(P1-PB4)*%
X116950000Y-102750000D02*
X111050000Y-102750000D01*
%TO.N,Net-(P1-PA0)*%
X116950000Y-106710000D02*
X111050000Y-106710000D01*
%TO.N,Net-(P1-PB1)*%
X116950000Y-90870000D02*
X111050000Y-90870000D01*
%TO.N,Net-(P1-PA5)*%
X116950000Y-75030000D02*
X111050000Y-75030000D01*
%TO.N,Net-(P1-PB0)*%
X164870000Y-86910000D02*
X160270000Y-86910000D01*
%TO.N,Net-(P1-PA1)*%
X164870000Y-67110000D02*
X160270000Y-67110000D01*
%TO.N,Net-(P1-COLD)*%
X164870000Y-138390000D02*
X160270000Y-138390000D01*
%TO.N,Net-(P1-PB3)*%
X164870000Y-98790000D02*
X160270000Y-98790000D01*
%TO.N,Net-(P1-COLE)*%
X164870000Y-130470000D02*
X160270000Y-130470000D01*
%TO.N,Net-(P1-PB2)*%
X164870000Y-94830000D02*
X160270000Y-94830000D01*
%TO.N,Net-(P1-PA3)*%
X164870000Y-59190000D02*
X160270000Y-59190000D01*
%TO.N,Net-(P1-PA7)*%
X164870000Y-82950000D02*
X160270000Y-82950000D01*
%TO.N,Net-(P1-PB5)*%
X164870000Y-114630000D02*
X160270000Y-114630000D01*
%TO.N,Net-(P1-ROW0)*%
X164870000Y-118590000D02*
X160270000Y-118590000D01*
%TO.N,Net-(P1-PA4)*%
X164870000Y-71070000D02*
X160270000Y-71070000D01*
%TO.N,Net-(J1-Pin_1)*%
X164870000Y-110670000D02*
X160270000Y-110670000D01*
%TO.N,Net-(P1-COLB)*%
X164870000Y-126510000D02*
X160270000Y-126510000D01*
%TO.N,Net-(P1-COLA)*%
X164870000Y-134430000D02*
X160270000Y-134430000D01*
%TO.N,Net-(P1-PA6)*%
X164870000Y-78990000D02*
X160270000Y-78990000D01*
%TO.N,Net-(P1-PA2)*%
X164870000Y-63150000D02*
X160270000Y-63150000D01*
%TO.N,Net-(P1-PA0)*%
X164870000Y-106710000D02*
X160270000Y-106710000D01*
%TO.N,Net-(P1-COLF)*%
X164870000Y-122550000D02*
X160270000Y-122550000D01*
%TO.N,Net-(P1-PB1)*%
X164870000Y-90870000D02*
X160270000Y-90870000D01*
%TO.N,Net-(P1-PA5)*%
X164870000Y-75030000D02*
X160270000Y-75030000D01*
%TO.N,Net-(P1-PB4)*%
X164870000Y-102750000D02*
X160270000Y-102750000D01*
%TO.N,Net-(P1-PA6)*%
X159015447Y-80244553D02*
X160270000Y-78990000D01*
X159015447Y-80244553D02*
G75*
G02*
X158661893Y-80390995I-353547J353553D01*
G01*
%TO.N,Net-(P1-PA2)*%
X157857447Y-65562553D02*
X160270000Y-63150000D01*
X157503893Y-65709000D02*
G75*
G03*
X157857450Y-65562556I7J500000D01*
G01*
D20*
%TO.N,Net-(P1-+5V)*%
X135955000Y-58735000D02*
X137333554Y-57356446D01*
D19*
X134326447Y-90969074D02*
X138187373Y-94830000D01*
D20*
X141436447Y-57063553D02*
X143270000Y-55230000D01*
D19*
X138187373Y-94830000D02*
X138190000Y-94830000D01*
D20*
X137687107Y-57210000D02*
X141082893Y-57210000D01*
D19*
X135955000Y-58735000D02*
X134326446Y-60363554D01*
X134180000Y-60717107D02*
X134180000Y-90615520D01*
D18*
X138190000Y-94830000D02*
X132416446Y-100603554D01*
D20*
X141082893Y-57210000D02*
G75*
G03*
X141436450Y-57063556I7J500000D01*
G01*
D19*
X134326446Y-60363554D02*
G75*
G03*
X134180005Y-60717107I353554J-353546D01*
G01*
D20*
X137687107Y-57210000D02*
G75*
G03*
X137333551Y-57356443I-7J-500000D01*
G01*
D19*
X134180000Y-90615520D02*
G75*
G03*
X134326457Y-90969064I500000J20D01*
G01*
D18*
%TO.N,Net-(P1-PA5)*%
X159015447Y-76284553D02*
X160270000Y-75030000D01*
X158661893Y-76431000D02*
G75*
G03*
X159015450Y-76284556I7J500000D01*
G01*
%TO.N,Net-(P1-AUD_H)*%
X141640000Y-100660000D02*
X141640000Y-94527107D01*
X141493553Y-94173553D02*
X138190000Y-90870000D01*
X141640000Y-94527107D02*
G75*
G03*
X141493556Y-94173550I-500000J7D01*
G01*
%TO.N,Net-(P1-PA1)*%
X159015447Y-68364553D02*
X160270000Y-67110000D01*
X158661893Y-68511000D02*
G75*
G03*
X159015450Y-68364556I7J500000D01*
G01*
%TO.N,Net-(P1-PA3)*%
X159015447Y-60444553D02*
X160270000Y-59190000D01*
X159015447Y-60444553D02*
G75*
G02*
X158661893Y-60590995I-353547J353553D01*
G01*
%TO.N,Net-(P1-PA7)*%
X159015447Y-84204553D02*
X160270000Y-82950000D01*
X158661893Y-84351000D02*
G75*
G03*
X159015450Y-84204556I7J500000D01*
G01*
%TO.N,Net-(P1-PA4)*%
X159015447Y-72324553D02*
X160270000Y-71070000D01*
X158661893Y-72471000D02*
G75*
G03*
X159015450Y-72324556I7J500000D01*
G01*
%TD*%
M02*
