M48
; DRILL file {KiCad 9.0.3} date 2025-08-13T21:30:07+0200
; FORMAT={-:-/ absolute / inch / decimal}
; #@! TF.CreationDate,2025-08-13T21:30:07+02:00
; #@! TF.GenerationSoftware,Kicad,Pcbnew,9.0.3
; #@! TF.FileFunction,MixedPlating,1,2
FMAT,2
INCH
; #@! TA.AperFunction,Plated,PTH,ViaDrill
T1C0.0118
; #@! TA.AperFunction,Plated,PTH,ComponentDrill
T2C0.0315
; #@! TA.AperFunction,Plated,PTH,ComponentDrill
T3C0.0394
; #@! TA.AperFunction,Plated,PTH,ComponentDrill
T4C0.0512
; #@! TA.AperFunction,NonPlated,NPTH,ComponentDrill
T5C0.1252
; #@! TA.AperFunction,NonPlated,NPTH,ComponentDrill
T6C0.1693
%
G90
G05
T1
X4.6043Y-2.3303
X4.6043Y-2.4862
X4.6043Y-2.6421
X4.6043Y-2.798
X4.6043Y-2.9539
X4.6043Y-3.1098
X4.6043Y-3.2657
X4.6043Y-3.4217
X4.6043Y-3.5776
X4.6043Y-3.7335
X4.6043Y-3.8894
X4.6043Y-4.0453
X4.6043Y-4.2012
X4.6043Y-4.3571
X4.6043Y-4.513
X4.6043Y-4.6689
X4.6043Y-4.8248
X4.6043Y-4.9807
X4.6043Y-5.1366
X4.6043Y-5.2925
X4.6043Y-5.4484
X5.5764Y-3.963
X6.3098Y-2.3303
X6.3098Y-2.4862
X6.3098Y-2.6421
X6.3098Y-2.798
X6.3098Y-2.9539
X6.3098Y-3.1098
X6.3098Y-3.2657
X6.3098Y-3.4217
X6.3098Y-3.5776
X6.3098Y-3.7335
X6.3098Y-3.8894
X6.3098Y-4.0453
X6.3098Y-4.2012
X6.3098Y-4.3571
X6.3098Y-4.513
X6.3098Y-4.6689
X6.3098Y-4.8248
X6.3098Y-4.9807
X6.3098Y-5.1366
X6.3098Y-5.2925
X6.3098Y-5.4484
T2
X5.2075Y-5.152
X5.2075Y-5.452
T3
X5.8913Y-5.5906
X5.9413Y-5.876
X5.9913Y-5.5906
T4
X5.4406Y-2.1744
X5.4406Y-2.3303
X5.4406Y-2.4862
X5.4406Y-2.6421
X5.4406Y-2.798
X5.4406Y-2.9539
X5.4406Y-3.1098
X5.4406Y-3.2657
X5.4406Y-3.4217
X5.4406Y-3.5776
X5.4406Y-3.7335
X5.4406Y-3.8894
X5.4406Y-4.0453
X5.4406Y-4.2012
X5.4406Y-4.3571
X5.4406Y-4.513
X5.4406Y-4.6689
X5.4406Y-4.8248
X5.4406Y-4.9807
X5.4406Y-5.1366
X5.4406Y-5.2925
X5.4406Y-5.4484
X5.6406Y-2.1744
X5.6406Y-2.3303
X5.6406Y-2.4862
X5.6406Y-2.6421
X5.6406Y-2.798
X5.6406Y-2.9539
X5.6406Y-3.1098
X5.6406Y-3.2657
X5.6406Y-3.4217
X5.6406Y-3.5776
X5.6406Y-3.7335
X5.6406Y-3.8894
X5.6406Y-4.0453
X5.6406Y-4.2012
X5.6406Y-4.3571
X5.6406Y-4.513
X5.6406Y-4.6689
X5.6406Y-4.8248
X5.6406Y-4.9807
X5.6406Y-5.1366
X5.6406Y-5.2925
X5.6406Y-5.4484
T5
X5.5406Y-1.7974
X5.5406Y-5.8254
T6
X4.7669Y-1.8835
X4.7669Y-5.7394
X6.3142Y-1.8835
X6.3142Y-5.7394
M30
