%TF.GenerationSoftware,KiCad,Pcbnew,9.0.3*%
%TF.CreationDate,2025-08-13T21:30:13+02:00*%
%TF.ProjectId,app-mtu-adapter,6170702d-6d74-4752-9d61-646170746572,rev?*%
%TF.SameCoordinates,Original*%
%TF.FileFunction,Legend,Top*%
%TF.FilePolarity,Positive*%
%FSLAX46Y46*%
G04 Gerber Fmt 4.6, Leading zero omitted, Abs format (unit mm)*
G04 Created by KiCad (PCBNEW 9.0.3) date 2025-08-13 21:30:13*
%MOMM*%
%LPD*%
G01*
G04 APERTURE LIST*
G04 Aperture macros list*
%AMFreePoly0*
4,1,22,-1.270000,3.180000,1.270000,3.180000,1.270000,-1.910000,1.254364,-2.108672,1.198732,-2.329454,1.104571,-2.536755,0.974909,-2.723912,0.813912,-2.884909,0.626755,-3.014571,0.419454,-3.108732,0.198672,-3.164364,0.000000,-3.180000,-0.198672,-3.164364,-0.419454,-3.108732,-0.626755,-3.014571,-0.813912,-2.884909,-0.974909,-2.723912,-1.104571,-2.536755,-1.198732,-2.329454,-1.254364,-2.108672,
-1.270000,-1.910000,-1.270000,3.180000,-1.270000,3.180000,$1*%
G04 Aperture macros list end*
%ADD10C,0.150000*%
%ADD11C,0.400000*%
%ADD12C,0.120000*%
%ADD13C,3.000000*%
%ADD14C,1.700000*%
%ADD15R,1.700000X1.700000*%
%ADD16C,4.300000*%
%ADD17C,1.600000*%
%ADD18C,3.180000*%
%ADD19O,2.000000X2.000000*%
%ADD20FreePoly0,270.000000*%
G04 APERTURE END LIST*
D10*
X148248095Y-144466009D02*
X148581428Y-144466009D01*
X148724285Y-144989819D02*
X148248095Y-144989819D01*
X148248095Y-144989819D02*
X148248095Y-143989819D01*
X148248095Y-143989819D02*
X148724285Y-143989819D01*
X149152857Y-144323152D02*
X149152857Y-144989819D01*
X149152857Y-144418390D02*
X149200476Y-144370771D01*
X149200476Y-144370771D02*
X149295714Y-144323152D01*
X149295714Y-144323152D02*
X149438571Y-144323152D01*
X149438571Y-144323152D02*
X149533809Y-144370771D01*
X149533809Y-144370771D02*
X149581428Y-144466009D01*
X149581428Y-144466009D02*
X149581428Y-144989819D01*
X150486190Y-144989819D02*
X150486190Y-144466009D01*
X150486190Y-144466009D02*
X150438571Y-144370771D01*
X150438571Y-144370771D02*
X150343333Y-144323152D01*
X150343333Y-144323152D02*
X150152857Y-144323152D01*
X150152857Y-144323152D02*
X150057619Y-144370771D01*
X150486190Y-144942200D02*
X150390952Y-144989819D01*
X150390952Y-144989819D02*
X150152857Y-144989819D01*
X150152857Y-144989819D02*
X150057619Y-144942200D01*
X150057619Y-144942200D02*
X150010000Y-144846961D01*
X150010000Y-144846961D02*
X150010000Y-144751723D01*
X150010000Y-144751723D02*
X150057619Y-144656485D01*
X150057619Y-144656485D02*
X150152857Y-144608866D01*
X150152857Y-144608866D02*
X150390952Y-144608866D01*
X150390952Y-144608866D02*
X150486190Y-144561247D01*
X150962381Y-144989819D02*
X150962381Y-143989819D01*
X150962381Y-144370771D02*
X151057619Y-144323152D01*
X151057619Y-144323152D02*
X151248095Y-144323152D01*
X151248095Y-144323152D02*
X151343333Y-144370771D01*
X151343333Y-144370771D02*
X151390952Y-144418390D01*
X151390952Y-144418390D02*
X151438571Y-144513628D01*
X151438571Y-144513628D02*
X151438571Y-144799342D01*
X151438571Y-144799342D02*
X151390952Y-144894580D01*
X151390952Y-144894580D02*
X151343333Y-144942200D01*
X151343333Y-144942200D02*
X151248095Y-144989819D01*
X151248095Y-144989819D02*
X151057619Y-144989819D01*
X151057619Y-144989819D02*
X150962381Y-144942200D01*
X152010000Y-144989819D02*
X151914762Y-144942200D01*
X151914762Y-144942200D02*
X151867143Y-144846961D01*
X151867143Y-144846961D02*
X151867143Y-143989819D01*
X152771905Y-144942200D02*
X152676667Y-144989819D01*
X152676667Y-144989819D02*
X152486191Y-144989819D01*
X152486191Y-144989819D02*
X152390953Y-144942200D01*
X152390953Y-144942200D02*
X152343334Y-144846961D01*
X152343334Y-144846961D02*
X152343334Y-144466009D01*
X152343334Y-144466009D02*
X152390953Y-144370771D01*
X152390953Y-144370771D02*
X152486191Y-144323152D01*
X152486191Y-144323152D02*
X152676667Y-144323152D01*
X152676667Y-144323152D02*
X152771905Y-144370771D01*
X152771905Y-144370771D02*
X152819524Y-144466009D01*
X152819524Y-144466009D02*
X152819524Y-144561247D01*
X152819524Y-144561247D02*
X152343334Y-144656485D01*
X149432381Y-152232200D02*
X149575238Y-152279819D01*
X149575238Y-152279819D02*
X149813333Y-152279819D01*
X149813333Y-152279819D02*
X149908571Y-152232200D01*
X149908571Y-152232200D02*
X149956190Y-152184580D01*
X149956190Y-152184580D02*
X150003809Y-152089342D01*
X150003809Y-152089342D02*
X150003809Y-151994104D01*
X150003809Y-151994104D02*
X149956190Y-151898866D01*
X149956190Y-151898866D02*
X149908571Y-151851247D01*
X149908571Y-151851247D02*
X149813333Y-151803628D01*
X149813333Y-151803628D02*
X149622857Y-151756009D01*
X149622857Y-151756009D02*
X149527619Y-151708390D01*
X149527619Y-151708390D02*
X149480000Y-151660771D01*
X149480000Y-151660771D02*
X149432381Y-151565533D01*
X149432381Y-151565533D02*
X149432381Y-151470295D01*
X149432381Y-151470295D02*
X149480000Y-151375057D01*
X149480000Y-151375057D02*
X149527619Y-151327438D01*
X149527619Y-151327438D02*
X149622857Y-151279819D01*
X149622857Y-151279819D02*
X149860952Y-151279819D01*
X149860952Y-151279819D02*
X150003809Y-151327438D01*
X150337143Y-151613152D02*
X150575238Y-152279819D01*
X150813333Y-151613152D02*
X150575238Y-152279819D01*
X150575238Y-152279819D02*
X150480000Y-152517914D01*
X150480000Y-152517914D02*
X150432381Y-152565533D01*
X150432381Y-152565533D02*
X150337143Y-152613152D01*
X151194286Y-151613152D02*
X151194286Y-152279819D01*
X151194286Y-151708390D02*
X151241905Y-151660771D01*
X151241905Y-151660771D02*
X151337143Y-151613152D01*
X151337143Y-151613152D02*
X151480000Y-151613152D01*
X151480000Y-151613152D02*
X151575238Y-151660771D01*
X151575238Y-151660771D02*
X151622857Y-151756009D01*
X151622857Y-151756009D02*
X151622857Y-152279819D01*
X152527619Y-152232200D02*
X152432381Y-152279819D01*
X152432381Y-152279819D02*
X152241905Y-152279819D01*
X152241905Y-152279819D02*
X152146667Y-152232200D01*
X152146667Y-152232200D02*
X152099048Y-152184580D01*
X152099048Y-152184580D02*
X152051429Y-152089342D01*
X152051429Y-152089342D02*
X152051429Y-151803628D01*
X152051429Y-151803628D02*
X152099048Y-151708390D01*
X152099048Y-151708390D02*
X152146667Y-151660771D01*
X152146667Y-151660771D02*
X152241905Y-151613152D01*
X152241905Y-151613152D02*
X152432381Y-151613152D01*
X152432381Y-151613152D02*
X152527619Y-151660771D01*
X148310000Y-139147200D02*
X148452857Y-139194819D01*
X148452857Y-139194819D02*
X148690952Y-139194819D01*
X148690952Y-139194819D02*
X148786190Y-139147200D01*
X148786190Y-139147200D02*
X148833809Y-139099580D01*
X148833809Y-139099580D02*
X148881428Y-139004342D01*
X148881428Y-139004342D02*
X148881428Y-138909104D01*
X148881428Y-138909104D02*
X148833809Y-138813866D01*
X148833809Y-138813866D02*
X148786190Y-138766247D01*
X148786190Y-138766247D02*
X148690952Y-138718628D01*
X148690952Y-138718628D02*
X148500476Y-138671009D01*
X148500476Y-138671009D02*
X148405238Y-138623390D01*
X148405238Y-138623390D02*
X148357619Y-138575771D01*
X148357619Y-138575771D02*
X148310000Y-138480533D01*
X148310000Y-138480533D02*
X148310000Y-138385295D01*
X148310000Y-138385295D02*
X148357619Y-138290057D01*
X148357619Y-138290057D02*
X148405238Y-138242438D01*
X148405238Y-138242438D02*
X148500476Y-138194819D01*
X148500476Y-138194819D02*
X148738571Y-138194819D01*
X148738571Y-138194819D02*
X148881428Y-138242438D01*
X149881428Y-139099580D02*
X149833809Y-139147200D01*
X149833809Y-139147200D02*
X149690952Y-139194819D01*
X149690952Y-139194819D02*
X149595714Y-139194819D01*
X149595714Y-139194819D02*
X149452857Y-139147200D01*
X149452857Y-139147200D02*
X149357619Y-139051961D01*
X149357619Y-139051961D02*
X149310000Y-138956723D01*
X149310000Y-138956723D02*
X149262381Y-138766247D01*
X149262381Y-138766247D02*
X149262381Y-138623390D01*
X149262381Y-138623390D02*
X149310000Y-138432914D01*
X149310000Y-138432914D02*
X149357619Y-138337676D01*
X149357619Y-138337676D02*
X149452857Y-138242438D01*
X149452857Y-138242438D02*
X149595714Y-138194819D01*
X149595714Y-138194819D02*
X149690952Y-138194819D01*
X149690952Y-138194819D02*
X149833809Y-138242438D01*
X149833809Y-138242438D02*
X149881428Y-138290057D01*
X150500476Y-138194819D02*
X150690952Y-138194819D01*
X150690952Y-138194819D02*
X150786190Y-138242438D01*
X150786190Y-138242438D02*
X150881428Y-138337676D01*
X150881428Y-138337676D02*
X150929047Y-138528152D01*
X150929047Y-138528152D02*
X150929047Y-138861485D01*
X150929047Y-138861485D02*
X150881428Y-139051961D01*
X150881428Y-139051961D02*
X150786190Y-139147200D01*
X150786190Y-139147200D02*
X150690952Y-139194819D01*
X150690952Y-139194819D02*
X150500476Y-139194819D01*
X150500476Y-139194819D02*
X150405238Y-139147200D01*
X150405238Y-139147200D02*
X150310000Y-139051961D01*
X150310000Y-139051961D02*
X150262381Y-138861485D01*
X150262381Y-138861485D02*
X150262381Y-138528152D01*
X150262381Y-138528152D02*
X150310000Y-138337676D01*
X150310000Y-138337676D02*
X150405238Y-138242438D01*
X150405238Y-138242438D02*
X150500476Y-138194819D01*
X151357619Y-139194819D02*
X151357619Y-138194819D01*
X151357619Y-138194819D02*
X151738571Y-138194819D01*
X151738571Y-138194819D02*
X151833809Y-138242438D01*
X151833809Y-138242438D02*
X151881428Y-138290057D01*
X151881428Y-138290057D02*
X151929047Y-138385295D01*
X151929047Y-138385295D02*
X151929047Y-138528152D01*
X151929047Y-138528152D02*
X151881428Y-138623390D01*
X151881428Y-138623390D02*
X151833809Y-138671009D01*
X151833809Y-138671009D02*
X151738571Y-138718628D01*
X151738571Y-138718628D02*
X151357619Y-138718628D01*
X152357619Y-138671009D02*
X152690952Y-138671009D01*
X152833809Y-139194819D02*
X152357619Y-139194819D01*
X152357619Y-139194819D02*
X152357619Y-138194819D01*
X152357619Y-138194819D02*
X152833809Y-138194819D01*
X153262381Y-139099580D02*
X153310000Y-139147200D01*
X153310000Y-139147200D02*
X153262381Y-139194819D01*
X153262381Y-139194819D02*
X153214762Y-139147200D01*
X153214762Y-139147200D02*
X153262381Y-139099580D01*
X153262381Y-139099580D02*
X153262381Y-139194819D01*
X153262381Y-138575771D02*
X153310000Y-138623390D01*
X153310000Y-138623390D02*
X153262381Y-138671009D01*
X153262381Y-138671009D02*
X153214762Y-138623390D01*
X153214762Y-138623390D02*
X153262381Y-138575771D01*
X153262381Y-138575771D02*
X153262381Y-138671009D01*
D11*
X132754438Y-124755239D02*
X134754438Y-124279049D01*
X134754438Y-124279049D02*
X133325866Y-123898096D01*
X133325866Y-123898096D02*
X134754438Y-123517144D01*
X134754438Y-123517144D02*
X132754438Y-123040954D01*
X134183009Y-122374287D02*
X134183009Y-121421906D01*
X134754438Y-122564763D02*
X132754438Y-121898097D01*
X132754438Y-121898097D02*
X134754438Y-121231430D01*
X134754438Y-119421906D02*
X133802057Y-120088573D01*
X134754438Y-120564763D02*
X132754438Y-120564763D01*
X132754438Y-120564763D02*
X132754438Y-119802858D01*
X132754438Y-119802858D02*
X132849676Y-119612382D01*
X132849676Y-119612382D02*
X132944914Y-119517144D01*
X132944914Y-119517144D02*
X133135390Y-119421906D01*
X133135390Y-119421906D02*
X133421104Y-119421906D01*
X133421104Y-119421906D02*
X133611580Y-119517144D01*
X133611580Y-119517144D02*
X133706819Y-119612382D01*
X133706819Y-119612382D02*
X133802057Y-119802858D01*
X133802057Y-119802858D02*
X133802057Y-120564763D01*
X134754438Y-118564763D02*
X132754438Y-118564763D01*
X132754438Y-118564763D02*
X134754438Y-117421906D01*
X134754438Y-117421906D02*
X132754438Y-117421906D01*
X134754438Y-116469525D02*
X132754438Y-116469525D01*
X134754438Y-115517144D02*
X132754438Y-115517144D01*
X132754438Y-115517144D02*
X134754438Y-114374287D01*
X134754438Y-114374287D02*
X132754438Y-114374287D01*
X132849676Y-112374287D02*
X132754438Y-112564763D01*
X132754438Y-112564763D02*
X132754438Y-112850477D01*
X132754438Y-112850477D02*
X132849676Y-113136192D01*
X132849676Y-113136192D02*
X133040152Y-113326668D01*
X133040152Y-113326668D02*
X133230628Y-113421906D01*
X133230628Y-113421906D02*
X133611580Y-113517144D01*
X133611580Y-113517144D02*
X133897295Y-113517144D01*
X133897295Y-113517144D02*
X134278247Y-113421906D01*
X134278247Y-113421906D02*
X134468723Y-113326668D01*
X134468723Y-113326668D02*
X134659200Y-113136192D01*
X134659200Y-113136192D02*
X134754438Y-112850477D01*
X134754438Y-112850477D02*
X134754438Y-112660001D01*
X134754438Y-112660001D02*
X134659200Y-112374287D01*
X134659200Y-112374287D02*
X134563961Y-112279049D01*
X134563961Y-112279049D02*
X133897295Y-112279049D01*
X133897295Y-112279049D02*
X133897295Y-112660001D01*
X134563961Y-111421906D02*
X134659200Y-111326668D01*
X134659200Y-111326668D02*
X134754438Y-111421906D01*
X134754438Y-111421906D02*
X134659200Y-111517144D01*
X134659200Y-111517144D02*
X134563961Y-111421906D01*
X134563961Y-111421906D02*
X134754438Y-111421906D01*
X133516342Y-111421906D02*
X133611580Y-111326668D01*
X133611580Y-111326668D02*
X133706819Y-111421906D01*
X133706819Y-111421906D02*
X133611580Y-111517144D01*
X133611580Y-111517144D02*
X133516342Y-111421906D01*
X133516342Y-111421906D02*
X133706819Y-111421906D01*
X133706819Y-108279048D02*
X133706819Y-108945715D01*
X134754438Y-108945715D02*
X132754438Y-108945715D01*
X132754438Y-108945715D02*
X132754438Y-107993334D01*
X134754438Y-106945715D02*
X134659200Y-107136191D01*
X134659200Y-107136191D02*
X134563961Y-107231429D01*
X134563961Y-107231429D02*
X134373485Y-107326667D01*
X134373485Y-107326667D02*
X133802057Y-107326667D01*
X133802057Y-107326667D02*
X133611580Y-107231429D01*
X133611580Y-107231429D02*
X133516342Y-107136191D01*
X133516342Y-107136191D02*
X133421104Y-106945715D01*
X133421104Y-106945715D02*
X133421104Y-106660000D01*
X133421104Y-106660000D02*
X133516342Y-106469524D01*
X133516342Y-106469524D02*
X133611580Y-106374286D01*
X133611580Y-106374286D02*
X133802057Y-106279048D01*
X133802057Y-106279048D02*
X134373485Y-106279048D01*
X134373485Y-106279048D02*
X134563961Y-106374286D01*
X134563961Y-106374286D02*
X134659200Y-106469524D01*
X134659200Y-106469524D02*
X134754438Y-106660000D01*
X134754438Y-106660000D02*
X134754438Y-106945715D01*
X134754438Y-105421905D02*
X133421104Y-105421905D01*
X133802057Y-105421905D02*
X133611580Y-105326667D01*
X133611580Y-105326667D02*
X133516342Y-105231429D01*
X133516342Y-105231429D02*
X133421104Y-105040953D01*
X133421104Y-105040953D02*
X133421104Y-104850476D01*
X134754438Y-102660000D02*
X132754438Y-102660000D01*
X132754438Y-102660000D02*
X134183009Y-101993333D01*
X134183009Y-101993333D02*
X132754438Y-101326667D01*
X132754438Y-101326667D02*
X134754438Y-101326667D01*
X132754438Y-100660000D02*
X132754438Y-99517143D01*
X134754438Y-100088572D02*
X132754438Y-100088572D01*
X132754438Y-98850476D02*
X134373485Y-98850476D01*
X134373485Y-98850476D02*
X134563961Y-98755238D01*
X134563961Y-98755238D02*
X134659200Y-98660000D01*
X134659200Y-98660000D02*
X134754438Y-98469524D01*
X134754438Y-98469524D02*
X134754438Y-98088571D01*
X134754438Y-98088571D02*
X134659200Y-97898095D01*
X134659200Y-97898095D02*
X134563961Y-97802857D01*
X134563961Y-97802857D02*
X134373485Y-97707619D01*
X134373485Y-97707619D02*
X132754438Y-97707619D01*
X134754438Y-95231428D02*
X132754438Y-95231428D01*
X134754438Y-94088571D02*
X133611580Y-94945714D01*
X132754438Y-94088571D02*
X133897295Y-95231428D01*
X133992533Y-93231428D02*
X133992533Y-91707619D01*
X134754438Y-89707619D02*
X134754438Y-90850476D01*
X134754438Y-90279048D02*
X132754438Y-90279048D01*
X132754438Y-90279048D02*
X133040152Y-90469524D01*
X133040152Y-90469524D02*
X133230628Y-90660000D01*
X133230628Y-90660000D02*
X133325866Y-90850476D01*
X132754438Y-88469524D02*
X132754438Y-88279047D01*
X132754438Y-88279047D02*
X132849676Y-88088571D01*
X132849676Y-88088571D02*
X132944914Y-87993333D01*
X132944914Y-87993333D02*
X133135390Y-87898095D01*
X133135390Y-87898095D02*
X133516342Y-87802857D01*
X133516342Y-87802857D02*
X133992533Y-87802857D01*
X133992533Y-87802857D02*
X134373485Y-87898095D01*
X134373485Y-87898095D02*
X134563961Y-87993333D01*
X134563961Y-87993333D02*
X134659200Y-88088571D01*
X134659200Y-88088571D02*
X134754438Y-88279047D01*
X134754438Y-88279047D02*
X134754438Y-88469524D01*
X134754438Y-88469524D02*
X134659200Y-88660000D01*
X134659200Y-88660000D02*
X134563961Y-88755238D01*
X134563961Y-88755238D02*
X134373485Y-88850476D01*
X134373485Y-88850476D02*
X133992533Y-88945714D01*
X133992533Y-88945714D02*
X133516342Y-88945714D01*
X133516342Y-88945714D02*
X133135390Y-88850476D01*
X133135390Y-88850476D02*
X132944914Y-88755238D01*
X132944914Y-88755238D02*
X132849676Y-88660000D01*
X132849676Y-88660000D02*
X132754438Y-88469524D01*
X132754438Y-86564762D02*
X132754438Y-86374285D01*
X132754438Y-86374285D02*
X132849676Y-86183809D01*
X132849676Y-86183809D02*
X132944914Y-86088571D01*
X132944914Y-86088571D02*
X133135390Y-85993333D01*
X133135390Y-85993333D02*
X133516342Y-85898095D01*
X133516342Y-85898095D02*
X133992533Y-85898095D01*
X133992533Y-85898095D02*
X134373485Y-85993333D01*
X134373485Y-85993333D02*
X134563961Y-86088571D01*
X134563961Y-86088571D02*
X134659200Y-86183809D01*
X134659200Y-86183809D02*
X134754438Y-86374285D01*
X134754438Y-86374285D02*
X134754438Y-86564762D01*
X134754438Y-86564762D02*
X134659200Y-86755238D01*
X134659200Y-86755238D02*
X134563961Y-86850476D01*
X134563961Y-86850476D02*
X134373485Y-86945714D01*
X134373485Y-86945714D02*
X133992533Y-87040952D01*
X133992533Y-87040952D02*
X133516342Y-87040952D01*
X133516342Y-87040952D02*
X133135390Y-86945714D01*
X133135390Y-86945714D02*
X132944914Y-86850476D01*
X132944914Y-86850476D02*
X132849676Y-86755238D01*
X132849676Y-86755238D02*
X132754438Y-86564762D01*
X132944914Y-85136190D02*
X132849676Y-85040952D01*
X132849676Y-85040952D02*
X132754438Y-84850476D01*
X132754438Y-84850476D02*
X132754438Y-84374285D01*
X132754438Y-84374285D02*
X132849676Y-84183809D01*
X132849676Y-84183809D02*
X132944914Y-84088571D01*
X132944914Y-84088571D02*
X133135390Y-83993333D01*
X133135390Y-83993333D02*
X133325866Y-83993333D01*
X133325866Y-83993333D02*
X133611580Y-84088571D01*
X133611580Y-84088571D02*
X134754438Y-85231428D01*
X134754438Y-85231428D02*
X134754438Y-83993333D01*
X134754438Y-81612380D02*
X132754438Y-81612380D01*
X132754438Y-81612380D02*
X132754438Y-81136190D01*
X132754438Y-81136190D02*
X132849676Y-80850475D01*
X132849676Y-80850475D02*
X133040152Y-80659999D01*
X133040152Y-80659999D02*
X133230628Y-80564761D01*
X133230628Y-80564761D02*
X133611580Y-80469523D01*
X133611580Y-80469523D02*
X133897295Y-80469523D01*
X133897295Y-80469523D02*
X134278247Y-80564761D01*
X134278247Y-80564761D02*
X134468723Y-80659999D01*
X134468723Y-80659999D02*
X134659200Y-80850475D01*
X134659200Y-80850475D02*
X134754438Y-81136190D01*
X134754438Y-81136190D02*
X134754438Y-81612380D01*
X134183009Y-79707618D02*
X134183009Y-78755237D01*
X134754438Y-79898094D02*
X132754438Y-79231428D01*
X132754438Y-79231428D02*
X134754438Y-78564761D01*
X134563961Y-76755237D02*
X134659200Y-76850475D01*
X134659200Y-76850475D02*
X134754438Y-77136189D01*
X134754438Y-77136189D02*
X134754438Y-77326665D01*
X134754438Y-77326665D02*
X134659200Y-77612380D01*
X134659200Y-77612380D02*
X134468723Y-77802856D01*
X134468723Y-77802856D02*
X134278247Y-77898094D01*
X134278247Y-77898094D02*
X133897295Y-77993332D01*
X133897295Y-77993332D02*
X133611580Y-77993332D01*
X133611580Y-77993332D02*
X133230628Y-77898094D01*
X133230628Y-77898094D02*
X133040152Y-77802856D01*
X133040152Y-77802856D02*
X132849676Y-77612380D01*
X132849676Y-77612380D02*
X132754438Y-77326665D01*
X132754438Y-77326665D02*
X132754438Y-77136189D01*
X132754438Y-77136189D02*
X132849676Y-76850475D01*
X132849676Y-76850475D02*
X132944914Y-76755237D01*
X134659200Y-73517141D02*
X134754438Y-73707617D01*
X134754438Y-73707617D02*
X134754438Y-74088570D01*
X134754438Y-74088570D02*
X134659200Y-74279046D01*
X134659200Y-74279046D02*
X134563961Y-74374284D01*
X134563961Y-74374284D02*
X134373485Y-74469522D01*
X134373485Y-74469522D02*
X133802057Y-74469522D01*
X133802057Y-74469522D02*
X133611580Y-74374284D01*
X133611580Y-74374284D02*
X133516342Y-74279046D01*
X133516342Y-74279046D02*
X133421104Y-74088570D01*
X133421104Y-74088570D02*
X133421104Y-73707617D01*
X133421104Y-73707617D02*
X133516342Y-73517141D01*
X134754438Y-71802855D02*
X133706819Y-71802855D01*
X133706819Y-71802855D02*
X133516342Y-71898093D01*
X133516342Y-71898093D02*
X133421104Y-72088569D01*
X133421104Y-72088569D02*
X133421104Y-72469522D01*
X133421104Y-72469522D02*
X133516342Y-72659998D01*
X134659200Y-71802855D02*
X134754438Y-71993331D01*
X134754438Y-71993331D02*
X134754438Y-72469522D01*
X134754438Y-72469522D02*
X134659200Y-72659998D01*
X134659200Y-72659998D02*
X134468723Y-72755236D01*
X134468723Y-72755236D02*
X134278247Y-72755236D01*
X134278247Y-72755236D02*
X134087771Y-72659998D01*
X134087771Y-72659998D02*
X133992533Y-72469522D01*
X133992533Y-72469522D02*
X133992533Y-71993331D01*
X133992533Y-71993331D02*
X133897295Y-71802855D01*
X134754438Y-70850474D02*
X133421104Y-70850474D01*
X133802057Y-70850474D02*
X133611580Y-70755236D01*
X133611580Y-70755236D02*
X133516342Y-70659998D01*
X133516342Y-70659998D02*
X133421104Y-70469522D01*
X133421104Y-70469522D02*
X133421104Y-70279045D01*
X134754438Y-68755236D02*
X132754438Y-68755236D01*
X134659200Y-68755236D02*
X134754438Y-68945712D01*
X134754438Y-68945712D02*
X134754438Y-69326665D01*
X134754438Y-69326665D02*
X134659200Y-69517141D01*
X134659200Y-69517141D02*
X134563961Y-69612379D01*
X134563961Y-69612379D02*
X134373485Y-69707617D01*
X134373485Y-69707617D02*
X133802057Y-69707617D01*
X133802057Y-69707617D02*
X133611580Y-69612379D01*
X133611580Y-69612379D02*
X133516342Y-69517141D01*
X133516342Y-69517141D02*
X133421104Y-69326665D01*
X133421104Y-69326665D02*
X133421104Y-68945712D01*
X133421104Y-68945712D02*
X133516342Y-68755236D01*
X132754438Y-65898093D02*
X132754438Y-65517140D01*
X132754438Y-65517140D02*
X132849676Y-65326664D01*
X132849676Y-65326664D02*
X133040152Y-65136188D01*
X133040152Y-65136188D02*
X133421104Y-65040950D01*
X133421104Y-65040950D02*
X134087771Y-65040950D01*
X134087771Y-65040950D02*
X134468723Y-65136188D01*
X134468723Y-65136188D02*
X134659200Y-65326664D01*
X134659200Y-65326664D02*
X134754438Y-65517140D01*
X134754438Y-65517140D02*
X134754438Y-65898093D01*
X134754438Y-65898093D02*
X134659200Y-66088569D01*
X134659200Y-66088569D02*
X134468723Y-66279045D01*
X134468723Y-66279045D02*
X134087771Y-66374283D01*
X134087771Y-66374283D02*
X133421104Y-66374283D01*
X133421104Y-66374283D02*
X133040152Y-66279045D01*
X133040152Y-66279045D02*
X132849676Y-66088569D01*
X132849676Y-66088569D02*
X132754438Y-65898093D01*
X134754438Y-64183807D02*
X132754438Y-64183807D01*
X132754438Y-64183807D02*
X134754438Y-63040950D01*
X134754438Y-63040950D02*
X132754438Y-63040950D01*
X134754438Y-61136188D02*
X134754438Y-62088569D01*
X134754438Y-62088569D02*
X132754438Y-62088569D01*
X133802057Y-60088569D02*
X134754438Y-60088569D01*
X132754438Y-60755235D02*
X133802057Y-60088569D01*
X133802057Y-60088569D02*
X132754438Y-59421902D01*
X134563961Y-58755235D02*
X134659200Y-58659997D01*
X134659200Y-58659997D02*
X134754438Y-58755235D01*
X134754438Y-58755235D02*
X134659200Y-58850473D01*
X134659200Y-58850473D02*
X134563961Y-58755235D01*
X134563961Y-58755235D02*
X134754438Y-58755235D01*
X133992533Y-58755235D02*
X132849676Y-58850473D01*
X132849676Y-58850473D02*
X132754438Y-58755235D01*
X132754438Y-58755235D02*
X132849676Y-58659997D01*
X132849676Y-58659997D02*
X133992533Y-58755235D01*
X133992533Y-58755235D02*
X132754438Y-58755235D01*
D10*
X135950588Y-55099819D02*
X135379160Y-55099819D01*
X135664874Y-55099819D02*
X135664874Y-54099819D01*
X135664874Y-54099819D02*
X135569636Y-54242676D01*
X135569636Y-54242676D02*
X135474398Y-54337914D01*
X135474398Y-54337914D02*
X135379160Y-54385533D01*
D12*
%TO.C,J1*%
X153560000Y-140620000D02*
X153560000Y-142000000D01*
X152180000Y-140620000D02*
X153560000Y-140620000D01*
X150910000Y-143380000D02*
X148260000Y-143380000D01*
X150910000Y-140620000D02*
X150910000Y-143380000D01*
X150910000Y-140620000D02*
X148260000Y-140620000D01*
X148260000Y-140620000D02*
X148260000Y-143380000D01*
%TO.C,R1*%
X133640000Y-137940000D02*
X133310000Y-137940000D01*
X133640000Y-131400000D02*
X133640000Y-137940000D01*
X133310000Y-131400000D02*
X133640000Y-131400000D01*
X131230000Y-131400000D02*
X130900000Y-131400000D01*
X130900000Y-137940000D02*
X131230000Y-137940000D01*
X130900000Y-131400000D02*
X130900000Y-137940000D01*
D10*
%TO.C,P2*%
X136600000Y-42480000D02*
X144860000Y-42480000D01*
X136600000Y-151140000D02*
X136600000Y-42480000D01*
X144860000Y-42480000D02*
X144860000Y-151140000D01*
X144860000Y-151140000D02*
X136600000Y-151140000D01*
%TD*%
%LPC*%
%TO.C,P1*%
D12*
X105690000Y-51190000D02*
X115750000Y-51190000D01*
X115750000Y-142430000D01*
X105690000Y-142430000D01*
X105690000Y-51190000D01*
G36*
X105690000Y-51190000D02*
G01*
X115750000Y-51190000D01*
X115750000Y-142430000D01*
X105690000Y-142430000D01*
X105690000Y-51190000D01*
G37*
%TD*%
D13*
%TO.C,TP1*%
X150910000Y-149250000D03*
%TD*%
D14*
%TO.C,J1*%
X149640000Y-142000000D03*
D15*
X152180000Y-142000000D03*
%TD*%
D16*
%TO.C,M1*%
X160380000Y-145780000D03*
%TD*%
%TO.C,M1*%
X160380000Y-47840000D03*
%TD*%
D17*
%TO.C,R1*%
X132270000Y-138480000D03*
X132270000Y-130860000D03*
%TD*%
D16*
%TO.C,M1*%
X121080000Y-47840000D03*
%TD*%
%TO.C,M2*%
X121080000Y-145780000D03*
%TD*%
D18*
%TO.C,P2*%
X140730000Y-45655000D03*
X140730000Y-147965000D03*
D19*
X138190000Y-55230000D03*
X138190000Y-59190000D03*
X138190000Y-63150000D03*
X138190000Y-67110000D03*
X138190000Y-71070000D03*
X138190000Y-75030000D03*
X138190000Y-78990000D03*
X138190000Y-82950000D03*
X138190000Y-86910000D03*
X138190000Y-90870000D03*
X138190000Y-94830000D03*
X138190000Y-98790000D03*
X138190000Y-102750000D03*
X138190000Y-106710000D03*
X138190000Y-110670000D03*
X138190000Y-114630000D03*
X138190000Y-118590000D03*
X138190000Y-122550000D03*
X138190000Y-126510000D03*
X138190000Y-130470000D03*
X138190000Y-134430000D03*
X138190000Y-138390000D03*
X143270000Y-55230000D03*
X143270000Y-59190000D03*
X143270000Y-63150000D03*
X143270000Y-67110000D03*
X143270000Y-71070000D03*
X143270000Y-75030000D03*
X143270000Y-78990000D03*
X143270000Y-82950000D03*
X143270000Y-86910000D03*
X143270000Y-90870000D03*
X143270000Y-94830000D03*
X143270000Y-98790000D03*
X143270000Y-102750000D03*
X143270000Y-106710000D03*
X143270000Y-110670000D03*
X143270000Y-114630000D03*
X143270000Y-118590000D03*
X143270000Y-122550000D03*
X143270000Y-126510000D03*
X143270000Y-130470000D03*
X143270000Y-134430000D03*
X143270000Y-138390000D03*
%TD*%
D20*
%TO.C,P3*%
X164870000Y-55230000D03*
X164870000Y-59190000D03*
X164870000Y-63150000D03*
X164870000Y-67110000D03*
X164870000Y-71070000D03*
X164870000Y-75030000D03*
X164870000Y-78990000D03*
X164870000Y-82950000D03*
X164870000Y-86910000D03*
X164870000Y-90870000D03*
X164870000Y-94830000D03*
X164870000Y-98790000D03*
X164870000Y-102750000D03*
X164870000Y-106710000D03*
X164870000Y-110670000D03*
X164870000Y-114630000D03*
X164870000Y-118590000D03*
X164870000Y-122550000D03*
X164870000Y-126510000D03*
X164870000Y-130470000D03*
X164870000Y-134430000D03*
X164870000Y-138390000D03*
%TD*%
%LPD*%
M02*
