%TF.GenerationSoftware,KiCad,Pcbnew,9.0.3*%
%TF.CreationDate,2025-08-13T21:30:13+02:00*%
%TF.ProjectId,app-mtu-adapter,6170702d-6d74-4752-9d61-646170746572,rev?*%
%TF.SameCoordinates,Original*%
%TF.FileFunction,Legend,Bot*%
%TF.FilePolarity,Positive*%
%FSLAX46Y46*%
G04 Gerber Fmt 4.6, Leading zero omitted, Abs format (unit mm)*
G04 Created by KiCad (PCBNEW 9.0.3) date 2025-08-13 21:30:13*
%MOMM*%
%LPD*%
G01*
G04 APERTURE LIST*
G04 Aperture macros list*
%AMFreePoly0*
4,1,22,-1.300000,4.445000,1.300000,4.445000,1.300000,-3.145000,1.280250,-3.370743,1.221600,-3.589626,1.125833,-3.795000,0.995858,-3.980624,0.835624,-4.140858,0.650000,-4.270833,0.444626,-4.366600,0.225743,-4.425250,0.000000,-4.445000,-0.225743,-4.425250,-0.444626,-4.366600,-0.650000,-4.270833,-0.835624,-4.140858,-0.995858,-3.980624,-1.125833,-3.795000,-1.221600,-3.589626,-1.280250,-3.370743,
-1.300000,-3.145000,-1.300000,4.445000,-1.300000,4.445000,$1*%
%AMFreePoly1*
4,1,22,-1.270000,3.180000,1.270000,3.180000,1.270000,-1.910000,1.254364,-2.108672,1.198732,-2.329454,1.104571,-2.536755,0.974909,-2.723912,0.813912,-2.884909,0.626755,-3.014571,0.419454,-3.108732,0.198672,-3.164364,0.000000,-3.180000,-0.198672,-3.164364,-0.419454,-3.108732,-0.626755,-3.014571,-0.813912,-2.884909,-0.974909,-2.723912,-1.104571,-2.536755,-1.198732,-2.329454,-1.254364,-2.108672,
-1.270000,-1.910000,-1.270000,3.180000,-1.270000,3.180000,$1*%
G04 Aperture macros list end*
%ADD10C,0.200000*%
%ADD11C,0.150000*%
%ADD12C,0.010000*%
%ADD13C,0.120000*%
%ADD14C,3.000000*%
%ADD15C,1.700000*%
%ADD16R,1.700000X1.700000*%
%ADD17C,4.300000*%
%ADD18FreePoly0,90.000000*%
%ADD19C,1.600000*%
%ADD20C,3.180000*%
%ADD21O,2.000000X2.000000*%
%ADD22FreePoly1,270.000000*%
G04 APERTURE END LIST*
D10*
X122589542Y-100724284D02*
X122532400Y-100781427D01*
X122532400Y-100781427D02*
X122475257Y-100952855D01*
X122475257Y-100952855D02*
X122475257Y-101067141D01*
X122475257Y-101067141D02*
X122532400Y-101238570D01*
X122532400Y-101238570D02*
X122646685Y-101352855D01*
X122646685Y-101352855D02*
X122760971Y-101409998D01*
X122760971Y-101409998D02*
X122989542Y-101467141D01*
X122989542Y-101467141D02*
X123160971Y-101467141D01*
X123160971Y-101467141D02*
X123389542Y-101409998D01*
X123389542Y-101409998D02*
X123503828Y-101352855D01*
X123503828Y-101352855D02*
X123618114Y-101238570D01*
X123618114Y-101238570D02*
X123675257Y-101067141D01*
X123675257Y-101067141D02*
X123675257Y-100952855D01*
X123675257Y-100952855D02*
X123618114Y-100781427D01*
X123618114Y-100781427D02*
X123560971Y-100724284D01*
X122589542Y-99524284D02*
X122532400Y-99581427D01*
X122532400Y-99581427D02*
X122475257Y-99752855D01*
X122475257Y-99752855D02*
X122475257Y-99867141D01*
X122475257Y-99867141D02*
X122532400Y-100038570D01*
X122532400Y-100038570D02*
X122646685Y-100152855D01*
X122646685Y-100152855D02*
X122760971Y-100209998D01*
X122760971Y-100209998D02*
X122989542Y-100267141D01*
X122989542Y-100267141D02*
X123160971Y-100267141D01*
X123160971Y-100267141D02*
X123389542Y-100209998D01*
X123389542Y-100209998D02*
X123503828Y-100152855D01*
X123503828Y-100152855D02*
X123618114Y-100038570D01*
X123618114Y-100038570D02*
X123675257Y-99867141D01*
X123675257Y-99867141D02*
X123675257Y-99752855D01*
X123675257Y-99752855D02*
X123618114Y-99581427D01*
X123618114Y-99581427D02*
X123560971Y-99524284D01*
X122932400Y-99009998D02*
X122932400Y-98095713D01*
X123103828Y-97124284D02*
X123046685Y-96952856D01*
X123046685Y-96952856D02*
X122989542Y-96895713D01*
X122989542Y-96895713D02*
X122875257Y-96838570D01*
X122875257Y-96838570D02*
X122703828Y-96838570D01*
X122703828Y-96838570D02*
X122589542Y-96895713D01*
X122589542Y-96895713D02*
X122532400Y-96952856D01*
X122532400Y-96952856D02*
X122475257Y-97067141D01*
X122475257Y-97067141D02*
X122475257Y-97524284D01*
X122475257Y-97524284D02*
X123675257Y-97524284D01*
X123675257Y-97524284D02*
X123675257Y-97124284D01*
X123675257Y-97124284D02*
X123618114Y-97009999D01*
X123618114Y-97009999D02*
X123560971Y-96952856D01*
X123560971Y-96952856D02*
X123446685Y-96895713D01*
X123446685Y-96895713D02*
X123332400Y-96895713D01*
X123332400Y-96895713D02*
X123218114Y-96952856D01*
X123218114Y-96952856D02*
X123160971Y-97009999D01*
X123160971Y-97009999D02*
X123103828Y-97124284D01*
X123103828Y-97124284D02*
X123103828Y-97524284D01*
X123046685Y-96095713D02*
X122475257Y-96095713D01*
X123675257Y-96495713D02*
X123046685Y-96095713D01*
X123046685Y-96095713D02*
X123675257Y-95695713D01*
X122932400Y-95295713D02*
X122932400Y-94381428D01*
X122532400Y-93867142D02*
X122475257Y-93695714D01*
X122475257Y-93695714D02*
X122475257Y-93409999D01*
X122475257Y-93409999D02*
X122532400Y-93295714D01*
X122532400Y-93295714D02*
X122589542Y-93238571D01*
X122589542Y-93238571D02*
X122703828Y-93181428D01*
X122703828Y-93181428D02*
X122818114Y-93181428D01*
X122818114Y-93181428D02*
X122932400Y-93238571D01*
X122932400Y-93238571D02*
X122989542Y-93295714D01*
X122989542Y-93295714D02*
X123046685Y-93409999D01*
X123046685Y-93409999D02*
X123103828Y-93638571D01*
X123103828Y-93638571D02*
X123160971Y-93752856D01*
X123160971Y-93752856D02*
X123218114Y-93809999D01*
X123218114Y-93809999D02*
X123332400Y-93867142D01*
X123332400Y-93867142D02*
X123446685Y-93867142D01*
X123446685Y-93867142D02*
X123560971Y-93809999D01*
X123560971Y-93809999D02*
X123618114Y-93752856D01*
X123618114Y-93752856D02*
X123675257Y-93638571D01*
X123675257Y-93638571D02*
X123675257Y-93352856D01*
X123675257Y-93352856D02*
X123618114Y-93181428D01*
X122818114Y-92724285D02*
X122818114Y-92152857D01*
X122475257Y-92838571D02*
X123675257Y-92438571D01*
X123675257Y-92438571D02*
X122475257Y-92038571D01*
D11*
X120457704Y-107210001D02*
X121257704Y-107210001D01*
X120457704Y-106867144D02*
X120876752Y-106867144D01*
X120876752Y-106867144D02*
X120952942Y-106905239D01*
X120952942Y-106905239D02*
X120991038Y-106981430D01*
X120991038Y-106981430D02*
X120991038Y-107095716D01*
X120991038Y-107095716D02*
X120952942Y-107171906D01*
X120952942Y-107171906D02*
X120914847Y-107210001D01*
X120991038Y-106600477D02*
X120991038Y-106295715D01*
X121257704Y-106486191D02*
X120571990Y-106486191D01*
X120571990Y-106486191D02*
X120495800Y-106448096D01*
X120495800Y-106448096D02*
X120457704Y-106371906D01*
X120457704Y-106371906D02*
X120457704Y-106295715D01*
X120991038Y-106143334D02*
X120991038Y-105838572D01*
X121257704Y-106029048D02*
X120571990Y-106029048D01*
X120571990Y-106029048D02*
X120495800Y-105990953D01*
X120495800Y-105990953D02*
X120457704Y-105914763D01*
X120457704Y-105914763D02*
X120457704Y-105838572D01*
X120991038Y-105571905D02*
X120191038Y-105571905D01*
X120952942Y-105571905D02*
X120991038Y-105495715D01*
X120991038Y-105495715D02*
X120991038Y-105343334D01*
X120991038Y-105343334D02*
X120952942Y-105267143D01*
X120952942Y-105267143D02*
X120914847Y-105229048D01*
X120914847Y-105229048D02*
X120838657Y-105190953D01*
X120838657Y-105190953D02*
X120610085Y-105190953D01*
X120610085Y-105190953D02*
X120533895Y-105229048D01*
X120533895Y-105229048D02*
X120495800Y-105267143D01*
X120495800Y-105267143D02*
X120457704Y-105343334D01*
X120457704Y-105343334D02*
X120457704Y-105495715D01*
X120457704Y-105495715D02*
X120495800Y-105571905D01*
X120495800Y-104886191D02*
X120457704Y-104810000D01*
X120457704Y-104810000D02*
X120457704Y-104657619D01*
X120457704Y-104657619D02*
X120495800Y-104581429D01*
X120495800Y-104581429D02*
X120571990Y-104543333D01*
X120571990Y-104543333D02*
X120610085Y-104543333D01*
X120610085Y-104543333D02*
X120686276Y-104581429D01*
X120686276Y-104581429D02*
X120724371Y-104657619D01*
X120724371Y-104657619D02*
X120724371Y-104771905D01*
X120724371Y-104771905D02*
X120762466Y-104848095D01*
X120762466Y-104848095D02*
X120838657Y-104886191D01*
X120838657Y-104886191D02*
X120876752Y-104886191D01*
X120876752Y-104886191D02*
X120952942Y-104848095D01*
X120952942Y-104848095D02*
X120991038Y-104771905D01*
X120991038Y-104771905D02*
X120991038Y-104657619D01*
X120991038Y-104657619D02*
X120952942Y-104581429D01*
X120533895Y-104200476D02*
X120495800Y-104162381D01*
X120495800Y-104162381D02*
X120457704Y-104200476D01*
X120457704Y-104200476D02*
X120495800Y-104238572D01*
X120495800Y-104238572D02*
X120533895Y-104200476D01*
X120533895Y-104200476D02*
X120457704Y-104200476D01*
X120952942Y-104200476D02*
X120914847Y-104162381D01*
X120914847Y-104162381D02*
X120876752Y-104200476D01*
X120876752Y-104200476D02*
X120914847Y-104238572D01*
X120914847Y-104238572D02*
X120952942Y-104200476D01*
X120952942Y-104200476D02*
X120876752Y-104200476D01*
X121295800Y-103248096D02*
X120267228Y-103933810D01*
X121295800Y-102410001D02*
X120267228Y-103095715D01*
X120991038Y-101800477D02*
X120343419Y-101800477D01*
X120343419Y-101800477D02*
X120267228Y-101838572D01*
X120267228Y-101838572D02*
X120229133Y-101876668D01*
X120229133Y-101876668D02*
X120191038Y-101952858D01*
X120191038Y-101952858D02*
X120191038Y-102067144D01*
X120191038Y-102067144D02*
X120229133Y-102143334D01*
X120495800Y-101800477D02*
X120457704Y-101876668D01*
X120457704Y-101876668D02*
X120457704Y-102029049D01*
X120457704Y-102029049D02*
X120495800Y-102105239D01*
X120495800Y-102105239D02*
X120533895Y-102143334D01*
X120533895Y-102143334D02*
X120610085Y-102181430D01*
X120610085Y-102181430D02*
X120838657Y-102181430D01*
X120838657Y-102181430D02*
X120914847Y-102143334D01*
X120914847Y-102143334D02*
X120952942Y-102105239D01*
X120952942Y-102105239D02*
X120991038Y-102029049D01*
X120991038Y-102029049D02*
X120991038Y-101876668D01*
X120991038Y-101876668D02*
X120952942Y-101800477D01*
X120457704Y-101419524D02*
X120991038Y-101419524D01*
X121257704Y-101419524D02*
X121219609Y-101457620D01*
X121219609Y-101457620D02*
X121181514Y-101419524D01*
X121181514Y-101419524D02*
X121219609Y-101381429D01*
X121219609Y-101381429D02*
X121257704Y-101419524D01*
X121257704Y-101419524D02*
X121181514Y-101419524D01*
X120991038Y-101152858D02*
X120991038Y-100848096D01*
X121257704Y-101038572D02*
X120571990Y-101038572D01*
X120571990Y-101038572D02*
X120495800Y-101000477D01*
X120495800Y-101000477D02*
X120457704Y-100924287D01*
X120457704Y-100924287D02*
X120457704Y-100848096D01*
X120991038Y-100238572D02*
X120343419Y-100238572D01*
X120343419Y-100238572D02*
X120267228Y-100276667D01*
X120267228Y-100276667D02*
X120229133Y-100314763D01*
X120229133Y-100314763D02*
X120191038Y-100390953D01*
X120191038Y-100390953D02*
X120191038Y-100505239D01*
X120191038Y-100505239D02*
X120229133Y-100581429D01*
X120495800Y-100238572D02*
X120457704Y-100314763D01*
X120457704Y-100314763D02*
X120457704Y-100467144D01*
X120457704Y-100467144D02*
X120495800Y-100543334D01*
X120495800Y-100543334D02*
X120533895Y-100581429D01*
X120533895Y-100581429D02*
X120610085Y-100619525D01*
X120610085Y-100619525D02*
X120838657Y-100619525D01*
X120838657Y-100619525D02*
X120914847Y-100581429D01*
X120914847Y-100581429D02*
X120952942Y-100543334D01*
X120952942Y-100543334D02*
X120991038Y-100467144D01*
X120991038Y-100467144D02*
X120991038Y-100314763D01*
X120991038Y-100314763D02*
X120952942Y-100238572D01*
X120991038Y-99514762D02*
X120457704Y-99514762D01*
X120991038Y-99857619D02*
X120571990Y-99857619D01*
X120571990Y-99857619D02*
X120495800Y-99819524D01*
X120495800Y-99819524D02*
X120457704Y-99743334D01*
X120457704Y-99743334D02*
X120457704Y-99629048D01*
X120457704Y-99629048D02*
X120495800Y-99552857D01*
X120495800Y-99552857D02*
X120533895Y-99514762D01*
X120457704Y-99133809D02*
X121257704Y-99133809D01*
X120952942Y-99133809D02*
X120991038Y-99057619D01*
X120991038Y-99057619D02*
X120991038Y-98905238D01*
X120991038Y-98905238D02*
X120952942Y-98829047D01*
X120952942Y-98829047D02*
X120914847Y-98790952D01*
X120914847Y-98790952D02*
X120838657Y-98752857D01*
X120838657Y-98752857D02*
X120610085Y-98752857D01*
X120610085Y-98752857D02*
X120533895Y-98790952D01*
X120533895Y-98790952D02*
X120495800Y-98829047D01*
X120495800Y-98829047D02*
X120457704Y-98905238D01*
X120457704Y-98905238D02*
X120457704Y-99057619D01*
X120457704Y-99057619D02*
X120495800Y-99133809D01*
X120533895Y-98409999D02*
X120495800Y-98371904D01*
X120495800Y-98371904D02*
X120457704Y-98409999D01*
X120457704Y-98409999D02*
X120495800Y-98448095D01*
X120495800Y-98448095D02*
X120533895Y-98409999D01*
X120533895Y-98409999D02*
X120457704Y-98409999D01*
X120495800Y-97686190D02*
X120457704Y-97762381D01*
X120457704Y-97762381D02*
X120457704Y-97914762D01*
X120457704Y-97914762D02*
X120495800Y-97990952D01*
X120495800Y-97990952D02*
X120533895Y-98029047D01*
X120533895Y-98029047D02*
X120610085Y-98067143D01*
X120610085Y-98067143D02*
X120838657Y-98067143D01*
X120838657Y-98067143D02*
X120914847Y-98029047D01*
X120914847Y-98029047D02*
X120952942Y-97990952D01*
X120952942Y-97990952D02*
X120991038Y-97914762D01*
X120991038Y-97914762D02*
X120991038Y-97762381D01*
X120991038Y-97762381D02*
X120952942Y-97686190D01*
X120457704Y-97229048D02*
X120495800Y-97305238D01*
X120495800Y-97305238D02*
X120533895Y-97343333D01*
X120533895Y-97343333D02*
X120610085Y-97381429D01*
X120610085Y-97381429D02*
X120838657Y-97381429D01*
X120838657Y-97381429D02*
X120914847Y-97343333D01*
X120914847Y-97343333D02*
X120952942Y-97305238D01*
X120952942Y-97305238D02*
X120991038Y-97229048D01*
X120991038Y-97229048D02*
X120991038Y-97114762D01*
X120991038Y-97114762D02*
X120952942Y-97038571D01*
X120952942Y-97038571D02*
X120914847Y-97000476D01*
X120914847Y-97000476D02*
X120838657Y-96962381D01*
X120838657Y-96962381D02*
X120610085Y-96962381D01*
X120610085Y-96962381D02*
X120533895Y-97000476D01*
X120533895Y-97000476D02*
X120495800Y-97038571D01*
X120495800Y-97038571D02*
X120457704Y-97114762D01*
X120457704Y-97114762D02*
X120457704Y-97229048D01*
X120457704Y-96619523D02*
X120991038Y-96619523D01*
X120914847Y-96619523D02*
X120952942Y-96581428D01*
X120952942Y-96581428D02*
X120991038Y-96505238D01*
X120991038Y-96505238D02*
X120991038Y-96390952D01*
X120991038Y-96390952D02*
X120952942Y-96314761D01*
X120952942Y-96314761D02*
X120876752Y-96276666D01*
X120876752Y-96276666D02*
X120457704Y-96276666D01*
X120876752Y-96276666D02*
X120952942Y-96238571D01*
X120952942Y-96238571D02*
X120991038Y-96162380D01*
X120991038Y-96162380D02*
X120991038Y-96048095D01*
X120991038Y-96048095D02*
X120952942Y-95971904D01*
X120952942Y-95971904D02*
X120876752Y-95933809D01*
X120876752Y-95933809D02*
X120457704Y-95933809D01*
X121295800Y-94981428D02*
X120267228Y-95667142D01*
X120495800Y-94409999D02*
X120457704Y-94486190D01*
X120457704Y-94486190D02*
X120457704Y-94638571D01*
X120457704Y-94638571D02*
X120495800Y-94714761D01*
X120495800Y-94714761D02*
X120571990Y-94752857D01*
X120571990Y-94752857D02*
X120876752Y-94752857D01*
X120876752Y-94752857D02*
X120952942Y-94714761D01*
X120952942Y-94714761D02*
X120991038Y-94638571D01*
X120991038Y-94638571D02*
X120991038Y-94486190D01*
X120991038Y-94486190D02*
X120952942Y-94409999D01*
X120952942Y-94409999D02*
X120876752Y-94371904D01*
X120876752Y-94371904D02*
X120800561Y-94371904D01*
X120800561Y-94371904D02*
X120724371Y-94752857D01*
X120457704Y-93686190D02*
X121257704Y-93686190D01*
X120495800Y-93686190D02*
X120457704Y-93762381D01*
X120457704Y-93762381D02*
X120457704Y-93914762D01*
X120457704Y-93914762D02*
X120495800Y-93990952D01*
X120495800Y-93990952D02*
X120533895Y-94029047D01*
X120533895Y-94029047D02*
X120610085Y-94067143D01*
X120610085Y-94067143D02*
X120838657Y-94067143D01*
X120838657Y-94067143D02*
X120914847Y-94029047D01*
X120914847Y-94029047D02*
X120952942Y-93990952D01*
X120952942Y-93990952D02*
X120991038Y-93914762D01*
X120991038Y-93914762D02*
X120991038Y-93762381D01*
X120991038Y-93762381D02*
X120952942Y-93686190D01*
X120991038Y-92962380D02*
X120457704Y-92962380D01*
X120991038Y-93305237D02*
X120571990Y-93305237D01*
X120571990Y-93305237D02*
X120495800Y-93267142D01*
X120495800Y-93267142D02*
X120457704Y-93190952D01*
X120457704Y-93190952D02*
X120457704Y-93076666D01*
X120457704Y-93076666D02*
X120495800Y-93000475D01*
X120495800Y-93000475D02*
X120533895Y-92962380D01*
X120457704Y-92238570D02*
X120876752Y-92238570D01*
X120876752Y-92238570D02*
X120952942Y-92276665D01*
X120952942Y-92276665D02*
X120991038Y-92352856D01*
X120991038Y-92352856D02*
X120991038Y-92505237D01*
X120991038Y-92505237D02*
X120952942Y-92581427D01*
X120495800Y-92238570D02*
X120457704Y-92314761D01*
X120457704Y-92314761D02*
X120457704Y-92505237D01*
X120457704Y-92505237D02*
X120495800Y-92581427D01*
X120495800Y-92581427D02*
X120571990Y-92619523D01*
X120571990Y-92619523D02*
X120648180Y-92619523D01*
X120648180Y-92619523D02*
X120724371Y-92581427D01*
X120724371Y-92581427D02*
X120762466Y-92505237D01*
X120762466Y-92505237D02*
X120762466Y-92314761D01*
X120762466Y-92314761D02*
X120800561Y-92238570D01*
X120457704Y-91857617D02*
X120991038Y-91857617D01*
X120838657Y-91857617D02*
X120914847Y-91819522D01*
X120914847Y-91819522D02*
X120952942Y-91781427D01*
X120952942Y-91781427D02*
X120991038Y-91705236D01*
X120991038Y-91705236D02*
X120991038Y-91629046D01*
X120457704Y-91019522D02*
X121257704Y-91019522D01*
X120495800Y-91019522D02*
X120457704Y-91095713D01*
X120457704Y-91095713D02*
X120457704Y-91248094D01*
X120457704Y-91248094D02*
X120495800Y-91324284D01*
X120495800Y-91324284D02*
X120533895Y-91362379D01*
X120533895Y-91362379D02*
X120610085Y-91400475D01*
X120610085Y-91400475D02*
X120838657Y-91400475D01*
X120838657Y-91400475D02*
X120914847Y-91362379D01*
X120914847Y-91362379D02*
X120952942Y-91324284D01*
X120952942Y-91324284D02*
X120991038Y-91248094D01*
X120991038Y-91248094D02*
X120991038Y-91095713D01*
X120991038Y-91095713D02*
X120952942Y-91019522D01*
X120457704Y-90524284D02*
X120495800Y-90600474D01*
X120495800Y-90600474D02*
X120533895Y-90638569D01*
X120533895Y-90638569D02*
X120610085Y-90676665D01*
X120610085Y-90676665D02*
X120838657Y-90676665D01*
X120838657Y-90676665D02*
X120914847Y-90638569D01*
X120914847Y-90638569D02*
X120952942Y-90600474D01*
X120952942Y-90600474D02*
X120991038Y-90524284D01*
X120991038Y-90524284D02*
X120991038Y-90409998D01*
X120991038Y-90409998D02*
X120952942Y-90333807D01*
X120952942Y-90333807D02*
X120914847Y-90295712D01*
X120914847Y-90295712D02*
X120838657Y-90257617D01*
X120838657Y-90257617D02*
X120610085Y-90257617D01*
X120610085Y-90257617D02*
X120533895Y-90295712D01*
X120533895Y-90295712D02*
X120495800Y-90333807D01*
X120495800Y-90333807D02*
X120457704Y-90409998D01*
X120457704Y-90409998D02*
X120457704Y-90524284D01*
X120495800Y-89571902D02*
X120457704Y-89648093D01*
X120457704Y-89648093D02*
X120457704Y-89800474D01*
X120457704Y-89800474D02*
X120495800Y-89876664D01*
X120495800Y-89876664D02*
X120533895Y-89914759D01*
X120533895Y-89914759D02*
X120610085Y-89952855D01*
X120610085Y-89952855D02*
X120838657Y-89952855D01*
X120838657Y-89952855D02*
X120914847Y-89914759D01*
X120914847Y-89914759D02*
X120952942Y-89876664D01*
X120952942Y-89876664D02*
X120991038Y-89800474D01*
X120991038Y-89800474D02*
X120991038Y-89648093D01*
X120991038Y-89648093D02*
X120952942Y-89571902D01*
X120457704Y-88886188D02*
X120876752Y-88886188D01*
X120876752Y-88886188D02*
X120952942Y-88924283D01*
X120952942Y-88924283D02*
X120991038Y-89000474D01*
X120991038Y-89000474D02*
X120991038Y-89152855D01*
X120991038Y-89152855D02*
X120952942Y-89229045D01*
X120495800Y-88886188D02*
X120457704Y-88962379D01*
X120457704Y-88962379D02*
X120457704Y-89152855D01*
X120457704Y-89152855D02*
X120495800Y-89229045D01*
X120495800Y-89229045D02*
X120571990Y-89267141D01*
X120571990Y-89267141D02*
X120648180Y-89267141D01*
X120648180Y-89267141D02*
X120724371Y-89229045D01*
X120724371Y-89229045D02*
X120762466Y-89152855D01*
X120762466Y-89152855D02*
X120762466Y-88962379D01*
X120762466Y-88962379D02*
X120800561Y-88886188D01*
X120495800Y-88543331D02*
X120457704Y-88467140D01*
X120457704Y-88467140D02*
X120457704Y-88314759D01*
X120457704Y-88314759D02*
X120495800Y-88238569D01*
X120495800Y-88238569D02*
X120571990Y-88200473D01*
X120571990Y-88200473D02*
X120610085Y-88200473D01*
X120610085Y-88200473D02*
X120686276Y-88238569D01*
X120686276Y-88238569D02*
X120724371Y-88314759D01*
X120724371Y-88314759D02*
X120724371Y-88429045D01*
X120724371Y-88429045D02*
X120762466Y-88505235D01*
X120762466Y-88505235D02*
X120838657Y-88543331D01*
X120838657Y-88543331D02*
X120876752Y-88543331D01*
X120876752Y-88543331D02*
X120952942Y-88505235D01*
X120952942Y-88505235D02*
X120991038Y-88429045D01*
X120991038Y-88429045D02*
X120991038Y-88314759D01*
X120991038Y-88314759D02*
X120952942Y-88238569D01*
X120457704Y-87857616D02*
X120991038Y-87857616D01*
X121257704Y-87857616D02*
X121219609Y-87895712D01*
X121219609Y-87895712D02*
X121181514Y-87857616D01*
X121181514Y-87857616D02*
X121219609Y-87819521D01*
X121219609Y-87819521D02*
X121257704Y-87857616D01*
X121257704Y-87857616D02*
X121181514Y-87857616D01*
X120991038Y-87476664D02*
X120457704Y-87476664D01*
X120914847Y-87476664D02*
X120952942Y-87438569D01*
X120952942Y-87438569D02*
X120991038Y-87362379D01*
X120991038Y-87362379D02*
X120991038Y-87248093D01*
X120991038Y-87248093D02*
X120952942Y-87171902D01*
X120952942Y-87171902D02*
X120876752Y-87133807D01*
X120876752Y-87133807D02*
X120457704Y-87133807D01*
X120457704Y-86638569D02*
X120495800Y-86714759D01*
X120495800Y-86714759D02*
X120533895Y-86752854D01*
X120533895Y-86752854D02*
X120610085Y-86790950D01*
X120610085Y-86790950D02*
X120838657Y-86790950D01*
X120838657Y-86790950D02*
X120914847Y-86752854D01*
X120914847Y-86752854D02*
X120952942Y-86714759D01*
X120952942Y-86714759D02*
X120991038Y-86638569D01*
X120991038Y-86638569D02*
X120991038Y-86524283D01*
X120991038Y-86524283D02*
X120952942Y-86448092D01*
X120952942Y-86448092D02*
X120914847Y-86409997D01*
X120914847Y-86409997D02*
X120838657Y-86371902D01*
X120838657Y-86371902D02*
X120610085Y-86371902D01*
X120610085Y-86371902D02*
X120533895Y-86409997D01*
X120533895Y-86409997D02*
X120495800Y-86448092D01*
X120495800Y-86448092D02*
X120457704Y-86524283D01*
X120457704Y-86524283D02*
X120457704Y-86638569D01*
D12*
%TO.C,REF\u002A\u002A*%
X125756913Y-93082952D02*
X125825033Y-93112431D01*
X125888866Y-93160098D01*
X125933012Y-93215839D01*
X125943218Y-93239193D01*
X125960282Y-93327619D01*
X125953524Y-93421501D01*
X125923560Y-93502167D01*
X125901046Y-93535714D01*
X125868788Y-93569687D01*
X125827754Y-93593919D01*
X125771892Y-93610001D01*
X125695149Y-93619521D01*
X125591475Y-93624068D01*
X125454816Y-93625231D01*
X125384195Y-93625003D01*
X125287692Y-93623860D01*
X125210677Y-93621919D01*
X125159681Y-93619365D01*
X125141231Y-93616381D01*
X125147333Y-93596962D01*
X125163905Y-93557766D01*
X125164442Y-93556589D01*
X125175097Y-93536235D01*
X125189718Y-93522546D01*
X125215327Y-93514199D01*
X125258946Y-93509874D01*
X125327597Y-93508248D01*
X125428302Y-93508000D01*
X125492187Y-93507500D01*
X125612249Y-93502164D01*
X125700191Y-93489945D01*
X125760625Y-93469552D01*
X125798164Y-93439695D01*
X125817419Y-93399082D01*
X125818761Y-93393448D01*
X125819809Y-93317378D01*
X125785729Y-93258052D01*
X125717402Y-93217077D01*
X125697649Y-93209770D01*
X125653934Y-93193114D01*
X125633845Y-93184679D01*
X125636613Y-93167356D01*
X125651635Y-93129525D01*
X125676444Y-93094240D01*
X125723330Y-93078154D01*
X125756913Y-93082952D01*
G36*
X125756913Y-93082952D02*
G01*
X125825033Y-93112431D01*
X125888866Y-93160098D01*
X125933012Y-93215839D01*
X125943218Y-93239193D01*
X125960282Y-93327619D01*
X125953524Y-93421501D01*
X125923560Y-93502167D01*
X125901046Y-93535714D01*
X125868788Y-93569687D01*
X125827754Y-93593919D01*
X125771892Y-93610001D01*
X125695149Y-93619521D01*
X125591475Y-93624068D01*
X125454816Y-93625231D01*
X125384195Y-93625003D01*
X125287692Y-93623860D01*
X125210677Y-93621919D01*
X125159681Y-93619365D01*
X125141231Y-93616381D01*
X125147333Y-93596962D01*
X125163905Y-93557766D01*
X125164442Y-93556589D01*
X125175097Y-93536235D01*
X125189718Y-93522546D01*
X125215327Y-93514199D01*
X125258946Y-93509874D01*
X125327597Y-93508248D01*
X125428302Y-93508000D01*
X125492187Y-93507500D01*
X125612249Y-93502164D01*
X125700191Y-93489945D01*
X125760625Y-93469552D01*
X125798164Y-93439695D01*
X125817419Y-93399082D01*
X125818761Y-93393448D01*
X125819809Y-93317378D01*
X125785729Y-93258052D01*
X125717402Y-93217077D01*
X125697649Y-93209770D01*
X125653934Y-93193114D01*
X125633845Y-93184679D01*
X125636613Y-93167356D01*
X125651635Y-93129525D01*
X125676444Y-93094240D01*
X125723330Y-93078154D01*
X125756913Y-93082952D01*
G37*
X125573081Y-98353883D02*
X125684569Y-98356847D01*
X125767579Y-98364351D01*
X125828801Y-98378190D01*
X125874925Y-98400155D01*
X125912642Y-98432039D01*
X125948642Y-98475633D01*
X125984911Y-98538336D01*
X126008588Y-98637117D01*
X125998316Y-98736372D01*
X125955431Y-98827629D01*
X125881271Y-98902416D01*
X125858056Y-98917917D01*
X125831744Y-98930774D01*
X125798580Y-98939893D01*
X125752119Y-98946102D01*
X125685918Y-98950233D01*
X125593532Y-98953116D01*
X125468515Y-98955579D01*
X125121722Y-98961697D01*
X125141262Y-98910303D01*
X125159213Y-98863246D01*
X125176489Y-98828015D01*
X125198758Y-98805017D01*
X125232835Y-98791655D01*
X125285537Y-98785328D01*
X125363677Y-98783437D01*
X125474072Y-98783385D01*
X125562065Y-98783117D01*
X125646498Y-98781521D01*
X125704166Y-98777712D01*
X125742012Y-98770820D01*
X125766976Y-98759975D01*
X125786000Y-98744308D01*
X125812847Y-98705792D01*
X125822966Y-98641091D01*
X125797394Y-98577081D01*
X125794120Y-98572856D01*
X125778993Y-98559689D01*
X125754732Y-98549975D01*
X125715350Y-98542903D01*
X125654859Y-98537656D01*
X125567271Y-98533421D01*
X125446598Y-98529385D01*
X125123485Y-98519615D01*
X125197935Y-98353539D01*
X125492938Y-98353539D01*
X125573081Y-98353883D01*
G36*
X125573081Y-98353883D02*
G01*
X125684569Y-98356847D01*
X125767579Y-98364351D01*
X125828801Y-98378190D01*
X125874925Y-98400155D01*
X125912642Y-98432039D01*
X125948642Y-98475633D01*
X125984911Y-98538336D01*
X126008588Y-98637117D01*
X125998316Y-98736372D01*
X125955431Y-98827629D01*
X125881271Y-98902416D01*
X125858056Y-98917917D01*
X125831744Y-98930774D01*
X125798580Y-98939893D01*
X125752119Y-98946102D01*
X125685918Y-98950233D01*
X125593532Y-98953116D01*
X125468515Y-98955579D01*
X125121722Y-98961697D01*
X125141262Y-98910303D01*
X125159213Y-98863246D01*
X125176489Y-98828015D01*
X125198758Y-98805017D01*
X125232835Y-98791655D01*
X125285537Y-98785328D01*
X125363677Y-98783437D01*
X125474072Y-98783385D01*
X125562065Y-98783117D01*
X125646498Y-98781521D01*
X125704166Y-98777712D01*
X125742012Y-98770820D01*
X125766976Y-98759975D01*
X125786000Y-98744308D01*
X125812847Y-98705792D01*
X125822966Y-98641091D01*
X125797394Y-98577081D01*
X125794120Y-98572856D01*
X125778993Y-98559689D01*
X125754732Y-98549975D01*
X125715350Y-98542903D01*
X125654859Y-98537656D01*
X125567271Y-98533421D01*
X125446598Y-98529385D01*
X125123485Y-98519615D01*
X125197935Y-98353539D01*
X125492938Y-98353539D01*
X125573081Y-98353883D01*
G37*
X125823872Y-95907856D02*
X125864650Y-95935978D01*
X125922579Y-96007883D01*
X125955330Y-96096638D01*
X125959788Y-96191542D01*
X125932833Y-96281892D01*
X125929419Y-96288060D01*
X125890308Y-96338447D01*
X125840025Y-96383498D01*
X125828661Y-96391355D01*
X125802140Y-96406376D01*
X125770664Y-96417107D01*
X125727409Y-96424486D01*
X125665551Y-96429452D01*
X125578267Y-96432942D01*
X125458731Y-96435893D01*
X125438522Y-96436311D01*
X125307501Y-96437654D01*
X125214704Y-96435761D01*
X125159493Y-96430605D01*
X125141231Y-96422158D01*
X125146699Y-96396594D01*
X125163267Y-96353166D01*
X125168112Y-96342940D01*
X125179080Y-96326967D01*
X125197110Y-96315954D01*
X125228604Y-96308750D01*
X125279964Y-96304208D01*
X125357590Y-96301180D01*
X125467885Y-96298516D01*
X125500125Y-96297785D01*
X125601950Y-96294965D01*
X125673212Y-96291304D01*
X125720668Y-96285694D01*
X125751075Y-96277029D01*
X125771190Y-96264202D01*
X125787771Y-96246105D01*
X125816839Y-96192525D01*
X125822436Y-96126612D01*
X125800193Y-96067635D01*
X125754141Y-96025203D01*
X125688308Y-96008923D01*
X125670413Y-96008470D01*
X125638018Y-95999578D01*
X125633075Y-95973325D01*
X125652367Y-95921919D01*
X125658554Y-95910013D01*
X125694942Y-95877835D01*
X125749046Y-95877198D01*
X125823872Y-95907856D01*
G36*
X125823872Y-95907856D02*
G01*
X125864650Y-95935978D01*
X125922579Y-96007883D01*
X125955330Y-96096638D01*
X125959788Y-96191542D01*
X125932833Y-96281892D01*
X125929419Y-96288060D01*
X125890308Y-96338447D01*
X125840025Y-96383498D01*
X125828661Y-96391355D01*
X125802140Y-96406376D01*
X125770664Y-96417107D01*
X125727409Y-96424486D01*
X125665551Y-96429452D01*
X125578267Y-96432942D01*
X125458731Y-96435893D01*
X125438522Y-96436311D01*
X125307501Y-96437654D01*
X125214704Y-96435761D01*
X125159493Y-96430605D01*
X125141231Y-96422158D01*
X125146699Y-96396594D01*
X125163267Y-96353166D01*
X125168112Y-96342940D01*
X125179080Y-96326967D01*
X125197110Y-96315954D01*
X125228604Y-96308750D01*
X125279964Y-96304208D01*
X125357590Y-96301180D01*
X125467885Y-96298516D01*
X125500125Y-96297785D01*
X125601950Y-96294965D01*
X125673212Y-96291304D01*
X125720668Y-96285694D01*
X125751075Y-96277029D01*
X125771190Y-96264202D01*
X125787771Y-96246105D01*
X125816839Y-96192525D01*
X125822436Y-96126612D01*
X125800193Y-96067635D01*
X125754141Y-96025203D01*
X125688308Y-96008923D01*
X125670413Y-96008470D01*
X125638018Y-95999578D01*
X125633075Y-95973325D01*
X125652367Y-95921919D01*
X125658554Y-95910013D01*
X125694942Y-95877835D01*
X125749046Y-95877198D01*
X125823872Y-95907856D01*
G37*
X125460642Y-97220338D02*
X125485258Y-97220384D01*
X125613581Y-97222970D01*
X125710616Y-97230913D01*
X125782943Y-97246155D01*
X125837145Y-97270636D01*
X125879802Y-97306298D01*
X125917495Y-97355082D01*
X125941090Y-97402661D01*
X125959328Y-97478732D01*
X125960364Y-97553556D01*
X125942622Y-97611077D01*
X125940171Y-97615402D01*
X125940434Y-97628738D01*
X125960961Y-97637851D01*
X126008020Y-97644428D01*
X126087880Y-97650154D01*
X126251764Y-97659923D01*
X126198194Y-97786923D01*
X125663545Y-97786923D01*
X125524906Y-97786660D01*
X125400195Y-97785958D01*
X125294443Y-97784883D01*
X125212678Y-97783500D01*
X125159931Y-97781874D01*
X125141231Y-97780070D01*
X125141294Y-97779364D01*
X125148088Y-97755387D01*
X125162680Y-97711685D01*
X125184130Y-97650154D01*
X125459383Y-97650154D01*
X125567534Y-97649763D01*
X125645974Y-97647946D01*
X125699353Y-97643767D01*
X125734744Y-97636286D01*
X125759221Y-97624567D01*
X125779856Y-97607671D01*
X125790830Y-97596152D01*
X125821225Y-97533864D01*
X125818534Y-97465211D01*
X125782594Y-97402298D01*
X125773675Y-97393139D01*
X125755156Y-97378471D01*
X125730674Y-97368433D01*
X125693607Y-97362151D01*
X125637333Y-97358748D01*
X125555229Y-97357349D01*
X125440671Y-97357077D01*
X125382570Y-97356947D01*
X125287007Y-97356099D01*
X125210474Y-97354594D01*
X125159655Y-97352585D01*
X125141231Y-97350223D01*
X125141294Y-97349518D01*
X125148088Y-97325541D01*
X125162680Y-97281839D01*
X125184130Y-97220308D01*
X125460642Y-97220338D01*
G36*
X125460642Y-97220338D02*
G01*
X125485258Y-97220384D01*
X125613581Y-97222970D01*
X125710616Y-97230913D01*
X125782943Y-97246155D01*
X125837145Y-97270636D01*
X125879802Y-97306298D01*
X125917495Y-97355082D01*
X125941090Y-97402661D01*
X125959328Y-97478732D01*
X125960364Y-97553556D01*
X125942622Y-97611077D01*
X125940171Y-97615402D01*
X125940434Y-97628738D01*
X125960961Y-97637851D01*
X126008020Y-97644428D01*
X126087880Y-97650154D01*
X126251764Y-97659923D01*
X126198194Y-97786923D01*
X125663545Y-97786923D01*
X125524906Y-97786660D01*
X125400195Y-97785958D01*
X125294443Y-97784883D01*
X125212678Y-97783500D01*
X125159931Y-97781874D01*
X125141231Y-97780070D01*
X125141294Y-97779364D01*
X125148088Y-97755387D01*
X125162680Y-97711685D01*
X125184130Y-97650154D01*
X125459383Y-97650154D01*
X125567534Y-97649763D01*
X125645974Y-97647946D01*
X125699353Y-97643767D01*
X125734744Y-97636286D01*
X125759221Y-97624567D01*
X125779856Y-97607671D01*
X125790830Y-97596152D01*
X125821225Y-97533864D01*
X125818534Y-97465211D01*
X125782594Y-97402298D01*
X125773675Y-97393139D01*
X125755156Y-97378471D01*
X125730674Y-97368433D01*
X125693607Y-97362151D01*
X125637333Y-97358748D01*
X125555229Y-97357349D01*
X125440671Y-97357077D01*
X125382570Y-97356947D01*
X125287007Y-97356099D01*
X125210474Y-97354594D01*
X125159655Y-97352585D01*
X125141231Y-97350223D01*
X125141294Y-97349518D01*
X125148088Y-97325541D01*
X125162680Y-97281839D01*
X125184130Y-97220308D01*
X125460642Y-97220338D01*
G37*
X125715143Y-94407251D02*
X125813808Y-94408753D01*
X125891932Y-94411089D01*
X125943338Y-94414071D01*
X125961846Y-94417509D01*
X125961796Y-94418230D01*
X125952587Y-94443203D01*
X125932293Y-94485399D01*
X125902739Y-94542549D01*
X125595254Y-94547928D01*
X125287769Y-94553308D01*
X125287769Y-94670539D01*
X125624808Y-94675885D01*
X125716426Y-94677579D01*
X125814351Y-94680005D01*
X125892094Y-94682634D01*
X125943358Y-94685246D01*
X125961846Y-94687623D01*
X125961781Y-94688306D01*
X125954980Y-94711996D01*
X125940396Y-94755546D01*
X125918946Y-94817077D01*
X125622896Y-94817376D01*
X125571468Y-94817676D01*
X125471534Y-94819754D01*
X125388075Y-94823470D01*
X125328623Y-94828430D01*
X125300713Y-94834240D01*
X125285786Y-94855024D01*
X125281175Y-94897440D01*
X125287769Y-94944077D01*
X125624808Y-94949423D01*
X125710454Y-94951336D01*
X125811828Y-94955303D01*
X125891345Y-94960491D01*
X125943264Y-94966499D01*
X125961846Y-94972927D01*
X125955966Y-94997998D01*
X125939171Y-95040850D01*
X125916497Y-95090615D01*
X125261467Y-95090615D01*
X125199637Y-95028785D01*
X125185772Y-95014662D01*
X125154954Y-94975536D01*
X125144972Y-94936078D01*
X125149567Y-94877362D01*
X125152538Y-94853456D01*
X125158824Y-94791801D01*
X125161328Y-94748692D01*
X125160945Y-94735905D01*
X125156800Y-94683446D01*
X125149567Y-94620022D01*
X125147082Y-94599730D01*
X125146105Y-94548610D01*
X125161538Y-94511207D01*
X125199637Y-94468599D01*
X125261467Y-94406769D01*
X125611657Y-94406769D01*
X125715143Y-94407251D01*
G36*
X125715143Y-94407251D02*
G01*
X125813808Y-94408753D01*
X125891932Y-94411089D01*
X125943338Y-94414071D01*
X125961846Y-94417509D01*
X125961796Y-94418230D01*
X125952587Y-94443203D01*
X125932293Y-94485399D01*
X125902739Y-94542549D01*
X125595254Y-94547928D01*
X125287769Y-94553308D01*
X125287769Y-94670539D01*
X125624808Y-94675885D01*
X125716426Y-94677579D01*
X125814351Y-94680005D01*
X125892094Y-94682634D01*
X125943358Y-94685246D01*
X125961846Y-94687623D01*
X125961781Y-94688306D01*
X125954980Y-94711996D01*
X125940396Y-94755546D01*
X125918946Y-94817077D01*
X125622896Y-94817376D01*
X125571468Y-94817676D01*
X125471534Y-94819754D01*
X125388075Y-94823470D01*
X125328623Y-94828430D01*
X125300713Y-94834240D01*
X125285786Y-94855024D01*
X125281175Y-94897440D01*
X125287769Y-94944077D01*
X125624808Y-94949423D01*
X125710454Y-94951336D01*
X125811828Y-94955303D01*
X125891345Y-94960491D01*
X125943264Y-94966499D01*
X125961846Y-94972927D01*
X125955966Y-94997998D01*
X125939171Y-95040850D01*
X125916497Y-95090615D01*
X125261467Y-95090615D01*
X125199637Y-95028785D01*
X125185772Y-95014662D01*
X125154954Y-94975536D01*
X125144972Y-94936078D01*
X125149567Y-94877362D01*
X125152538Y-94853456D01*
X125158824Y-94791801D01*
X125161328Y-94748692D01*
X125160945Y-94735905D01*
X125156800Y-94683446D01*
X125149567Y-94620022D01*
X125147082Y-94599730D01*
X125146105Y-94548610D01*
X125161538Y-94511207D01*
X125199637Y-94468599D01*
X125261467Y-94406769D01*
X125611657Y-94406769D01*
X125715143Y-94407251D01*
G37*
X125647948Y-100581699D02*
X125742467Y-100591262D01*
X125817273Y-100609943D01*
X125867095Y-100633951D01*
X125944591Y-100701536D01*
X125992744Y-100793114D01*
X126009297Y-100905213D01*
X126008401Y-100935151D01*
X125990071Y-101023315D01*
X125943896Y-101095733D01*
X125864352Y-101162192D01*
X125858452Y-101166147D01*
X125826712Y-101184040D01*
X125790837Y-101195678D01*
X125742094Y-101202371D01*
X125671751Y-101205426D01*
X125577818Y-101206106D01*
X125571077Y-101206154D01*
X125549895Y-101206135D01*
X125455416Y-101205076D01*
X125389586Y-101201436D01*
X125343606Y-101193892D01*
X125308679Y-101181122D01*
X125276005Y-101161803D01*
X125269225Y-101157050D01*
X125215769Y-101106759D01*
X125175453Y-101049457D01*
X125162371Y-101020032D01*
X125142746Y-100924942D01*
X125322739Y-100924942D01*
X125356154Y-100971692D01*
X125364947Y-100979824D01*
X125391259Y-100995754D01*
X125429480Y-101005159D01*
X125488651Y-101009632D01*
X125577818Y-101010769D01*
X125661336Y-101008822D01*
X125740905Y-100999105D01*
X125791192Y-100979047D01*
X125817487Y-100946240D01*
X125825077Y-100898280D01*
X125823568Y-100880016D01*
X125795893Y-100828848D01*
X125733828Y-100795035D01*
X125637963Y-100778796D01*
X125508886Y-100780349D01*
X125500580Y-100780974D01*
X125429357Y-100790077D01*
X125384191Y-100806288D01*
X125353248Y-100833660D01*
X125324263Y-100879553D01*
X125322739Y-100924942D01*
X125142746Y-100924942D01*
X125140550Y-100914299D01*
X125154664Y-100809734D01*
X125202895Y-100713368D01*
X125283421Y-100632235D01*
X125294209Y-100625385D01*
X125356847Y-100603097D01*
X125444065Y-100588079D01*
X125544790Y-100580792D01*
X125647948Y-100581699D01*
G36*
X125647948Y-100581699D02*
G01*
X125742467Y-100591262D01*
X125817273Y-100609943D01*
X125867095Y-100633951D01*
X125944591Y-100701536D01*
X125992744Y-100793114D01*
X126009297Y-100905213D01*
X126008401Y-100935151D01*
X125990071Y-101023315D01*
X125943896Y-101095733D01*
X125864352Y-101162192D01*
X125858452Y-101166147D01*
X125826712Y-101184040D01*
X125790837Y-101195678D01*
X125742094Y-101202371D01*
X125671751Y-101205426D01*
X125577818Y-101206106D01*
X125571077Y-101206154D01*
X125549895Y-101206135D01*
X125455416Y-101205076D01*
X125389586Y-101201436D01*
X125343606Y-101193892D01*
X125308679Y-101181122D01*
X125276005Y-101161803D01*
X125269225Y-101157050D01*
X125215769Y-101106759D01*
X125175453Y-101049457D01*
X125162371Y-101020032D01*
X125142746Y-100924942D01*
X125322739Y-100924942D01*
X125356154Y-100971692D01*
X125364947Y-100979824D01*
X125391259Y-100995754D01*
X125429480Y-101005159D01*
X125488651Y-101009632D01*
X125577818Y-101010769D01*
X125661336Y-101008822D01*
X125740905Y-100999105D01*
X125791192Y-100979047D01*
X125817487Y-100946240D01*
X125825077Y-100898280D01*
X125823568Y-100880016D01*
X125795893Y-100828848D01*
X125733828Y-100795035D01*
X125637963Y-100778796D01*
X125508886Y-100780349D01*
X125500580Y-100780974D01*
X125429357Y-100790077D01*
X125384191Y-100806288D01*
X125353248Y-100833660D01*
X125324263Y-100879553D01*
X125322739Y-100924942D01*
X125142746Y-100924942D01*
X125140550Y-100914299D01*
X125154664Y-100809734D01*
X125202895Y-100713368D01*
X125283421Y-100632235D01*
X125294209Y-100625385D01*
X125356847Y-100603097D01*
X125444065Y-100588079D01*
X125544790Y-100580792D01*
X125647948Y-100581699D01*
G37*
X125467448Y-92472346D02*
X125441636Y-92514994D01*
X125381072Y-92552064D01*
X125361680Y-92559803D01*
X125306765Y-92603074D01*
X125279121Y-92661976D01*
X125281607Y-92726111D01*
X125317077Y-92785077D01*
X125339195Y-92805342D01*
X125372564Y-92823720D01*
X125402883Y-92817971D01*
X125434087Y-92784887D01*
X125470113Y-92721261D01*
X125514897Y-92623885D01*
X125602555Y-92423615D01*
X125689393Y-92418301D01*
X125754337Y-92420647D01*
X125836410Y-92450186D01*
X125881639Y-92487472D01*
X125932162Y-92564776D01*
X125957684Y-92656478D01*
X125955664Y-92751274D01*
X125923560Y-92837859D01*
X125911233Y-92856920D01*
X125873088Y-92900640D01*
X125824833Y-92930540D01*
X125759290Y-92948968D01*
X125669280Y-92958270D01*
X125610052Y-92959499D01*
X125547624Y-92960794D01*
X125495551Y-92960413D01*
X125392953Y-92955641D01*
X125317874Y-92943150D01*
X125262252Y-92920121D01*
X125218025Y-92883732D01*
X125181479Y-92836751D01*
X125571077Y-92836751D01*
X125576562Y-92840161D01*
X125610052Y-92841529D01*
X125663884Y-92836651D01*
X125716527Y-92824364D01*
X125782849Y-92786041D01*
X125820220Y-92730720D01*
X125825279Y-92664640D01*
X125794661Y-92594040D01*
X125779352Y-92574474D01*
X125744704Y-92550783D01*
X125710462Y-92560688D01*
X125673904Y-92605756D01*
X125632308Y-92687557D01*
X125626282Y-92701092D01*
X125598247Y-92765818D01*
X125578528Y-92814247D01*
X125571077Y-92836751D01*
X125181479Y-92836751D01*
X125177131Y-92831162D01*
X125158534Y-92797714D01*
X125146009Y-92744098D01*
X125146997Y-92668780D01*
X125150965Y-92626672D01*
X125163080Y-92575879D01*
X125189415Y-92535280D01*
X125238486Y-92488049D01*
X125245654Y-92481738D01*
X125300811Y-92439277D01*
X125348850Y-92419018D01*
X125405816Y-92413846D01*
X125489529Y-92413846D01*
X125467448Y-92472346D01*
G36*
X125467448Y-92472346D02*
G01*
X125441636Y-92514994D01*
X125381072Y-92552064D01*
X125361680Y-92559803D01*
X125306765Y-92603074D01*
X125279121Y-92661976D01*
X125281607Y-92726111D01*
X125317077Y-92785077D01*
X125339195Y-92805342D01*
X125372564Y-92823720D01*
X125402883Y-92817971D01*
X125434087Y-92784887D01*
X125470113Y-92721261D01*
X125514897Y-92623885D01*
X125602555Y-92423615D01*
X125689393Y-92418301D01*
X125754337Y-92420647D01*
X125836410Y-92450186D01*
X125881639Y-92487472D01*
X125932162Y-92564776D01*
X125957684Y-92656478D01*
X125955664Y-92751274D01*
X125923560Y-92837859D01*
X125911233Y-92856920D01*
X125873088Y-92900640D01*
X125824833Y-92930540D01*
X125759290Y-92948968D01*
X125669280Y-92958270D01*
X125610052Y-92959499D01*
X125547624Y-92960794D01*
X125495551Y-92960413D01*
X125392953Y-92955641D01*
X125317874Y-92943150D01*
X125262252Y-92920121D01*
X125218025Y-92883732D01*
X125181479Y-92836751D01*
X125571077Y-92836751D01*
X125576562Y-92840161D01*
X125610052Y-92841529D01*
X125663884Y-92836651D01*
X125716527Y-92824364D01*
X125782849Y-92786041D01*
X125820220Y-92730720D01*
X125825279Y-92664640D01*
X125794661Y-92594040D01*
X125779352Y-92574474D01*
X125744704Y-92550783D01*
X125710462Y-92560688D01*
X125673904Y-92605756D01*
X125632308Y-92687557D01*
X125626282Y-92701092D01*
X125598247Y-92765818D01*
X125578528Y-92814247D01*
X125571077Y-92836751D01*
X125181479Y-92836751D01*
X125177131Y-92831162D01*
X125158534Y-92797714D01*
X125146009Y-92744098D01*
X125146997Y-92668780D01*
X125150965Y-92626672D01*
X125163080Y-92575879D01*
X125189415Y-92535280D01*
X125238486Y-92488049D01*
X125245654Y-92481738D01*
X125300811Y-92439277D01*
X125348850Y-92419018D01*
X125405816Y-92413846D01*
X125489529Y-92413846D01*
X125467448Y-92472346D01*
G37*
X126226436Y-95271346D02*
X126219155Y-95288136D01*
X126202713Y-95314859D01*
X126177813Y-95330156D01*
X126134268Y-95338563D01*
X126061894Y-95344615D01*
X125996911Y-95350144D01*
X125954250Y-95357450D01*
X125938330Y-95367918D01*
X125942600Y-95383692D01*
X125957603Y-95423890D01*
X125961322Y-95495728D01*
X125947428Y-95573010D01*
X125917495Y-95639688D01*
X125889789Y-95676371D01*
X125835731Y-95723472D01*
X125766423Y-95753638D01*
X125674235Y-95769678D01*
X125557014Y-95774191D01*
X125551538Y-95774401D01*
X125475348Y-95772839D01*
X125371493Y-95761810D01*
X125293667Y-95737814D01*
X125234240Y-95698043D01*
X125185582Y-95639688D01*
X125157454Y-95584100D01*
X125141801Y-95490751D01*
X125147656Y-95458863D01*
X125282705Y-95458863D01*
X125286110Y-95526625D01*
X125325958Y-95589734D01*
X125346602Y-95608526D01*
X125373971Y-95624254D01*
X125411808Y-95633039D01*
X125469645Y-95636859D01*
X125557014Y-95637692D01*
X125623681Y-95637281D01*
X125688755Y-95634434D01*
X125730749Y-95627256D01*
X125758937Y-95613889D01*
X125782594Y-95592472D01*
X125793247Y-95579890D01*
X125821943Y-95514699D01*
X125817425Y-95446400D01*
X125779856Y-95387098D01*
X125764960Y-95374333D01*
X125736911Y-95358764D01*
X125697742Y-95349762D01*
X125638142Y-95345617D01*
X125548800Y-95344615D01*
X125477684Y-95345077D01*
X125413359Y-95347999D01*
X125371834Y-95355221D01*
X125343933Y-95368561D01*
X125320483Y-95389836D01*
X125315975Y-95394821D01*
X125282705Y-95458863D01*
X125147656Y-95458863D01*
X125158916Y-95397530D01*
X125206612Y-95313272D01*
X125282706Y-95246818D01*
X125296738Y-95238793D01*
X125321321Y-95228196D01*
X125352691Y-95220335D01*
X125396231Y-95214807D01*
X125457322Y-95211206D01*
X125541345Y-95209128D01*
X125653680Y-95208167D01*
X125799711Y-95207919D01*
X126253037Y-95207846D01*
X126226436Y-95271346D01*
G36*
X126226436Y-95271346D02*
G01*
X126219155Y-95288136D01*
X126202713Y-95314859D01*
X126177813Y-95330156D01*
X126134268Y-95338563D01*
X126061894Y-95344615D01*
X125996911Y-95350144D01*
X125954250Y-95357450D01*
X125938330Y-95367918D01*
X125942600Y-95383692D01*
X125957603Y-95423890D01*
X125961322Y-95495728D01*
X125947428Y-95573010D01*
X125917495Y-95639688D01*
X125889789Y-95676371D01*
X125835731Y-95723472D01*
X125766423Y-95753638D01*
X125674235Y-95769678D01*
X125557014Y-95774191D01*
X125551538Y-95774401D01*
X125475348Y-95772839D01*
X125371493Y-95761810D01*
X125293667Y-95737814D01*
X125234240Y-95698043D01*
X125185582Y-95639688D01*
X125157454Y-95584100D01*
X125141801Y-95490751D01*
X125147656Y-95458863D01*
X125282705Y-95458863D01*
X125286110Y-95526625D01*
X125325958Y-95589734D01*
X125346602Y-95608526D01*
X125373971Y-95624254D01*
X125411808Y-95633039D01*
X125469645Y-95636859D01*
X125557014Y-95637692D01*
X125623681Y-95637281D01*
X125688755Y-95634434D01*
X125730749Y-95627256D01*
X125758937Y-95613889D01*
X125782594Y-95592472D01*
X125793247Y-95579890D01*
X125821943Y-95514699D01*
X125817425Y-95446400D01*
X125779856Y-95387098D01*
X125764960Y-95374333D01*
X125736911Y-95358764D01*
X125697742Y-95349762D01*
X125638142Y-95345617D01*
X125548800Y-95344615D01*
X125477684Y-95345077D01*
X125413359Y-95347999D01*
X125371834Y-95355221D01*
X125343933Y-95368561D01*
X125320483Y-95389836D01*
X125315975Y-95394821D01*
X125282705Y-95458863D01*
X125147656Y-95458863D01*
X125158916Y-95397530D01*
X125206612Y-95313272D01*
X125282706Y-95246818D01*
X125296738Y-95238793D01*
X125321321Y-95228196D01*
X125352691Y-95220335D01*
X125396231Y-95214807D01*
X125457322Y-95211206D01*
X125541345Y-95209128D01*
X125653680Y-95208167D01*
X125799711Y-95207919D01*
X126253037Y-95207846D01*
X126226436Y-95271346D01*
G37*
X125534785Y-99095582D02*
X125551538Y-99106548D01*
X125550520Y-99116290D01*
X125531991Y-99162877D01*
X125497919Y-99215682D01*
X125458478Y-99260603D01*
X125423845Y-99283535D01*
X125376867Y-99307373D01*
X125334138Y-99356230D01*
X125317077Y-99412963D01*
X125322010Y-99433758D01*
X125346843Y-99474804D01*
X125381315Y-99510557D01*
X125412589Y-99525846D01*
X125412705Y-99525842D01*
X125425750Y-99510086D01*
X125639874Y-99510086D01*
X125652448Y-99523410D01*
X125695532Y-99525846D01*
X125749153Y-99515724D01*
X125797881Y-99480631D01*
X125823144Y-99429823D01*
X125820594Y-99373181D01*
X125785880Y-99320584D01*
X125761893Y-99299910D01*
X125743637Y-99295000D01*
X125726223Y-99314911D01*
X125700128Y-99364521D01*
X125699390Y-99365976D01*
X125671517Y-99424506D01*
X125649281Y-99476868D01*
X125639874Y-99510086D01*
X125425750Y-99510086D01*
X125427067Y-99508495D01*
X125452975Y-99462247D01*
X125486790Y-99394067D01*
X125524871Y-99310923D01*
X125525073Y-99310466D01*
X125565291Y-99220138D01*
X125594267Y-99159592D01*
X125616526Y-99122888D01*
X125636593Y-99104086D01*
X125658991Y-99097246D01*
X125688244Y-99096429D01*
X125758346Y-99103622D01*
X125853588Y-99139184D01*
X125928433Y-99198714D01*
X125980255Y-99275746D01*
X126006427Y-99363815D01*
X126004324Y-99456454D01*
X125971319Y-99547198D01*
X125904785Y-99629579D01*
X125838945Y-99675222D01*
X125744964Y-99708008D01*
X125695532Y-99713339D01*
X125626464Y-99720787D01*
X125478357Y-99714574D01*
X125446979Y-99711066D01*
X125335295Y-99684927D01*
X125250358Y-99637694D01*
X125185259Y-99565862D01*
X125182572Y-99561802D01*
X125144366Y-99470487D01*
X125140966Y-99375144D01*
X125170061Y-99283274D01*
X125229340Y-99202379D01*
X125316490Y-99139962D01*
X125318591Y-99138914D01*
X125372711Y-99118173D01*
X125434219Y-99102980D01*
X125491961Y-99094921D01*
X125534785Y-99095582D01*
G36*
X125534785Y-99095582D02*
G01*
X125551538Y-99106548D01*
X125550520Y-99116290D01*
X125531991Y-99162877D01*
X125497919Y-99215682D01*
X125458478Y-99260603D01*
X125423845Y-99283535D01*
X125376867Y-99307373D01*
X125334138Y-99356230D01*
X125317077Y-99412963D01*
X125322010Y-99433758D01*
X125346843Y-99474804D01*
X125381315Y-99510557D01*
X125412589Y-99525846D01*
X125412705Y-99525842D01*
X125425750Y-99510086D01*
X125639874Y-99510086D01*
X125652448Y-99523410D01*
X125695532Y-99525846D01*
X125749153Y-99515724D01*
X125797881Y-99480631D01*
X125823144Y-99429823D01*
X125820594Y-99373181D01*
X125785880Y-99320584D01*
X125761893Y-99299910D01*
X125743637Y-99295000D01*
X125726223Y-99314911D01*
X125700128Y-99364521D01*
X125699390Y-99365976D01*
X125671517Y-99424506D01*
X125649281Y-99476868D01*
X125639874Y-99510086D01*
X125425750Y-99510086D01*
X125427067Y-99508495D01*
X125452975Y-99462247D01*
X125486790Y-99394067D01*
X125524871Y-99310923D01*
X125525073Y-99310466D01*
X125565291Y-99220138D01*
X125594267Y-99159592D01*
X125616526Y-99122888D01*
X125636593Y-99104086D01*
X125658991Y-99097246D01*
X125688244Y-99096429D01*
X125758346Y-99103622D01*
X125853588Y-99139184D01*
X125928433Y-99198714D01*
X125980255Y-99275746D01*
X126006427Y-99363815D01*
X126004324Y-99456454D01*
X125971319Y-99547198D01*
X125904785Y-99629579D01*
X125838945Y-99675222D01*
X125744964Y-99708008D01*
X125695532Y-99713339D01*
X125626464Y-99720787D01*
X125478357Y-99714574D01*
X125446979Y-99711066D01*
X125335295Y-99684927D01*
X125250358Y-99637694D01*
X125185259Y-99565862D01*
X125182572Y-99561802D01*
X125144366Y-99470487D01*
X125140966Y-99375144D01*
X125170061Y-99283274D01*
X125229340Y-99202379D01*
X125316490Y-99139962D01*
X125318591Y-99138914D01*
X125372711Y-99118173D01*
X125434219Y-99102980D01*
X125491961Y-99094921D01*
X125534785Y-99095582D01*
G37*
X125479702Y-96539923D02*
X125498072Y-96540414D01*
X125627008Y-96546025D01*
X125724186Y-96555938D01*
X125796075Y-96572175D01*
X125849148Y-96596759D01*
X125889873Y-96631715D01*
X125924721Y-96679064D01*
X125925267Y-96679940D01*
X125953697Y-96756499D01*
X125958500Y-96845044D01*
X125940772Y-96930458D01*
X125901611Y-96997622D01*
X125871098Y-97027169D01*
X125779890Y-97083948D01*
X125680452Y-97103077D01*
X125612040Y-97103077D01*
X125638482Y-97040191D01*
X125665163Y-96996700D01*
X125720554Y-96962426D01*
X125731976Y-96958907D01*
X125790162Y-96921028D01*
X125821593Y-96863936D01*
X125822942Y-96798383D01*
X125790884Y-96735117D01*
X125782617Y-96725672D01*
X125746689Y-96694087D01*
X125715365Y-96688871D01*
X125684609Y-96712765D01*
X125650383Y-96768510D01*
X125608650Y-96858846D01*
X125606007Y-96864956D01*
X125559245Y-96965241D01*
X125517819Y-97033735D01*
X125476458Y-97075899D01*
X125429889Y-97097193D01*
X125372840Y-97103077D01*
X125309592Y-97095366D01*
X125228636Y-97056430D01*
X125170478Y-96987932D01*
X125153017Y-96938388D01*
X125143463Y-96868469D01*
X125145504Y-96800575D01*
X125159918Y-96752093D01*
X125163507Y-96746943D01*
X125188584Y-96733267D01*
X125232782Y-96742757D01*
X125267473Y-96759246D01*
X125281916Y-96785687D01*
X125281197Y-96835834D01*
X125285340Y-96905453D01*
X125313946Y-96950943D01*
X125366896Y-96966308D01*
X125368418Y-96966294D01*
X125399155Y-96956983D01*
X125427357Y-96925311D01*
X125459864Y-96863731D01*
X125499002Y-96779986D01*
X125520294Y-96724518D01*
X125518921Y-96692497D01*
X125490797Y-96677534D01*
X125431830Y-96673242D01*
X125337932Y-96673231D01*
X125279969Y-96672752D01*
X125208388Y-96670556D01*
X125159394Y-96666986D01*
X125141231Y-96662491D01*
X125141354Y-96661290D01*
X125151198Y-96635319D01*
X125171972Y-96592305D01*
X125202713Y-96532859D01*
X125479702Y-96539923D01*
G36*
X125479702Y-96539923D02*
G01*
X125498072Y-96540414D01*
X125627008Y-96546025D01*
X125724186Y-96555938D01*
X125796075Y-96572175D01*
X125849148Y-96596759D01*
X125889873Y-96631715D01*
X125924721Y-96679064D01*
X125925267Y-96679940D01*
X125953697Y-96756499D01*
X125958500Y-96845044D01*
X125940772Y-96930458D01*
X125901611Y-96997622D01*
X125871098Y-97027169D01*
X125779890Y-97083948D01*
X125680452Y-97103077D01*
X125612040Y-97103077D01*
X125638482Y-97040191D01*
X125665163Y-96996700D01*
X125720554Y-96962426D01*
X125731976Y-96958907D01*
X125790162Y-96921028D01*
X125821593Y-96863936D01*
X125822942Y-96798383D01*
X125790884Y-96735117D01*
X125782617Y-96725672D01*
X125746689Y-96694087D01*
X125715365Y-96688871D01*
X125684609Y-96712765D01*
X125650383Y-96768510D01*
X125608650Y-96858846D01*
X125606007Y-96864956D01*
X125559245Y-96965241D01*
X125517819Y-97033735D01*
X125476458Y-97075899D01*
X125429889Y-97097193D01*
X125372840Y-97103077D01*
X125309592Y-97095366D01*
X125228636Y-97056430D01*
X125170478Y-96987932D01*
X125153017Y-96938388D01*
X125143463Y-96868469D01*
X125145504Y-96800575D01*
X125159918Y-96752093D01*
X125163507Y-96746943D01*
X125188584Y-96733267D01*
X125232782Y-96742757D01*
X125267473Y-96759246D01*
X125281916Y-96785687D01*
X125281197Y-96835834D01*
X125285340Y-96905453D01*
X125313946Y-96950943D01*
X125366896Y-96966308D01*
X125368418Y-96966294D01*
X125399155Y-96956983D01*
X125427357Y-96925311D01*
X125459864Y-96863731D01*
X125499002Y-96779986D01*
X125520294Y-96724518D01*
X125518921Y-96692497D01*
X125490797Y-96677534D01*
X125431830Y-96673242D01*
X125337932Y-96673231D01*
X125279969Y-96672752D01*
X125208388Y-96670556D01*
X125159394Y-96666986D01*
X125141231Y-96662491D01*
X125141354Y-96661290D01*
X125151198Y-96635319D01*
X125171972Y-96592305D01*
X125202713Y-96532859D01*
X125479702Y-96539923D01*
G37*
X125552060Y-93742780D02*
X125665299Y-93745789D01*
X125749308Y-93753454D01*
X125810480Y-93767562D01*
X125855205Y-93789899D01*
X125889876Y-93822253D01*
X125920883Y-93866410D01*
X125946472Y-93922667D01*
X125961846Y-94026540D01*
X125960089Y-94073936D01*
X125949453Y-94115807D01*
X125922938Y-94154791D01*
X125873580Y-94204965D01*
X125838721Y-94237232D01*
X125793466Y-94270844D01*
X125751049Y-94286003D01*
X125697232Y-94289539D01*
X125609150Y-94289539D01*
X125640213Y-94229470D01*
X125678064Y-94181867D01*
X125729050Y-94149261D01*
X125742912Y-94143661D01*
X125796642Y-94100992D01*
X125823583Y-94041707D01*
X125820961Y-93977061D01*
X125786000Y-93918308D01*
X125757606Y-93893450D01*
X125721282Y-93878970D01*
X125688954Y-93894470D01*
X125656435Y-93942667D01*
X125619539Y-94026274D01*
X125614443Y-94038962D01*
X125581093Y-94115078D01*
X125548207Y-94180396D01*
X125522231Y-94221953D01*
X125475833Y-94263576D01*
X125401789Y-94291247D01*
X125322330Y-94288310D01*
X125247132Y-94255571D01*
X125185869Y-94193841D01*
X125159790Y-94143858D01*
X125141530Y-94047303D01*
X125143993Y-93993647D01*
X125157313Y-93943976D01*
X125185261Y-93924919D01*
X125231290Y-93932045D01*
X125237376Y-93934118D01*
X125269651Y-93950556D01*
X125281867Y-93977926D01*
X125281050Y-94030068D01*
X125279939Y-94066884D01*
X125289472Y-94109961D01*
X125317974Y-94139475D01*
X125353065Y-94156286D01*
X125389825Y-94158161D01*
X125390039Y-94158074D01*
X125409902Y-94136279D01*
X125438808Y-94089632D01*
X125471114Y-94029278D01*
X125501177Y-93966360D01*
X125523354Y-93912023D01*
X125532000Y-93877410D01*
X125523533Y-93872260D01*
X125483691Y-93865778D01*
X125418629Y-93861339D01*
X125336615Y-93859692D01*
X125279847Y-93859309D01*
X125208352Y-93857505D01*
X125159390Y-93854558D01*
X125141231Y-93850843D01*
X125147333Y-93831424D01*
X125163905Y-93792227D01*
X125186580Y-93742462D01*
X125477491Y-93742462D01*
X125552060Y-93742780D01*
G36*
X125552060Y-93742780D02*
G01*
X125665299Y-93745789D01*
X125749308Y-93753454D01*
X125810480Y-93767562D01*
X125855205Y-93789899D01*
X125889876Y-93822253D01*
X125920883Y-93866410D01*
X125946472Y-93922667D01*
X125961846Y-94026540D01*
X125960089Y-94073936D01*
X125949453Y-94115807D01*
X125922938Y-94154791D01*
X125873580Y-94204965D01*
X125838721Y-94237232D01*
X125793466Y-94270844D01*
X125751049Y-94286003D01*
X125697232Y-94289539D01*
X125609150Y-94289539D01*
X125640213Y-94229470D01*
X125678064Y-94181867D01*
X125729050Y-94149261D01*
X125742912Y-94143661D01*
X125796642Y-94100992D01*
X125823583Y-94041707D01*
X125820961Y-93977061D01*
X125786000Y-93918308D01*
X125757606Y-93893450D01*
X125721282Y-93878970D01*
X125688954Y-93894470D01*
X125656435Y-93942667D01*
X125619539Y-94026274D01*
X125614443Y-94038962D01*
X125581093Y-94115078D01*
X125548207Y-94180396D01*
X125522231Y-94221953D01*
X125475833Y-94263576D01*
X125401789Y-94291247D01*
X125322330Y-94288310D01*
X125247132Y-94255571D01*
X125185869Y-94193841D01*
X125159790Y-94143858D01*
X125141530Y-94047303D01*
X125143993Y-93993647D01*
X125157313Y-93943976D01*
X125185261Y-93924919D01*
X125231290Y-93932045D01*
X125237376Y-93934118D01*
X125269651Y-93950556D01*
X125281867Y-93977926D01*
X125281050Y-94030068D01*
X125279939Y-94066884D01*
X125289472Y-94109961D01*
X125317974Y-94139475D01*
X125353065Y-94156286D01*
X125389825Y-94158161D01*
X125390039Y-94158074D01*
X125409902Y-94136279D01*
X125438808Y-94089632D01*
X125471114Y-94029278D01*
X125501177Y-93966360D01*
X125523354Y-93912023D01*
X125532000Y-93877410D01*
X125523533Y-93872260D01*
X125483691Y-93865778D01*
X125418629Y-93861339D01*
X125336615Y-93859692D01*
X125279847Y-93859309D01*
X125208352Y-93857505D01*
X125159390Y-93854558D01*
X125141231Y-93850843D01*
X125147333Y-93831424D01*
X125163905Y-93792227D01*
X125186580Y-93742462D01*
X125477491Y-93742462D01*
X125552060Y-93742780D01*
G37*
X125677464Y-99839187D02*
X125746902Y-99842490D01*
X125795055Y-99849828D01*
X125831134Y-99862655D01*
X125864352Y-99882423D01*
X125889739Y-99900569D01*
X125958273Y-99966461D01*
X125995495Y-100041114D01*
X126007278Y-100134904D01*
X125995533Y-100242240D01*
X125953405Y-100335031D01*
X125879102Y-100408421D01*
X125871236Y-100413954D01*
X125850332Y-100426857D01*
X125826445Y-100436742D01*
X125794418Y-100444093D01*
X125749095Y-100449394D01*
X125685321Y-100453127D01*
X125597940Y-100455778D01*
X125579958Y-100456096D01*
X125481795Y-100457828D01*
X125331731Y-100459763D01*
X125288198Y-100460300D01*
X125142656Y-100462019D01*
X125031289Y-100462365D01*
X124950196Y-100460277D01*
X124895478Y-100454698D01*
X124863239Y-100444567D01*
X124849578Y-100428826D01*
X124850597Y-100406417D01*
X124862397Y-100376280D01*
X124881080Y-100337355D01*
X124885067Y-100329038D01*
X124904581Y-100294402D01*
X124927798Y-100276314D01*
X124966508Y-100269392D01*
X125032503Y-100268256D01*
X125151000Y-100268205D01*
X125151000Y-100146141D01*
X125152063Y-100121858D01*
X125322372Y-100121858D01*
X125325583Y-100168110D01*
X125365035Y-100220350D01*
X125378518Y-100233128D01*
X125406163Y-100251949D01*
X125442120Y-100262562D01*
X125496636Y-100267252D01*
X125579958Y-100268308D01*
X125630402Y-100267394D01*
X125722143Y-100257477D01*
X125782248Y-100234842D01*
X125815100Y-100197238D01*
X125825077Y-100142416D01*
X125822950Y-100119317D01*
X125801853Y-100079350D01*
X125754839Y-100052926D01*
X125677825Y-100038330D01*
X125566729Y-100033846D01*
X125548869Y-100033880D01*
X125468252Y-100035735D01*
X125415553Y-100041693D01*
X125381332Y-100053506D01*
X125356154Y-100072923D01*
X125354951Y-100074133D01*
X125322372Y-100121858D01*
X125152063Y-100121858D01*
X125154288Y-100071055D01*
X125167623Y-100012015D01*
X125194577Y-99962986D01*
X125197212Y-99959330D01*
X125241714Y-99909581D01*
X125295477Y-99874959D01*
X125365846Y-99853123D01*
X125460170Y-99841737D01*
X125585794Y-99838462D01*
X125677464Y-99839187D01*
G36*
X125677464Y-99839187D02*
G01*
X125746902Y-99842490D01*
X125795055Y-99849828D01*
X125831134Y-99862655D01*
X125864352Y-99882423D01*
X125889739Y-99900569D01*
X125958273Y-99966461D01*
X125995495Y-100041114D01*
X126007278Y-100134904D01*
X125995533Y-100242240D01*
X125953405Y-100335031D01*
X125879102Y-100408421D01*
X125871236Y-100413954D01*
X125850332Y-100426857D01*
X125826445Y-100436742D01*
X125794418Y-100444093D01*
X125749095Y-100449394D01*
X125685321Y-100453127D01*
X125597940Y-100455778D01*
X125579958Y-100456096D01*
X125481795Y-100457828D01*
X125331731Y-100459763D01*
X125288198Y-100460300D01*
X125142656Y-100462019D01*
X125031289Y-100462365D01*
X124950196Y-100460277D01*
X124895478Y-100454698D01*
X124863239Y-100444567D01*
X124849578Y-100428826D01*
X124850597Y-100406417D01*
X124862397Y-100376280D01*
X124881080Y-100337355D01*
X124885067Y-100329038D01*
X124904581Y-100294402D01*
X124927798Y-100276314D01*
X124966508Y-100269392D01*
X125032503Y-100268256D01*
X125151000Y-100268205D01*
X125151000Y-100146141D01*
X125152063Y-100121858D01*
X125322372Y-100121858D01*
X125325583Y-100168110D01*
X125365035Y-100220350D01*
X125378518Y-100233128D01*
X125406163Y-100251949D01*
X125442120Y-100262562D01*
X125496636Y-100267252D01*
X125579958Y-100268308D01*
X125630402Y-100267394D01*
X125722143Y-100257477D01*
X125782248Y-100234842D01*
X125815100Y-100197238D01*
X125825077Y-100142416D01*
X125822950Y-100119317D01*
X125801853Y-100079350D01*
X125754839Y-100052926D01*
X125677825Y-100038330D01*
X125566729Y-100033846D01*
X125548869Y-100033880D01*
X125468252Y-100035735D01*
X125415553Y-100041693D01*
X125381332Y-100053506D01*
X125356154Y-100072923D01*
X125354951Y-100074133D01*
X125322372Y-100121858D01*
X125152063Y-100121858D01*
X125154288Y-100071055D01*
X125167623Y-100012015D01*
X125194577Y-99962986D01*
X125197212Y-99959330D01*
X125241714Y-99909581D01*
X125295477Y-99874959D01*
X125365846Y-99853123D01*
X125460170Y-99841737D01*
X125585794Y-99838462D01*
X125677464Y-99839187D01*
G37*
X129257820Y-93722946D02*
X129385953Y-93723379D01*
X129481580Y-93724659D01*
X129549589Y-93727168D01*
X129594867Y-93731286D01*
X129622303Y-93737395D01*
X129636782Y-93745878D01*
X129643193Y-93757115D01*
X129645791Y-93767994D01*
X129654978Y-93812347D01*
X129669009Y-93883106D01*
X129686514Y-93973074D01*
X129706126Y-94075056D01*
X129726475Y-94181857D01*
X129746193Y-94286281D01*
X129763911Y-94381132D01*
X129778262Y-94459214D01*
X129787876Y-94513332D01*
X129791384Y-94536291D01*
X129793503Y-94537842D01*
X129820994Y-94550325D01*
X129873594Y-94571927D01*
X129942808Y-94599123D01*
X130036063Y-94636866D01*
X130143841Y-94683328D01*
X130238828Y-94726878D01*
X130260149Y-94736858D01*
X130326914Y-94764862D01*
X130378410Y-94781641D01*
X130404905Y-94783854D01*
X130406782Y-94782713D01*
X130434435Y-94764584D01*
X130488151Y-94728644D01*
X130562697Y-94678418D01*
X130652838Y-94617430D01*
X130753343Y-94549205D01*
X130867530Y-94472330D01*
X130956230Y-94414663D01*
X131021279Y-94375426D01*
X131066705Y-94352350D01*
X131096537Y-94343166D01*
X131114805Y-94345604D01*
X131116175Y-94346424D01*
X131142795Y-94368477D01*
X131191303Y-94413436D01*
X131256892Y-94476673D01*
X131334753Y-94553559D01*
X131420078Y-94639465D01*
X131506666Y-94728579D01*
X131588053Y-94815872D01*
X131642965Y-94880018D01*
X131672810Y-94922679D01*
X131678996Y-94945521D01*
X131677606Y-94948505D01*
X131658873Y-94979936D01*
X131622267Y-95036997D01*
X131571303Y-95114343D01*
X131509496Y-95206626D01*
X131440361Y-95308502D01*
X131213580Y-95640593D01*
X131281647Y-95790566D01*
X131283619Y-95794923D01*
X131323509Y-95887000D01*
X131363182Y-95984683D01*
X131394326Y-96067539D01*
X131394455Y-96067905D01*
X131418544Y-96133685D01*
X131438890Y-96184323D01*
X131451099Y-96208884D01*
X131451542Y-96209282D01*
X131476544Y-96217619D01*
X131533402Y-96231341D01*
X131615986Y-96249123D01*
X131718169Y-96269641D01*
X131833822Y-96291571D01*
X131837967Y-96292336D01*
X131955981Y-96314229D01*
X132062849Y-96334281D01*
X132151748Y-96351192D01*
X132215855Y-96363667D01*
X132248346Y-96370406D01*
X132250147Y-96370837D01*
X132264056Y-96375273D01*
X132274511Y-96384263D01*
X132282004Y-96402737D01*
X132287028Y-96435628D01*
X132290078Y-96487868D01*
X132291645Y-96564388D01*
X132292224Y-96670122D01*
X132292308Y-96810000D01*
X132292307Y-96827575D01*
X132292193Y-96963371D01*
X132291528Y-97065576D01*
X132289818Y-97139122D01*
X132286571Y-97188942D01*
X132281294Y-97219967D01*
X132273493Y-97237129D01*
X132262675Y-97245361D01*
X132248346Y-97249594D01*
X132247832Y-97249716D01*
X132214149Y-97256672D01*
X132149083Y-97269320D01*
X132059458Y-97286360D01*
X131952096Y-97306496D01*
X131833822Y-97328429D01*
X131824144Y-97330218D01*
X131709350Y-97352083D01*
X131608520Y-97372430D01*
X131527783Y-97389934D01*
X131473266Y-97403271D01*
X131451099Y-97411116D01*
X131451064Y-97411158D01*
X131438800Y-97435884D01*
X131418424Y-97486631D01*
X131394326Y-97552462D01*
X131393017Y-97556169D01*
X131361209Y-97640331D01*
X131321315Y-97738230D01*
X131281647Y-97829435D01*
X131213580Y-97979407D01*
X131440361Y-98311499D01*
X131456312Y-98334889D01*
X131524110Y-98435080D01*
X131583792Y-98524480D01*
X131631844Y-98597745D01*
X131664750Y-98649527D01*
X131678996Y-98674480D01*
X131675730Y-98691577D01*
X131650429Y-98730395D01*
X131600325Y-98790385D01*
X131524011Y-98873210D01*
X131420078Y-98980535D01*
X131410618Y-98990139D01*
X131325855Y-99075302D01*
X131249063Y-99150949D01*
X131185053Y-99212449D01*
X131138639Y-99255173D01*
X131114631Y-99274489D01*
X131114515Y-99274552D01*
X131096237Y-99277006D01*
X131066589Y-99267956D01*
X131021514Y-99245119D01*
X130956956Y-99206213D01*
X130868860Y-99148954D01*
X130753170Y-99071059D01*
X130733643Y-99057785D01*
X130634722Y-98990652D01*
X130547152Y-98931410D01*
X130476169Y-98883588D01*
X130427009Y-98850715D01*
X130404905Y-98836318D01*
X130400223Y-98835232D01*
X130365290Y-98842044D01*
X130308247Y-98862450D01*
X130238828Y-98893123D01*
X130148041Y-98934808D01*
X130040314Y-98981352D01*
X129942808Y-99020877D01*
X129917570Y-99030676D01*
X129853130Y-99056340D01*
X129808237Y-99075193D01*
X129791384Y-99083710D01*
X129790125Y-99093111D01*
X129782841Y-99135363D01*
X129770261Y-99204521D01*
X129753754Y-99293387D01*
X129734688Y-99394768D01*
X129714431Y-99501467D01*
X129694353Y-99606288D01*
X129675821Y-99702036D01*
X129660205Y-99781516D01*
X129648873Y-99837530D01*
X129643193Y-99862885D01*
X129641592Y-99867088D01*
X129632955Y-99877334D01*
X129614567Y-99884957D01*
X129581540Y-99890338D01*
X129528987Y-99893859D01*
X129452021Y-99895901D01*
X129345754Y-99896847D01*
X129205299Y-99897077D01*
X128778155Y-99897077D01*
X128757909Y-99794500D01*
X128755482Y-99782092D01*
X128742912Y-99716199D01*
X128725830Y-99625084D01*
X128706171Y-99519104D01*
X128685868Y-99408615D01*
X128677701Y-99365105D01*
X128657833Y-99267882D01*
X128639046Y-99186858D01*
X128623141Y-99129477D01*
X128611921Y-99103187D01*
X128593589Y-99091273D01*
X128545084Y-99069583D01*
X128482308Y-99047395D01*
X128458800Y-99039585D01*
X128381634Y-99010835D01*
X128290306Y-98973752D01*
X128199907Y-98934375D01*
X128152690Y-98913315D01*
X128082163Y-98883311D01*
X128029345Y-98862692D01*
X128003088Y-98855026D01*
X128001106Y-98855452D01*
X127973249Y-98869993D01*
X127919490Y-98902783D01*
X127845037Y-98950493D01*
X127755103Y-99009798D01*
X127654896Y-99077369D01*
X127328584Y-99299713D01*
X127035984Y-99007601D01*
X127007829Y-98979349D01*
X126923551Y-98892961D01*
X126850872Y-98815756D01*
X126793888Y-98752258D01*
X126756693Y-98706990D01*
X126743384Y-98684474D01*
X126753510Y-98660023D01*
X126782579Y-98608819D01*
X126827104Y-98536747D01*
X126883589Y-98449460D01*
X126948538Y-98352612D01*
X127012686Y-98257486D01*
X127069173Y-98171669D01*
X127113816Y-98101652D01*
X127143145Y-98052876D01*
X127153692Y-98030783D01*
X127153596Y-98029488D01*
X127143198Y-98000139D01*
X127118988Y-97948093D01*
X127085751Y-97883708D01*
X127085387Y-97883032D01*
X127042559Y-97797521D01*
X127021635Y-97738926D01*
X127021577Y-97702571D01*
X127041346Y-97683775D01*
X127060805Y-97675819D01*
X127112920Y-97654347D01*
X127193036Y-97621273D01*
X127296893Y-97578356D01*
X127420233Y-97527356D01*
X127558799Y-97470033D01*
X127708330Y-97408146D01*
X127844364Y-97352052D01*
X127983950Y-97294977D01*
X128108685Y-97244479D01*
X128214328Y-97202254D01*
X128296635Y-97169995D01*
X128351365Y-97149397D01*
X128374274Y-97142154D01*
X128395282Y-97155986D01*
X128430358Y-97194412D01*
X128471113Y-97248807D01*
X128577733Y-97379395D01*
X128713975Y-97496260D01*
X128863882Y-97581780D01*
X129023029Y-97635431D01*
X129186988Y-97656684D01*
X129351333Y-97645014D01*
X129511639Y-97599894D01*
X129663480Y-97520797D01*
X129802428Y-97407197D01*
X129856540Y-97347965D01*
X129952218Y-97206054D01*
X130014595Y-97054206D01*
X130045156Y-96896861D01*
X130045385Y-96738456D01*
X130016768Y-96583429D01*
X129960790Y-96436220D01*
X129878936Y-96301266D01*
X129772691Y-96183005D01*
X129643541Y-96085877D01*
X129492969Y-96014318D01*
X129322461Y-95972769D01*
X129240278Y-95965143D01*
X129062225Y-95975634D01*
X128893296Y-96022882D01*
X128736478Y-96105489D01*
X128594755Y-96222059D01*
X128471113Y-96371193D01*
X128432018Y-96423561D01*
X128396557Y-96462832D01*
X128374308Y-96477846D01*
X128354912Y-96471859D01*
X128302941Y-96452432D01*
X128222998Y-96421194D01*
X128119327Y-96379839D01*
X127996168Y-96330061D01*
X127857766Y-96273553D01*
X127708363Y-96212009D01*
X127572980Y-96156008D01*
X127433148Y-96098184D01*
X127308128Y-96046500D01*
X127202178Y-96002718D01*
X127119559Y-95968597D01*
X127064528Y-95945898D01*
X127041346Y-95936380D01*
X127041072Y-95936269D01*
X127021497Y-95917228D01*
X127021721Y-95880694D01*
X127042790Y-95821954D01*
X127085751Y-95736292D01*
X127089369Y-95729549D01*
X127121913Y-95665938D01*
X127144950Y-95615707D01*
X127153692Y-95589218D01*
X127143361Y-95567506D01*
X127114212Y-95518984D01*
X127069713Y-95449163D01*
X127013332Y-95363484D01*
X126948538Y-95267388D01*
X126885016Y-95172706D01*
X126828295Y-95085132D01*
X126783453Y-95012642D01*
X126753984Y-94960889D01*
X126743384Y-94935526D01*
X126744730Y-94931206D01*
X126765944Y-94901092D01*
X126809763Y-94849640D01*
X126872091Y-94781375D01*
X126948830Y-94700820D01*
X127035884Y-94612500D01*
X127328383Y-94320488D01*
X127997475Y-94775360D01*
X128147084Y-94706208D01*
X128147527Y-94706003D01*
X128242899Y-94664477D01*
X128349104Y-94622044D01*
X128443231Y-94587858D01*
X128458412Y-94582684D01*
X128528891Y-94556601D01*
X128583658Y-94533081D01*
X128611921Y-94516677D01*
X128615912Y-94509996D01*
X128629303Y-94469892D01*
X128646627Y-94401795D01*
X128666083Y-94313145D01*
X128685868Y-94211385D01*
X128691449Y-94180904D01*
X128711767Y-94070628D01*
X128730905Y-93967731D01*
X128746930Y-93882569D01*
X128757909Y-93825500D01*
X128778155Y-93722923D01*
X129205299Y-93722923D01*
X129257820Y-93722946D01*
G36*
X129257820Y-93722946D02*
G01*
X129385953Y-93723379D01*
X129481580Y-93724659D01*
X129549589Y-93727168D01*
X129594867Y-93731286D01*
X129622303Y-93737395D01*
X129636782Y-93745878D01*
X129643193Y-93757115D01*
X129645791Y-93767994D01*
X129654978Y-93812347D01*
X129669009Y-93883106D01*
X129686514Y-93973074D01*
X129706126Y-94075056D01*
X129726475Y-94181857D01*
X129746193Y-94286281D01*
X129763911Y-94381132D01*
X129778262Y-94459214D01*
X129787876Y-94513332D01*
X129791384Y-94536291D01*
X129793503Y-94537842D01*
X129820994Y-94550325D01*
X129873594Y-94571927D01*
X129942808Y-94599123D01*
X130036063Y-94636866D01*
X130143841Y-94683328D01*
X130238828Y-94726878D01*
X130260149Y-94736858D01*
X130326914Y-94764862D01*
X130378410Y-94781641D01*
X130404905Y-94783854D01*
X130406782Y-94782713D01*
X130434435Y-94764584D01*
X130488151Y-94728644D01*
X130562697Y-94678418D01*
X130652838Y-94617430D01*
X130753343Y-94549205D01*
X130867530Y-94472330D01*
X130956230Y-94414663D01*
X131021279Y-94375426D01*
X131066705Y-94352350D01*
X131096537Y-94343166D01*
X131114805Y-94345604D01*
X131116175Y-94346424D01*
X131142795Y-94368477D01*
X131191303Y-94413436D01*
X131256892Y-94476673D01*
X131334753Y-94553559D01*
X131420078Y-94639465D01*
X131506666Y-94728579D01*
X131588053Y-94815872D01*
X131642965Y-94880018D01*
X131672810Y-94922679D01*
X131678996Y-94945521D01*
X131677606Y-94948505D01*
X131658873Y-94979936D01*
X131622267Y-95036997D01*
X131571303Y-95114343D01*
X131509496Y-95206626D01*
X131440361Y-95308502D01*
X131213580Y-95640593D01*
X131281647Y-95790566D01*
X131283619Y-95794923D01*
X131323509Y-95887000D01*
X131363182Y-95984683D01*
X131394326Y-96067539D01*
X131394455Y-96067905D01*
X131418544Y-96133685D01*
X131438890Y-96184323D01*
X131451099Y-96208884D01*
X131451542Y-96209282D01*
X131476544Y-96217619D01*
X131533402Y-96231341D01*
X131615986Y-96249123D01*
X131718169Y-96269641D01*
X131833822Y-96291571D01*
X131837967Y-96292336D01*
X131955981Y-96314229D01*
X132062849Y-96334281D01*
X132151748Y-96351192D01*
X132215855Y-96363667D01*
X132248346Y-96370406D01*
X132250147Y-96370837D01*
X132264056Y-96375273D01*
X132274511Y-96384263D01*
X132282004Y-96402737D01*
X132287028Y-96435628D01*
X132290078Y-96487868D01*
X132291645Y-96564388D01*
X132292224Y-96670122D01*
X132292308Y-96810000D01*
X132292307Y-96827575D01*
X132292193Y-96963371D01*
X132291528Y-97065576D01*
X132289818Y-97139122D01*
X132286571Y-97188942D01*
X132281294Y-97219967D01*
X132273493Y-97237129D01*
X132262675Y-97245361D01*
X132248346Y-97249594D01*
X132247832Y-97249716D01*
X132214149Y-97256672D01*
X132149083Y-97269320D01*
X132059458Y-97286360D01*
X131952096Y-97306496D01*
X131833822Y-97328429D01*
X131824144Y-97330218D01*
X131709350Y-97352083D01*
X131608520Y-97372430D01*
X131527783Y-97389934D01*
X131473266Y-97403271D01*
X131451099Y-97411116D01*
X131451064Y-97411158D01*
X131438800Y-97435884D01*
X131418424Y-97486631D01*
X131394326Y-97552462D01*
X131393017Y-97556169D01*
X131361209Y-97640331D01*
X131321315Y-97738230D01*
X131281647Y-97829435D01*
X131213580Y-97979407D01*
X131440361Y-98311499D01*
X131456312Y-98334889D01*
X131524110Y-98435080D01*
X131583792Y-98524480D01*
X131631844Y-98597745D01*
X131664750Y-98649527D01*
X131678996Y-98674480D01*
X131675730Y-98691577D01*
X131650429Y-98730395D01*
X131600325Y-98790385D01*
X131524011Y-98873210D01*
X131420078Y-98980535D01*
X131410618Y-98990139D01*
X131325855Y-99075302D01*
X131249063Y-99150949D01*
X131185053Y-99212449D01*
X131138639Y-99255173D01*
X131114631Y-99274489D01*
X131114515Y-99274552D01*
X131096237Y-99277006D01*
X131066589Y-99267956D01*
X131021514Y-99245119D01*
X130956956Y-99206213D01*
X130868860Y-99148954D01*
X130753170Y-99071059D01*
X130733643Y-99057785D01*
X130634722Y-98990652D01*
X130547152Y-98931410D01*
X130476169Y-98883588D01*
X130427009Y-98850715D01*
X130404905Y-98836318D01*
X130400223Y-98835232D01*
X130365290Y-98842044D01*
X130308247Y-98862450D01*
X130238828Y-98893123D01*
X130148041Y-98934808D01*
X130040314Y-98981352D01*
X129942808Y-99020877D01*
X129917570Y-99030676D01*
X129853130Y-99056340D01*
X129808237Y-99075193D01*
X129791384Y-99083710D01*
X129790125Y-99093111D01*
X129782841Y-99135363D01*
X129770261Y-99204521D01*
X129753754Y-99293387D01*
X129734688Y-99394768D01*
X129714431Y-99501467D01*
X129694353Y-99606288D01*
X129675821Y-99702036D01*
X129660205Y-99781516D01*
X129648873Y-99837530D01*
X129643193Y-99862885D01*
X129641592Y-99867088D01*
X129632955Y-99877334D01*
X129614567Y-99884957D01*
X129581540Y-99890338D01*
X129528987Y-99893859D01*
X129452021Y-99895901D01*
X129345754Y-99896847D01*
X129205299Y-99897077D01*
X128778155Y-99897077D01*
X128757909Y-99794500D01*
X128755482Y-99782092D01*
X128742912Y-99716199D01*
X128725830Y-99625084D01*
X128706171Y-99519104D01*
X128685868Y-99408615D01*
X128677701Y-99365105D01*
X128657833Y-99267882D01*
X128639046Y-99186858D01*
X128623141Y-99129477D01*
X128611921Y-99103187D01*
X128593589Y-99091273D01*
X128545084Y-99069583D01*
X128482308Y-99047395D01*
X128458800Y-99039585D01*
X128381634Y-99010835D01*
X128290306Y-98973752D01*
X128199907Y-98934375D01*
X128152690Y-98913315D01*
X128082163Y-98883311D01*
X128029345Y-98862692D01*
X128003088Y-98855026D01*
X128001106Y-98855452D01*
X127973249Y-98869993D01*
X127919490Y-98902783D01*
X127845037Y-98950493D01*
X127755103Y-99009798D01*
X127654896Y-99077369D01*
X127328584Y-99299713D01*
X127035984Y-99007601D01*
X127007829Y-98979349D01*
X126923551Y-98892961D01*
X126850872Y-98815756D01*
X126793888Y-98752258D01*
X126756693Y-98706990D01*
X126743384Y-98684474D01*
X126753510Y-98660023D01*
X126782579Y-98608819D01*
X126827104Y-98536747D01*
X126883589Y-98449460D01*
X126948538Y-98352612D01*
X127012686Y-98257486D01*
X127069173Y-98171669D01*
X127113816Y-98101652D01*
X127143145Y-98052876D01*
X127153692Y-98030783D01*
X127153596Y-98029488D01*
X127143198Y-98000139D01*
X127118988Y-97948093D01*
X127085751Y-97883708D01*
X127085387Y-97883032D01*
X127042559Y-97797521D01*
X127021635Y-97738926D01*
X127021577Y-97702571D01*
X127041346Y-97683775D01*
X127060805Y-97675819D01*
X127112920Y-97654347D01*
X127193036Y-97621273D01*
X127296893Y-97578356D01*
X127420233Y-97527356D01*
X127558799Y-97470033D01*
X127708330Y-97408146D01*
X127844364Y-97352052D01*
X127983950Y-97294977D01*
X128108685Y-97244479D01*
X128214328Y-97202254D01*
X128296635Y-97169995D01*
X128351365Y-97149397D01*
X128374274Y-97142154D01*
X128395282Y-97155986D01*
X128430358Y-97194412D01*
X128471113Y-97248807D01*
X128577733Y-97379395D01*
X128713975Y-97496260D01*
X128863882Y-97581780D01*
X129023029Y-97635431D01*
X129186988Y-97656684D01*
X129351333Y-97645014D01*
X129511639Y-97599894D01*
X129663480Y-97520797D01*
X129802428Y-97407197D01*
X129856540Y-97347965D01*
X129952218Y-97206054D01*
X130014595Y-97054206D01*
X130045156Y-96896861D01*
X130045385Y-96738456D01*
X130016768Y-96583429D01*
X129960790Y-96436220D01*
X129878936Y-96301266D01*
X129772691Y-96183005D01*
X129643541Y-96085877D01*
X129492969Y-96014318D01*
X129322461Y-95972769D01*
X129240278Y-95965143D01*
X129062225Y-95975634D01*
X128893296Y-96022882D01*
X128736478Y-96105489D01*
X128594755Y-96222059D01*
X128471113Y-96371193D01*
X128432018Y-96423561D01*
X128396557Y-96462832D01*
X128374308Y-96477846D01*
X128354912Y-96471859D01*
X128302941Y-96452432D01*
X128222998Y-96421194D01*
X128119327Y-96379839D01*
X127996168Y-96330061D01*
X127857766Y-96273553D01*
X127708363Y-96212009D01*
X127572980Y-96156008D01*
X127433148Y-96098184D01*
X127308128Y-96046500D01*
X127202178Y-96002718D01*
X127119559Y-95968597D01*
X127064528Y-95945898D01*
X127041346Y-95936380D01*
X127041072Y-95936269D01*
X127021497Y-95917228D01*
X127021721Y-95880694D01*
X127042790Y-95821954D01*
X127085751Y-95736292D01*
X127089369Y-95729549D01*
X127121913Y-95665938D01*
X127144950Y-95615707D01*
X127153692Y-95589218D01*
X127143361Y-95567506D01*
X127114212Y-95518984D01*
X127069713Y-95449163D01*
X127013332Y-95363484D01*
X126948538Y-95267388D01*
X126885016Y-95172706D01*
X126828295Y-95085132D01*
X126783453Y-95012642D01*
X126753984Y-94960889D01*
X126743384Y-94935526D01*
X126744730Y-94931206D01*
X126765944Y-94901092D01*
X126809763Y-94849640D01*
X126872091Y-94781375D01*
X126948830Y-94700820D01*
X127035884Y-94612500D01*
X127328383Y-94320488D01*
X127997475Y-94775360D01*
X128147084Y-94706208D01*
X128147527Y-94706003D01*
X128242899Y-94664477D01*
X128349104Y-94622044D01*
X128443231Y-94587858D01*
X128458412Y-94582684D01*
X128528891Y-94556601D01*
X128583658Y-94533081D01*
X128611921Y-94516677D01*
X128615912Y-94509996D01*
X128629303Y-94469892D01*
X128646627Y-94401795D01*
X128666083Y-94313145D01*
X128685868Y-94211385D01*
X128691449Y-94180904D01*
X128711767Y-94070628D01*
X128730905Y-93967731D01*
X128746930Y-93882569D01*
X128757909Y-93825500D01*
X128778155Y-93722923D01*
X129205299Y-93722923D01*
X129257820Y-93722946D01*
G37*
%TD*%
%LPC*%
%TO.C,P1*%
D13*
X105680000Y-51190000D02*
X115750000Y-51190000D01*
X115750000Y-142430000D01*
X105680000Y-142430000D01*
X105680000Y-51190000D01*
G36*
X105680000Y-51190000D02*
G01*
X115750000Y-51190000D01*
X115750000Y-142430000D01*
X105680000Y-142430000D01*
X105680000Y-51190000D01*
G37*
%TD*%
D14*
%TO.C,TP1*%
X150910000Y-149250000D03*
%TD*%
D15*
%TO.C,J1*%
X149640000Y-142000000D03*
D16*
X152180000Y-142000000D03*
%TD*%
D17*
%TO.C,M1*%
X160380000Y-145780000D03*
%TD*%
%TO.C,M1*%
X160380000Y-47840000D03*
%TD*%
D18*
%TO.C,P1*%
X111050000Y-138390000D03*
X111050000Y-134430000D03*
X111050000Y-130470000D03*
X111050000Y-126510000D03*
X111050000Y-122550000D03*
X111050000Y-118590000D03*
X111050000Y-114630000D03*
X111050000Y-110670000D03*
X111050000Y-106710000D03*
X111050000Y-102750000D03*
X111050000Y-98790000D03*
X111050000Y-94830000D03*
X111050000Y-90870000D03*
X111050000Y-86910000D03*
X111050000Y-82950000D03*
X111050000Y-78990000D03*
X111050000Y-75030000D03*
X111050000Y-71070000D03*
X111050000Y-67110000D03*
X111050000Y-63150000D03*
X111050000Y-59190000D03*
X111050000Y-55230000D03*
%TD*%
D19*
%TO.C,R1*%
X132270000Y-138480000D03*
X132270000Y-130860000D03*
%TD*%
D17*
%TO.C,M1*%
X121080000Y-47840000D03*
%TD*%
%TO.C,M2*%
X121080000Y-145780000D03*
%TD*%
D20*
%TO.C,P2*%
X140730000Y-45655000D03*
X140730000Y-147965000D03*
D21*
X138190000Y-55230000D03*
X138190000Y-59190000D03*
X138190000Y-63150000D03*
X138190000Y-67110000D03*
X138190000Y-71070000D03*
X138190000Y-75030000D03*
X138190000Y-78990000D03*
X138190000Y-82950000D03*
X138190000Y-86910000D03*
X138190000Y-90870000D03*
X138190000Y-94830000D03*
X138190000Y-98790000D03*
X138190000Y-102750000D03*
X138190000Y-106710000D03*
X138190000Y-110670000D03*
X138190000Y-114630000D03*
X138190000Y-118590000D03*
X138190000Y-122550000D03*
X138190000Y-126510000D03*
X138190000Y-130470000D03*
X138190000Y-134430000D03*
X138190000Y-138390000D03*
X143270000Y-55230000D03*
X143270000Y-59190000D03*
X143270000Y-63150000D03*
X143270000Y-67110000D03*
X143270000Y-71070000D03*
X143270000Y-75030000D03*
X143270000Y-78990000D03*
X143270000Y-82950000D03*
X143270000Y-86910000D03*
X143270000Y-90870000D03*
X143270000Y-94830000D03*
X143270000Y-98790000D03*
X143270000Y-102750000D03*
X143270000Y-106710000D03*
X143270000Y-110670000D03*
X143270000Y-114630000D03*
X143270000Y-118590000D03*
X143270000Y-122550000D03*
X143270000Y-126510000D03*
X143270000Y-130470000D03*
X143270000Y-134430000D03*
X143270000Y-138390000D03*
%TD*%
D22*
%TO.C,P3*%
X164870000Y-55230000D03*
X164870000Y-59190000D03*
X164870000Y-63150000D03*
X164870000Y-67110000D03*
X164870000Y-71070000D03*
X164870000Y-75030000D03*
X164870000Y-78990000D03*
X164870000Y-82950000D03*
X164870000Y-86910000D03*
X164870000Y-90870000D03*
X164870000Y-94830000D03*
X164870000Y-98790000D03*
X164870000Y-102750000D03*
X164870000Y-106710000D03*
X164870000Y-110670000D03*
X164870000Y-114630000D03*
X164870000Y-118590000D03*
X164870000Y-122550000D03*
X164870000Y-126510000D03*
X164870000Y-130470000D03*
X164870000Y-134430000D03*
X164870000Y-138390000D03*
%TD*%
%LPD*%
M02*
