%TF.GenerationSoftware,KiCad,Pcbnew,9.0.6*%
%TF.CreationDate,2025-12-20T22:04:15+01:00*%
%TF.ProjectId,K-1002-sound-card-replica,4b2d3130-3032-42d7-936f-756e642d6361,rev?*%
%TF.SameCoordinates,Original*%
%TF.FileFunction,Soldermask,Bot*%
%TF.FilePolarity,Negative*%
%FSLAX46Y46*%
G04 Gerber Fmt 4.6, Leading zero omitted, Abs format (unit mm)*
G04 Created by KiCad (PCBNEW 9.0.6) date 2025-12-20 22:04:15*
%MOMM*%
%LPD*%
G01*
G04 APERTURE LIST*
G04 Aperture macros list*
%AMFreePoly0*
4,1,104,0.037004,0.851389,0.078872,0.848278,0.120384,0.843125,0.161471,0.835959,0.202063,0.826809,0.242091,0.815704,0.281484,0.802673,0.320173,0.787745,0.358088,0.770948,0.395160,0.752311,0.431318,0.731864,0.466494,0.709634,0.500616,0.685652,0.533617,0.659945,0.565425,0.632543,0.595971,0.603475,0.625039,0.572929,0.652441,0.541121,0.678148,0.508121,0.702130,0.473999,
0.724360,0.438824,0.744807,0.402666,0.763444,0.365595,0.780242,0.327681,0.795171,0.288992,0.808202,0.249600,0.819308,0.209573,0.828458,0.168982,0.835625,0.127895,0.840779,0.086383,0.843891,0.044516,0.844933,0.002362,0.844964,0.002645,0.843840,-0.041083,0.840541,-0.084237,0.835121,-0.126762,0.827632,-0.168606,0.818129,-0.209715,0.806664,-0.250037,0.793291,-0.289516,
0.778063,-0.328102,0.761033,-0.365739,0.742256,-0.402374,0.721784,-0.437955,0.699670,-0.472427,0.675969,-0.505739,0.650733,-0.537835,0.624015,-0.568663,0.595870,-0.598169,0.566350,-0.626301,0.535508,-0.653004,0.503399,-0.678225,0.470076,-0.701912,0.435591,-0.724010,0.399998,-0.744467,0.363351,-0.763228,0.325703,-0.780242,0.287107,-0.795453,0.247617,-0.808809,0.207286,-0.820257,
0.166167,-0.829743,0.124313,-0.837214,0.081779,-0.842617,0.038617,-0.845897,-0.005119,-0.847003,-0.048847,-0.845901,-0.092001,-0.842624,-0.134528,-0.837225,-0.176375,-0.829758,-0.217489,-0.820275,-0.257815,-0.808831,-0.297301,-0.795478,-0.335893,-0.780270,-0.373538,-0.763260,-0.410182,-0.744502,-0.445773,-0.724048,-0.480256,-0.701953,-0.513578,-0.678270,-0.545687,-0.653051,-0.576528,-0.626351,
-0.606048,-0.598223,-0.634194,-0.568719,-0.660912,-0.537894,-0.686150,-0.505800,-0.709853,-0.472492,-0.731968,-0.438021,-0.752443,-0.402443,-0.771223,-0.365809,-0.788255,-0.328174,-0.803486,-0.289591,-0.816862,-0.250113,-0.828331,-0.209794,-0.837838,-0.168686,-0.845330,-0.126843,-0.850755,-0.084319,-0.854058,-0.041166,-0.855186,0.002561,-0.855186,0.005559,-0.077003,0.849431,-0.059079,0.850752,
-0.041128,0.851691,-0.023151,0.852251,-0.005149,0.852430,0.037004,0.851389,0.037004,0.851389,$1*%
%AMFreePoly1*
4,1,93,0.043355,0.839269,0.085224,0.836156,0.126736,0.831003,0.167822,0.823837,0.208413,0.814687,0.248439,0.803582,0.287831,0.790551,0.326518,0.775623,0.364432,0.758826,0.401501,0.740190,0.437658,0.719743,0.472832,0.697514,0.506953,0.673532,0.539952,0.647826,0.571760,0.620424,0.602306,0.591356,0.631374,0.560810,0.658776,0.529002,0.684482,0.496002,0.708464,0.461880,
0.730693,0.426705,0.751140,0.390547,0.769777,0.353476,0.786574,0.315562,0.801502,0.276873,0.814534,0.237481,0.825639,0.197454,0.834790,0.156862,0.841957,0.115776,0.847111,0.074264,0.850225,0.032397,0.851268,-0.009757,0.851161,-0.009482,0.851064,-0.013608,0.850945,-0.017732,0.850642,-0.025977,0.850642,-0.026496,0.087016,-0.854865,0.086559,-0.854862,0.086345,-0.854857,
0.075713,-0.855951,0.065071,-0.856912,0.054419,-0.857738,0.043758,-0.858430,0.033088,-0.858988,0.022410,-0.859413,0.011725,-0.859704,0.001033,-0.859862,-0.006944,-0.859902,-0.014806,-0.859862,-0.015477,-0.859862,-0.844884,-0.095061,-0.845852,-0.084424,-0.846686,-0.073778,-0.847386,-0.063125,-0.847953,-0.052468,-0.848385,-0.041809,-0.848684,-0.031149,-0.848849,-0.020493,-0.848882,-0.009841,
-0.847845,0.032313,-0.844737,0.074181,-0.839587,0.115693,-0.832424,0.156781,-0.823277,0.197374,-0.812174,0.237403,-0.799145,0.276797,-0.784219,0.315487,-0.767423,0.353404,-0.748788,0.390477,-0.728343,0.426638,-0.706115,0.461815,-0.682135,0.495940,-0.656430,0.528943,-0.629031,0.560753,-0.599965,0.591302,-0.569422,0.620373,-0.537617,0.647778,-0.504619,0.673488,-0.470499,0.697473,
-0.435325,0.719705,-0.399168,0.740156,-0.362097,0.758796,-0.324181,0.775596,-0.285491,0.790528,-0.246095,0.803562,-0.206063,0.814671,-0.165464,0.823824,-0.124369,0.830994,-0.082847,0.836150,-0.040967,0.839266,0.001201,0.840310,0.043355,0.839269,0.043355,0.839269,$1*%
%AMFreePoly2*
4,1,105,0.850780,0.071242,0.852092,0.053444,0.853030,0.035626,0.853590,0.017793,0.853728,0.008873,0.853770,-0.000047,0.853435,0.000029,0.852398,-0.042126,0.849291,-0.083995,0.844142,-0.125509,0.836980,-0.166597,0.827834,-0.207191,0.816732,-0.247220,0.803705,-0.286615,0.788779,-0.325306,0.771985,-0.363223,0.753352,-0.400296,0.732907,-0.436457,0.710681,-0.471634,0.686701,-0.505759,
0.660998,-0.538762,0.633599,-0.570573,0.604533,-0.601122,0.573990,-0.630193,0.542184,-0.657598,0.509186,-0.683308,0.475065,-0.707294,0.439890,-0.729527,0.403732,-0.749978,0.366659,-0.768618,0.328742,-0.785419,0.290050,-0.800352,0.250652,-0.813387,0.210619,-0.824496,0.170020,-0.833650,0.128924,-0.840820,0.087401,-0.845977,0.045520,-0.849093,0.003352,-0.850137,-0.038802,-0.849095,
-0.080670,-0.845983,-0.122183,-0.840829,-0.163269,-0.833662,-0.203860,-0.824512,-0.243886,-0.813406,-0.283278,-0.800375,-0.321965,-0.785446,-0.359879,-0.768649,-0.396948,-0.750012,-0.433105,-0.729564,-0.468279,-0.707334,-0.502400,-0.683352,-0.535399,-0.657645,-0.567207,-0.630243,-0.597753,-0.601175,-0.626821,-0.570629,-0.654223,-0.538821,-0.679930,-0.505821,-0.703912,-0.471699,-0.726142,-0.436525,
-0.746589,-0.400368,-0.765226,-0.363298,-0.782023,-0.325386,-0.796952,-0.286700,-0.809984,-0.247312,-0.821090,-0.207290,-0.830240,-0.166704,-0.837407,-0.125625,-0.842561,-0.084122,-0.845673,-0.042265,-0.846715,-0.000124,-0.845676,0.042030,-0.842566,0.083897,-0.837415,0.125410,-0.830251,0.166497,-0.821104,0.207089,-0.810001,0.247117,-0.796972,0.286510,-0.782046,0.325199,-0.765252,0.363115,
-0.746618,0.400187,-0.726173,0.436346,-0.703946,0.471522,-0.679967,0.505646,-0.654263,0.538647,-0.626864,0.570456,-0.597798,0.601004,-0.567255,0.630074,-0.535450,0.657478,-0.502453,0.683187,-0.468332,0.707172,-0.433159,0.729404,-0.397002,0.749854,-0.359931,0.768494,-0.322015,0.785295,-0.283324,0.800227,-0.243928,0.813262,-0.203896,0.824371,-0.163298,0.833525,-0.122203,0.840695,
-0.080680,0.845852,-0.038801,0.848967,0.003367,0.850012,0.006358,0.850012,0.850780,0.071242,0.850780,0.071242,$1*%
%AMFreePoly3*
4,1,22,-1.270000,4.295000,1.270000,4.295000,1.270000,-3.025000,1.254364,-3.223672,1.198732,-3.444454,1.104571,-3.651755,0.974909,-3.838912,0.813912,-3.999909,0.626755,-4.129571,0.419454,-4.223732,0.198672,-4.279364,0.000000,-4.295000,-0.198672,-4.279364,-0.419454,-4.223732,-0.626755,-4.129571,-0.813912,-3.999909,-0.974909,-3.838912,-1.104571,-3.651755,-1.198732,-3.444454,-1.254364,-3.223672,
-1.270000,-3.025000,-1.270000,4.295000,-1.270000,4.295000,$1*%
G04 Aperture macros list end*
%ADD10C,0.120000*%
%ADD11O,1.600000X1.600000*%
%ADD12C,3.704000*%
%ADD13C,1.904000*%
%ADD14O,3.000000X1.200000*%
%ADD15C,3.500000*%
%ADD16C,1.800000*%
%ADD17C,1.600000*%
%ADD18C,1.700000*%
%ADD19O,1.700000X1.700000*%
%ADD20FreePoly0,90.000000*%
%ADD21FreePoly1,90.000000*%
%ADD22FreePoly2,90.000000*%
%ADD23FreePoly3,180.000000*%
%ADD24FreePoly0,270.000000*%
%ADD25FreePoly1,270.000000*%
%ADD26FreePoly2,270.000000*%
G04 APERTURE END LIST*
G36*
X80270000Y-55060000D02*
G01*
X218590000Y-55060000D01*
X218590000Y-141420000D01*
X80270000Y-141420000D01*
X80270000Y-55060000D01*
G37*
%TO.C,J4*%
D10*
X99190000Y-137540000D02*
X192430000Y-137540000D01*
X192430000Y-126440000D01*
X99190000Y-126440000D01*
X99190000Y-137540000D01*
G36*
X99190000Y-137540000D02*
G01*
X192430000Y-137540000D01*
X192430000Y-126440000D01*
X99190000Y-126440000D01*
X99190000Y-137540000D01*
G37*
%TD*%
D11*
%TO.C,R8*%
X121360000Y-87820000D03*
X134060000Y-87820000D03*
%TD*%
%TO.C,R21*%
X140910000Y-77660000D03*
X153610000Y-77660000D03*
%TD*%
D12*
%TO.C,R47*%
X187270000Y-63890000D03*
D13*
X191640000Y-68970000D03*
D12*
X191640000Y-68970000D03*
X196010000Y-63890000D03*
%TD*%
D14*
%TO.C,U1*%
X109290000Y-70040000D03*
X109290000Y-72580000D03*
X109290000Y-75120000D03*
X109290000Y-77660000D03*
X109290000Y-80200000D03*
X109290000Y-82740000D03*
X109290000Y-85280000D03*
X109290000Y-87820000D03*
X116910000Y-87820000D03*
X116910000Y-85280000D03*
X116910000Y-82740000D03*
X116910000Y-80200000D03*
X116910000Y-77660000D03*
X116910000Y-75120000D03*
X116910000Y-72580000D03*
X116910000Y-70040000D03*
%TD*%
D11*
%TO.C,R31*%
X156960000Y-114691000D03*
X169660000Y-114691000D03*
%TD*%
D15*
%TO.C,C11*%
X200520000Y-103180000D03*
X195520000Y-103180000D03*
%TD*%
D16*
%TO.C,C7*%
X171445000Y-111380000D03*
X177795000Y-111380000D03*
%TD*%
D11*
%TO.C,R32*%
X169660000Y-73300000D03*
X182360000Y-73300000D03*
%TD*%
D17*
%TO.C,D1*%
X182360000Y-105100000D03*
X169660000Y-105100000D03*
%TD*%
D18*
%TO.C,C4*%
X140900000Y-112780000D03*
D19*
X153600000Y-112780000D03*
%TD*%
D11*
%TO.C,R30*%
X156960000Y-69380000D03*
X169660000Y-69380000D03*
%TD*%
D12*
%TO.C,P1*%
X202700000Y-78160000D03*
X198350000Y-73080000D03*
X207050000Y-73080000D03*
%TD*%
D11*
%TO.C,R23*%
X140900000Y-92410000D03*
X153600000Y-92410000D03*
%TD*%
%TO.C,R19*%
X140910000Y-72580000D03*
X153610000Y-72580000D03*
%TD*%
%TO.C,R35*%
X169660000Y-80920000D03*
X182360000Y-80920000D03*
%TD*%
D18*
%TO.C,C2*%
X140910000Y-87890000D03*
D19*
X153610000Y-87890000D03*
%TD*%
D11*
%TO.C,R27*%
X140900000Y-102570000D03*
X153600000Y-102570000D03*
%TD*%
D20*
%TO.C,Q1*%
X187250000Y-105100000D03*
D21*
X185980000Y-106370000D03*
D22*
X187250000Y-107640000D03*
%TD*%
D11*
%TO.C,R4*%
X121360000Y-77660000D03*
X134060000Y-77660000D03*
%TD*%
D15*
%TO.C,C10*%
X200520000Y-85170000D03*
X195520000Y-85170000D03*
%TD*%
%TO.C,C8*%
X203520000Y-118610000D03*
X198520000Y-118610000D03*
%TD*%
D11*
%TO.C,R46*%
X184690000Y-68220000D03*
X184690000Y-80920000D03*
%TD*%
%TO.C,R43*%
X191670000Y-96760000D03*
X204370000Y-96760000D03*
%TD*%
%TO.C,R1*%
X121360000Y-70040000D03*
X134060000Y-70040000D03*
%TD*%
%TO.C,R42*%
X191670000Y-94220000D03*
X204370000Y-94220000D03*
%TD*%
%TO.C,R5*%
X121360000Y-80200000D03*
X134060000Y-80200000D03*
%TD*%
D16*
%TO.C,C9*%
X188390000Y-79480000D03*
X194740000Y-79480000D03*
%TD*%
D11*
%TO.C,J3*%
X142890000Y-65030000D03*
X150510000Y-65030000D03*
%TD*%
D14*
%TO.C,U4*%
X156960000Y-94940000D03*
X156960000Y-97480000D03*
X156960000Y-100020000D03*
X156960000Y-102560000D03*
X156960000Y-105100000D03*
X156960000Y-107640000D03*
X156960000Y-110180000D03*
X164580000Y-110180000D03*
X164580000Y-107640000D03*
X164580000Y-105100000D03*
X164580000Y-102560000D03*
X164580000Y-100020000D03*
X164580000Y-97480000D03*
X164580000Y-94940000D03*
%TD*%
D11*
%TO.C,R29*%
X156960000Y-66840000D03*
X169660000Y-66840000D03*
%TD*%
%TO.C,R12*%
X121360000Y-100520000D03*
X134060000Y-100520000D03*
%TD*%
%TO.C,R34*%
X169660000Y-78380000D03*
X182360000Y-78380000D03*
%TD*%
%TO.C,R45*%
X156960000Y-117231000D03*
X169660000Y-117231000D03*
%TD*%
%TO.C,R18*%
X140910000Y-70040000D03*
X153610000Y-70040000D03*
%TD*%
D23*
%TO.C,J4*%
X104230000Y-132840000D03*
X108190000Y-132840000D03*
X112150000Y-132840000D03*
X116110000Y-132840000D03*
X120070000Y-132840000D03*
X124030000Y-132840000D03*
X127990000Y-132840000D03*
X131950000Y-132840000D03*
X135910000Y-132840000D03*
X139870000Y-132840000D03*
X143830000Y-132840000D03*
X147790000Y-132840000D03*
X151750000Y-132840000D03*
X155710000Y-132840000D03*
X159670000Y-132840000D03*
X163630000Y-132840000D03*
X167590000Y-132840000D03*
X171550000Y-132840000D03*
X175510000Y-132840000D03*
X179470000Y-132840000D03*
X183430000Y-132840000D03*
X187390000Y-132840000D03*
%TD*%
D11*
%TO.C,R17*%
X121360000Y-113220000D03*
X134060000Y-113220000D03*
%TD*%
%TO.C,R15*%
X121360000Y-108140000D03*
X134060000Y-108140000D03*
%TD*%
%TO.C,R9*%
X121360000Y-90360000D03*
X134060000Y-90360000D03*
%TD*%
%TO.C,J2*%
X142890000Y-62490000D03*
X150510000Y-62490000D03*
%TD*%
%TO.C,R14*%
X121360000Y-105600000D03*
X134060000Y-105600000D03*
%TD*%
D14*
%TO.C,U3*%
X156960000Y-73300000D03*
X156960000Y-75840000D03*
X156960000Y-78380000D03*
X156960000Y-80920000D03*
X156960000Y-83460000D03*
X156960000Y-86000000D03*
X156960000Y-88540000D03*
X164580000Y-88540000D03*
X164580000Y-86000000D03*
X164580000Y-83460000D03*
X164580000Y-80920000D03*
X164580000Y-78380000D03*
X164580000Y-75840000D03*
X164580000Y-73300000D03*
%TD*%
D24*
%TO.C,Q2*%
X185980000Y-101290000D03*
D25*
X187250000Y-100020000D03*
D26*
X185980000Y-98750000D03*
%TD*%
D11*
%TO.C,R10*%
X121360000Y-95440000D03*
X134060000Y-95440000D03*
%TD*%
D20*
%TO.C,Q4*%
X187250000Y-84730000D03*
D21*
X185980000Y-86000000D03*
D22*
X187250000Y-87270000D03*
%TD*%
D17*
%TO.C,D2*%
X169660000Y-102560000D03*
X182360000Y-102560000D03*
%TD*%
D11*
%TO.C,R37*%
X169660000Y-94250000D03*
X182360000Y-94250000D03*
%TD*%
%TO.C,R28*%
X140900000Y-105110000D03*
X153600000Y-105110000D03*
%TD*%
%TO.C,R20*%
X140910000Y-75120000D03*
X153610000Y-75120000D03*
%TD*%
%TO.C,R3*%
X121360000Y-75120000D03*
X134060000Y-75120000D03*
%TD*%
D18*
%TO.C,C1*%
X140900000Y-84620000D03*
D19*
X153600000Y-84620000D03*
%TD*%
D11*
%TO.C,R7*%
X121360000Y-85280000D03*
X134060000Y-85280000D03*
%TD*%
%TO.C,R41*%
X191670000Y-91680000D03*
X204370000Y-91680000D03*
%TD*%
%TO.C,R11*%
X121360000Y-97980000D03*
X134060000Y-97980000D03*
%TD*%
%TO.C,J1*%
X182100000Y-63140000D03*
X174480000Y-63140000D03*
%TD*%
%TO.C,R36*%
X169660000Y-83460000D03*
X182360000Y-83460000D03*
%TD*%
D18*
%TO.C,C5*%
X182360000Y-87270000D03*
D19*
X169660000Y-87270000D03*
%TD*%
D11*
%TO.C,R44*%
X191670000Y-109410000D03*
X204370000Y-109410000D03*
%TD*%
D18*
%TO.C,C6*%
X182360000Y-91080000D03*
D19*
X169660000Y-91080000D03*
%TD*%
D11*
%TO.C,R6*%
X121360000Y-82740000D03*
X134060000Y-82740000D03*
%TD*%
D14*
%TO.C,U2*%
X109290000Y-95440000D03*
X109290000Y-97980000D03*
X109290000Y-100520000D03*
X109290000Y-103060000D03*
X109290000Y-105600000D03*
X109290000Y-108140000D03*
X109290000Y-110680000D03*
X109290000Y-113220000D03*
X116910000Y-113220000D03*
X116910000Y-110680000D03*
X116910000Y-108140000D03*
X116910000Y-105600000D03*
X116910000Y-103060000D03*
X116910000Y-100520000D03*
X116910000Y-97980000D03*
X116910000Y-95440000D03*
%TD*%
D11*
%TO.C,R25*%
X140900000Y-97490000D03*
X153600000Y-97490000D03*
%TD*%
D18*
%TO.C,C3*%
X140900000Y-108360000D03*
D19*
X153600000Y-108360000D03*
%TD*%
D24*
%TO.C,Q3*%
X186550000Y-93610000D03*
D25*
X187820000Y-92340000D03*
D26*
X186550000Y-91070000D03*
%TD*%
D11*
%TO.C,R2*%
X121360000Y-72580000D03*
X134060000Y-72580000D03*
%TD*%
%TO.C,R22*%
X140910000Y-80200000D03*
X153610000Y-80200000D03*
%TD*%
%TO.C,R39*%
X169660000Y-100020000D03*
X182360000Y-100020000D03*
%TD*%
%TO.C,R24*%
X140900000Y-94950000D03*
X153600000Y-94950000D03*
%TD*%
%TO.C,R40*%
X169660000Y-107640000D03*
X182360000Y-107640000D03*
%TD*%
%TO.C,R16*%
X121360000Y-110680000D03*
X134060000Y-110680000D03*
%TD*%
%TO.C,R33*%
X169660000Y-75840000D03*
X182360000Y-75840000D03*
%TD*%
%TO.C,R26*%
X140900000Y-100030000D03*
X153600000Y-100030000D03*
%TD*%
%TO.C,R13*%
X121360000Y-103060000D03*
X134060000Y-103060000D03*
%TD*%
%TO.C,R38*%
X169660000Y-97480000D03*
X182360000Y-97480000D03*
%TD*%
M02*
